<?xml version="1.0" encoding="utf-8"?>
<svg xmlns="http://www.w3.org/2000/svg" xmlns:xlink="http://www.w3.org/1999/xlink" width="720" height="480" viewBox="0 0 2880 1920">
<defs>
  <clipPath id="clip550">
    <rect x="0" y="0" width="2880" height="1920"/>
  </clipPath>
</defs>
<path clip-path="url(#clip550)" d="M0 1920 L2880 1920 L2880 0 L0 0  Z" fill="#ffffff" fill-rule="evenodd" fill-opacity="1"/>
<defs>
  <clipPath id="clip551">
    <rect x="576" y="0" width="2017" height="1920"/>
  </clipPath>
</defs>
<path clip-path="url(#clip550)" d="M357.97 1653.86 L2832.76 1653.86 L2832.76 149.392 L357.97 149.392  Z" fill="#ffffff" fill-rule="evenodd" fill-opacity="1"/>
<defs>
  <clipPath id="clip552">
    <rect x="357" y="149" width="2476" height="1505"/>
  </clipPath>
</defs>
<polyline clip-path="url(#clip552)" style="stroke:#000000; stroke-linecap:round; stroke-linejoin:round; stroke-width:2; stroke-opacity:0.1; fill:none" points="645.988,1653.86 645.988,149.392 "/>
<polyline clip-path="url(#clip552)" style="stroke:#000000; stroke-linecap:round; stroke-linejoin:round; stroke-width:2; stroke-opacity:0.1; fill:none" points="1025.74,1653.86 1025.74,149.392 "/>
<polyline clip-path="url(#clip552)" style="stroke:#000000; stroke-linecap:round; stroke-linejoin:round; stroke-width:2; stroke-opacity:0.1; fill:none" points="1405.49,1653.86 1405.49,149.392 "/>
<polyline clip-path="url(#clip552)" style="stroke:#000000; stroke-linecap:round; stroke-linejoin:round; stroke-width:2; stroke-opacity:0.1; fill:none" points="1785.24,1653.86 1785.24,149.392 "/>
<polyline clip-path="url(#clip552)" style="stroke:#000000; stroke-linecap:round; stroke-linejoin:round; stroke-width:2; stroke-opacity:0.1; fill:none" points="2164.99,1653.86 2164.99,149.392 "/>
<polyline clip-path="url(#clip552)" style="stroke:#000000; stroke-linecap:round; stroke-linejoin:round; stroke-width:2; stroke-opacity:0.1; fill:none" points="2544.74,1653.86 2544.74,149.392 "/>
<polyline clip-path="url(#clip550)" style="stroke:#000000; stroke-linecap:round; stroke-linejoin:round; stroke-width:4; stroke-opacity:1; fill:none" points="357.97,1653.86 2832.76,1653.86 "/>
<polyline clip-path="url(#clip550)" style="stroke:#000000; stroke-linecap:round; stroke-linejoin:round; stroke-width:4; stroke-opacity:1; fill:none" points="357.97,149.392 2832.76,149.392 "/>
<polyline clip-path="url(#clip550)" style="stroke:#000000; stroke-linecap:round; stroke-linejoin:round; stroke-width:4; stroke-opacity:1; fill:none" points="645.988,1653.86 645.988,1634.96 "/>
<polyline clip-path="url(#clip550)" style="stroke:#000000; stroke-linecap:round; stroke-linejoin:round; stroke-width:4; stroke-opacity:1; fill:none" points="1025.74,1653.86 1025.74,1634.96 "/>
<polyline clip-path="url(#clip550)" style="stroke:#000000; stroke-linecap:round; stroke-linejoin:round; stroke-width:4; stroke-opacity:1; fill:none" points="1405.49,1653.86 1405.49,1634.96 "/>
<polyline clip-path="url(#clip550)" style="stroke:#000000; stroke-linecap:round; stroke-linejoin:round; stroke-width:4; stroke-opacity:1; fill:none" points="1785.24,1653.86 1785.24,1634.96 "/>
<polyline clip-path="url(#clip550)" style="stroke:#000000; stroke-linecap:round; stroke-linejoin:round; stroke-width:4; stroke-opacity:1; fill:none" points="2164.99,1653.86 2164.99,1634.96 "/>
<polyline clip-path="url(#clip550)" style="stroke:#000000; stroke-linecap:round; stroke-linejoin:round; stroke-width:4; stroke-opacity:1; fill:none" points="2544.74,1653.86 2544.74,1634.96 "/>
<path clip-path="url(#clip550)" d="M546.143 1722.72 Q546.143 1709.9 550.923 1699.56 Q552.961 1695.23 555.814 1691.6 Q558.668 1687.97 560.557 1686.37 Q562.447 1684.78 562.966 1684.78 Q563.707 1684.78 563.744 1685.52 Q563.744 1685.89 562.744 1686.82 Q550.515 1699.27 550.553 1722.72 Q550.553 1746.25 562.447 1758.22 Q563.744 1759.52 563.744 1759.93 Q563.744 1760.67 562.966 1760.67 Q562.447 1760.67 560.631 1759.15 Q558.816 1757.63 556 1754.15 Q553.183 1750.66 551.145 1746.4 Q546.143 1736.06 546.143 1722.72 Z" fill="#000000" fill-rule="nonzero" fill-opacity="1" /><path clip-path="url(#clip550)" d="M570.155 1729.17 L570.155 1726.84 L593.462 1691.23 Q594.055 1690.3 594.982 1690.34 Q595.834 1690.34 596.019 1690.67 Q596.204 1691 596.204 1692.3 L596.204 1726.84 L603.801 1726.84 L603.801 1729.17 L596.204 1729.17 L596.204 1735.77 Q596.204 1737.95 597.094 1738.66 Q598.02 1739.36 601.948 1739.36 L603.541 1739.36 L603.541 1741.7 Q600.429 1741.47 593.24 1741.47 Q586.088 1741.47 582.976 1741.7 L582.976 1739.36 L584.569 1739.36 Q588.497 1739.36 589.423 1738.69 Q590.35 1737.99 590.35 1735.77 L590.35 1729.17 L570.155 1729.17 M572.304 1726.84 L590.794 1726.84 L590.794 1698.53 L572.304 1726.84 Z" fill="#000000" fill-rule="nonzero" fill-opacity="1" /><path clip-path="url(#clip550)" d="M613.583 1740.47 Q612.509 1739.25 612.509 1737.66 Q612.509 1736.06 613.546 1734.88 Q614.621 1733.65 616.548 1733.65 Q618.808 1733.65 620.105 1735.84 Q621.402 1737.99 621.402 1741.62 Q621.402 1745.55 619.808 1749.18 Q618.215 1752.85 616.659 1754.59 Q615.102 1756.33 614.472 1756.33 Q613.731 1756.33 613.731 1755.52 Q613.731 1755.22 614.25 1754.67 Q619.697 1748.81 619.734 1741.62 Q619.734 1740.47 619.586 1740.47 L619.401 1740.62 Q618.104 1741.7 616.548 1741.7 Q614.658 1741.7 613.583 1740.47 Z" fill="#000000" fill-rule="nonzero" fill-opacity="1" /><path clip-path="url(#clip550)" d="M630.777 1741.7 Q630.777 1740.32 630.888 1739.92 Q631.036 1739.51 631.629 1738.88 L646.192 1722.65 Q654.158 1713.68 654.158 1705.86 Q654.158 1700.79 651.49 1697.16 Q648.86 1693.52 644.005 1693.52 Q640.67 1693.52 637.854 1695.56 Q635.038 1697.6 633.741 1701.23 Q633.963 1701.16 634.742 1701.16 Q636.631 1701.16 637.669 1702.34 Q638.744 1703.53 638.744 1705.12 Q638.744 1707.16 637.41 1708.16 Q636.113 1709.12 634.816 1709.12 Q634.297 1709.12 633.593 1709.01 Q632.926 1708.9 631.851 1707.86 Q630.777 1706.79 630.777 1704.9 Q630.777 1699.6 634.779 1695.38 Q638.818 1691.15 644.969 1691.15 Q651.935 1691.15 656.493 1695.3 Q661.088 1699.42 661.088 1705.86 Q661.088 1708.12 660.384 1710.2 Q659.717 1712.24 658.79 1713.83 Q657.901 1715.42 655.455 1717.98 Q653.01 1720.54 651.046 1722.35 Q649.082 1724.17 644.672 1728.02 L636.631 1735.84 L650.305 1735.84 Q656.975 1735.84 657.493 1735.25 Q658.234 1734.17 659.161 1728.5 L661.088 1728.5 L658.939 1741.7 L630.777 1741.7 Z" fill="#000000" fill-rule="nonzero" fill-opacity="1" /><path clip-path="url(#clip550)" d="M672.538 1740.47 Q671.463 1739.25 671.463 1737.66 Q671.463 1736.06 672.501 1734.88 Q673.575 1733.65 675.502 1733.65 Q677.762 1733.65 679.059 1735.84 Q680.356 1737.99 680.356 1741.62 Q680.356 1745.55 678.763 1749.18 Q677.17 1752.85 675.613 1754.59 Q674.057 1756.33 673.427 1756.33 Q672.686 1756.33 672.686 1755.52 Q672.686 1755.22 673.205 1754.67 Q678.652 1748.81 678.689 1741.62 Q678.689 1740.47 678.541 1740.47 L678.355 1740.62 Q677.058 1741.7 675.502 1741.7 Q673.612 1741.7 672.538 1740.47 Z" fill="#000000" fill-rule="nonzero" fill-opacity="1" /><path clip-path="url(#clip550)" d="M689.138 1731.47 Q689.138 1729.21 690.435 1728.13 Q691.732 1727.06 693.4 1727.06 Q695.141 1727.06 696.364 1728.21 Q697.624 1729.32 697.624 1731.28 Q697.624 1733.4 696.142 1734.58 Q694.697 1735.77 692.622 1735.47 Q694.437 1738.51 697.772 1739.88 Q701.144 1741.25 704.257 1741.25 Q707.518 1741.25 710.149 1738.43 Q712.817 1735.62 712.817 1728.73 Q712.817 1722.87 710.519 1719.5 Q708.259 1716.13 703.775 1716.13 L700.44 1716.13 Q699.291 1716.13 698.958 1716.02 Q698.624 1715.91 698.624 1715.28 Q698.624 1714.53 699.773 1714.39 Q700.922 1714.39 702.738 1714.16 Q707.147 1714.02 709.482 1710.2 Q711.594 1706.64 711.594 1701.57 Q711.594 1696.93 709.37 1695.01 Q707.184 1693.04 704.331 1693.04 Q701.663 1693.04 698.736 1694.15 Q695.808 1695.27 694.215 1697.75 Q698.921 1697.75 698.921 1701.57 Q698.921 1703.23 697.846 1704.34 Q696.809 1705.42 695.067 1705.42 Q693.4 1705.42 692.288 1704.38 Q691.176 1703.31 691.176 1701.49 Q691.176 1697.16 695.03 1694.15 Q698.921 1691.15 704.627 1691.15 Q710.26 1691.15 714.41 1694.12 Q718.597 1697.08 718.597 1701.64 Q718.597 1706.12 715.633 1709.79 Q712.668 1713.46 707.962 1714.98 Q713.743 1716.13 717.189 1720.06 Q720.635 1723.95 720.635 1728.73 Q720.635 1734.66 715.966 1739.03 Q711.297 1743.36 704.479 1743.36 Q698.18 1743.36 693.659 1739.95 Q689.138 1736.55 689.138 1731.47 Z" fill="#000000" fill-rule="nonzero" fill-opacity="1" /><path clip-path="url(#clip550)" d="M728.231 1759.93 Q728.231 1759.56 729.195 1758.63 Q741.423 1746.18 741.423 1722.72 Q741.423 1699.19 729.677 1687.3 Q728.231 1685.93 728.231 1685.52 Q728.231 1684.78 728.973 1684.78 Q729.491 1684.78 731.307 1686.3 Q733.16 1687.82 735.939 1691.3 Q738.755 1694.78 740.83 1699.05 Q745.833 1709.38 745.833 1722.72 Q745.833 1735.54 741.052 1745.88 Q739.014 1750.22 736.161 1753.85 Q733.308 1757.48 731.418 1759.07 Q729.528 1760.67 728.973 1760.67 Q728.231 1760.67 728.231 1759.93 Z" fill="#000000" fill-rule="nonzero" fill-opacity="1" /><path clip-path="url(#clip550)" d="M925.893 1722.72 Q925.893 1709.9 930.673 1699.56 Q932.711 1695.23 935.564 1691.6 Q938.418 1687.97 940.307 1686.37 Q942.197 1684.78 942.716 1684.78 Q943.457 1684.78 943.494 1685.52 Q943.494 1685.89 942.494 1686.82 Q930.266 1699.27 930.303 1722.72 Q930.303 1746.25 942.197 1758.22 Q943.494 1759.52 943.494 1759.93 Q943.494 1760.67 942.716 1760.67 Q942.197 1760.67 940.382 1759.15 Q938.566 1757.63 935.75 1754.15 Q932.934 1750.66 930.895 1746.4 Q925.893 1736.06 925.893 1722.72 Z" fill="#000000" fill-rule="nonzero" fill-opacity="1" /><path clip-path="url(#clip550)" d="M954.537 1698.38 L954.537 1696.01 Q963.652 1696.01 968.358 1691.15 Q969.655 1691.15 969.877 1691.45 Q970.1 1691.75 970.1 1693.12 L970.1 1735.69 Q970.1 1737.95 971.211 1738.66 Q972.323 1739.36 977.177 1739.36 L979.586 1739.36 L979.586 1741.7 Q976.918 1741.47 967.284 1741.47 Q957.649 1741.47 955.018 1741.7 L955.018 1739.36 L957.427 1739.36 Q962.207 1739.36 963.356 1738.69 Q964.504 1737.99 964.504 1735.69 L964.504 1696.38 Q960.54 1698.38 954.537 1698.38 Z" fill="#000000" fill-rule="nonzero" fill-opacity="1" /><path clip-path="url(#clip550)" d="M993.333 1740.47 Q992.259 1739.25 992.259 1737.66 Q992.259 1736.06 993.296 1734.88 Q994.371 1733.65 996.298 1733.65 Q998.558 1733.65 999.855 1735.84 Q1001.15 1737.99 1001.15 1741.62 Q1001.15 1745.55 999.558 1749.18 Q997.965 1752.85 996.409 1754.59 Q994.852 1756.33 994.223 1756.33 Q993.481 1756.33 993.481 1755.52 Q993.481 1755.22 994 1754.67 Q999.447 1748.81 999.484 1741.62 Q999.484 1740.47 999.336 1740.47 L999.151 1740.62 Q997.854 1741.7 996.298 1741.7 Q994.408 1741.7 993.333 1740.47 Z" fill="#000000" fill-rule="nonzero" fill-opacity="1" /><path clip-path="url(#clip550)" d="M1013.49 1698.38 L1013.49 1696.01 Q1022.61 1696.01 1027.31 1691.15 Q1028.61 1691.15 1028.83 1691.45 Q1029.05 1691.75 1029.05 1693.12 L1029.05 1735.69 Q1029.05 1737.95 1030.17 1738.66 Q1031.28 1739.36 1036.13 1739.36 L1038.54 1739.36 L1038.54 1741.7 Q1035.87 1741.47 1026.24 1741.47 Q1016.6 1741.47 1013.97 1741.7 L1013.97 1739.36 L1016.38 1739.36 Q1021.16 1739.36 1022.31 1738.69 Q1023.46 1737.99 1023.46 1735.69 L1023.46 1696.38 Q1019.49 1698.38 1013.49 1698.38 Z" fill="#000000" fill-rule="nonzero" fill-opacity="1" /><path clip-path="url(#clip550)" d="M1052.29 1740.47 Q1051.21 1739.25 1051.21 1737.66 Q1051.21 1736.06 1052.25 1734.88 Q1053.33 1733.65 1055.25 1733.65 Q1057.51 1733.65 1058.81 1735.84 Q1060.11 1737.99 1060.11 1741.62 Q1060.11 1745.55 1058.51 1749.18 Q1056.92 1752.85 1055.36 1754.59 Q1053.81 1756.33 1053.18 1756.33 Q1052.44 1756.33 1052.44 1755.52 Q1052.44 1755.22 1052.95 1754.67 Q1058.4 1748.81 1058.44 1741.62 Q1058.44 1740.47 1058.29 1740.47 L1058.11 1740.62 Q1056.81 1741.7 1055.25 1741.7 Q1053.36 1741.7 1052.29 1740.47 Z" fill="#000000" fill-rule="nonzero" fill-opacity="1" /><path clip-path="url(#clip550)" d="M1069.48 1741.7 Q1069.48 1740.32 1069.59 1739.92 Q1069.74 1739.51 1070.33 1738.88 L1084.9 1722.65 Q1092.86 1713.68 1092.86 1705.86 Q1092.86 1700.79 1090.2 1697.16 Q1087.56 1693.52 1082.71 1693.52 Q1079.38 1693.52 1076.56 1695.56 Q1073.74 1697.6 1072.45 1701.23 Q1072.67 1701.16 1073.45 1701.16 Q1075.34 1701.16 1076.37 1702.34 Q1077.45 1703.53 1077.45 1705.12 Q1077.45 1707.16 1076.11 1708.16 Q1074.82 1709.12 1073.52 1709.12 Q1073 1709.12 1072.3 1709.01 Q1071.63 1708.9 1070.56 1707.86 Q1069.48 1706.79 1069.48 1704.9 Q1069.48 1699.6 1073.48 1695.38 Q1077.52 1691.15 1083.67 1691.15 Q1090.64 1691.15 1095.2 1695.3 Q1099.79 1699.42 1099.79 1705.86 Q1099.79 1708.12 1099.09 1710.2 Q1098.42 1712.24 1097.49 1713.83 Q1096.61 1715.42 1094.16 1717.98 Q1091.71 1720.54 1089.75 1722.35 Q1087.79 1724.17 1083.38 1728.02 L1075.34 1735.84 L1089.01 1735.84 Q1095.68 1735.84 1096.2 1735.25 Q1096.94 1734.17 1097.87 1728.5 L1099.79 1728.5 L1097.64 1741.7 L1069.48 1741.7 Z" fill="#000000" fill-rule="nonzero" fill-opacity="1" /><path clip-path="url(#clip550)" d="M1107.98 1759.93 Q1107.98 1759.56 1108.94 1758.63 Q1121.17 1746.18 1121.17 1722.72 Q1121.17 1699.19 1109.43 1687.3 Q1107.98 1685.93 1107.98 1685.52 Q1107.98 1684.78 1108.72 1684.78 Q1109.24 1684.78 1111.06 1686.3 Q1112.91 1687.82 1115.69 1691.3 Q1118.51 1694.78 1120.58 1699.05 Q1125.58 1709.38 1125.58 1722.72 Q1125.58 1735.54 1120.8 1745.88 Q1118.76 1750.22 1115.91 1753.85 Q1113.06 1757.48 1111.17 1759.07 Q1109.28 1760.67 1108.72 1760.67 Q1107.98 1760.67 1107.98 1759.93 Z" fill="#000000" fill-rule="nonzero" fill-opacity="1" /><path clip-path="url(#clip550)" d="M1305.64 1722.72 Q1305.64 1709.9 1310.42 1699.56 Q1312.46 1695.23 1315.31 1691.6 Q1318.17 1687.97 1320.06 1686.37 Q1321.95 1684.78 1322.47 1684.78 Q1323.21 1684.78 1323.24 1685.52 Q1323.24 1685.89 1322.24 1686.82 Q1310.02 1699.27 1310.05 1722.72 Q1310.05 1746.25 1321.95 1758.22 Q1323.24 1759.52 1323.24 1759.93 Q1323.24 1760.67 1322.47 1760.67 Q1321.95 1760.67 1320.13 1759.15 Q1318.32 1757.63 1315.5 1754.15 Q1312.68 1750.66 1310.65 1746.4 Q1305.64 1736.06 1305.64 1722.72 Z" fill="#000000" fill-rule="nonzero" fill-opacity="1" /><path clip-path="url(#clip550)" d="M1331.32 1729.47 Q1331.32 1727.21 1332.55 1726.35 Q1333.77 1725.47 1335.06 1725.47 Q1336.81 1725.47 1337.81 1726.58 Q1338.84 1727.65 1338.84 1729.17 Q1338.84 1730.69 1337.81 1731.8 Q1336.81 1732.88 1335.06 1732.88 Q1334.21 1732.88 1333.77 1732.73 Q1334.77 1736.21 1337.81 1738.73 Q1340.88 1741.25 1344.92 1741.25 Q1350 1741.25 1353.04 1736.32 Q1354.85 1733.14 1354.85 1725.91 Q1354.85 1719.54 1353.48 1716.35 Q1351.37 1711.5 1347.03 1711.5 Q1340.88 1711.5 1337.25 1716.79 Q1336.81 1717.46 1336.29 1717.5 Q1335.55 1717.5 1335.36 1717.09 Q1335.21 1716.65 1335.21 1715.5 L1335.21 1693.04 Q1335.21 1691.23 1335.95 1691.23 Q1336.25 1691.23 1336.88 1691.45 Q1341.66 1693.56 1346.96 1693.6 Q1352.41 1693.6 1357.3 1691.38 Q1357.67 1691.15 1357.89 1691.15 Q1358.63 1691.15 1358.67 1692 Q1358.67 1692.3 1358.04 1693.19 Q1357.45 1694.04 1356.15 1695.19 Q1354.85 1696.3 1353.18 1697.38 Q1351.52 1698.45 1349.07 1699.19 Q1346.66 1699.9 1344 1699.9 Q1340.81 1699.9 1337.55 1698.9 L1337.55 1713.68 Q1341.48 1709.83 1347.18 1709.83 Q1353.26 1709.83 1357.45 1714.72 Q1361.63 1719.61 1361.63 1726.43 Q1361.63 1733.58 1356.67 1738.47 Q1351.74 1743.36 1345.07 1743.36 Q1338.99 1743.36 1335.14 1739.03 Q1331.32 1734.69 1331.32 1729.47 Z" fill="#000000" fill-rule="nonzero" fill-opacity="1" /><path clip-path="url(#clip550)" d="M1373.08 1740.47 Q1372.01 1739.25 1372.01 1737.66 Q1372.01 1736.06 1373.05 1734.88 Q1374.12 1733.65 1376.05 1733.65 Q1378.31 1733.65 1379.61 1735.84 Q1380.9 1737.99 1380.9 1741.62 Q1380.9 1745.55 1379.31 1749.18 Q1377.72 1752.85 1376.16 1754.59 Q1374.6 1756.33 1373.97 1756.33 Q1373.23 1756.33 1373.23 1755.52 Q1373.23 1755.22 1373.75 1754.67 Q1379.2 1748.81 1379.23 1741.62 Q1379.23 1740.47 1379.09 1740.47 L1378.9 1740.62 Q1377.6 1741.7 1376.05 1741.7 Q1374.16 1741.7 1373.08 1740.47 Z" fill="#000000" fill-rule="nonzero" fill-opacity="1" /><path clip-path="url(#clip550)" d="M1389.68 1731.47 Q1389.68 1729.21 1390.98 1728.13 Q1392.28 1727.06 1393.95 1727.06 Q1395.69 1727.06 1396.91 1728.21 Q1398.17 1729.32 1398.17 1731.28 Q1398.17 1733.4 1396.69 1734.58 Q1395.24 1735.77 1393.17 1735.47 Q1394.98 1738.51 1398.32 1739.88 Q1401.69 1741.25 1404.8 1741.25 Q1408.06 1741.25 1410.69 1738.43 Q1413.36 1735.62 1413.36 1728.73 Q1413.36 1722.87 1411.06 1719.5 Q1408.8 1716.13 1404.32 1716.13 L1400.99 1716.13 Q1399.84 1716.13 1399.5 1716.02 Q1399.17 1715.91 1399.17 1715.28 Q1399.17 1714.53 1400.32 1714.39 Q1401.47 1714.39 1403.28 1714.16 Q1407.69 1714.02 1410.03 1710.2 Q1412.14 1706.64 1412.14 1701.57 Q1412.14 1696.93 1409.92 1695.01 Q1407.73 1693.04 1404.88 1693.04 Q1402.21 1693.04 1399.28 1694.15 Q1396.35 1695.27 1394.76 1697.75 Q1399.47 1697.75 1399.47 1701.57 Q1399.47 1703.23 1398.39 1704.34 Q1397.35 1705.42 1395.61 1705.42 Q1393.95 1705.42 1392.83 1704.38 Q1391.72 1703.31 1391.72 1701.49 Q1391.72 1697.16 1395.58 1694.15 Q1399.47 1691.15 1405.17 1691.15 Q1410.81 1691.15 1414.96 1694.12 Q1419.14 1697.08 1419.14 1701.64 Q1419.14 1706.12 1416.18 1709.79 Q1413.21 1713.46 1408.51 1714.98 Q1414.29 1716.13 1417.73 1720.06 Q1421.18 1723.95 1421.18 1728.73 Q1421.18 1734.66 1416.51 1739.03 Q1411.84 1743.36 1405.02 1743.36 Q1398.73 1743.36 1394.2 1739.95 Q1389.68 1736.55 1389.68 1731.47 Z" fill="#000000" fill-rule="nonzero" fill-opacity="1" /><path clip-path="url(#clip550)" d="M1432.04 1740.47 Q1430.96 1739.25 1430.96 1737.66 Q1430.96 1736.06 1432 1734.88 Q1433.08 1733.65 1435 1733.65 Q1437.26 1733.65 1438.56 1735.84 Q1439.86 1737.99 1439.86 1741.62 Q1439.86 1745.55 1438.26 1749.18 Q1436.67 1752.85 1435.11 1754.59 Q1433.56 1756.33 1432.93 1756.33 Q1432.19 1756.33 1432.19 1755.52 Q1432.19 1755.22 1432.7 1754.67 Q1438.15 1748.81 1438.19 1741.62 Q1438.19 1740.47 1438.04 1740.47 L1437.86 1740.62 Q1436.56 1741.7 1435 1741.7 Q1433.11 1741.7 1432.04 1740.47 Z" fill="#000000" fill-rule="nonzero" fill-opacity="1" /><path clip-path="url(#clip550)" d="M1447.56 1729.17 L1447.56 1726.84 L1470.87 1691.23 Q1471.46 1690.3 1472.39 1690.34 Q1473.24 1690.34 1473.43 1690.67 Q1473.61 1691 1473.61 1692.3 L1473.61 1726.84 L1481.21 1726.84 L1481.21 1729.17 L1473.61 1729.17 L1473.61 1735.77 Q1473.61 1737.95 1474.5 1738.66 Q1475.43 1739.36 1479.36 1739.36 L1480.95 1739.36 L1480.95 1741.7 Q1477.84 1741.47 1470.65 1741.47 Q1463.5 1741.47 1460.38 1741.7 L1460.38 1739.36 L1461.98 1739.36 Q1465.91 1739.36 1466.83 1738.69 Q1467.76 1737.99 1467.76 1735.77 L1467.76 1729.17 L1447.56 1729.17 M1449.71 1726.84 L1468.2 1726.84 L1468.2 1698.53 L1449.71 1726.84 Z" fill="#000000" fill-rule="nonzero" fill-opacity="1" /><path clip-path="url(#clip550)" d="M1487.73 1759.93 Q1487.73 1759.56 1488.7 1758.63 Q1500.92 1746.18 1500.92 1722.72 Q1500.92 1699.19 1489.18 1687.3 Q1487.73 1685.93 1487.73 1685.52 Q1487.73 1684.78 1488.47 1684.78 Q1488.99 1684.78 1490.81 1686.3 Q1492.66 1687.82 1495.44 1691.3 Q1498.26 1694.78 1500.33 1699.05 Q1505.33 1709.38 1505.33 1722.72 Q1505.33 1735.54 1500.55 1745.88 Q1498.51 1750.22 1495.66 1753.85 Q1492.81 1757.48 1490.92 1759.07 Q1489.03 1760.67 1488.47 1760.67 Q1487.73 1760.67 1487.73 1759.93 Z" fill="#000000" fill-rule="nonzero" fill-opacity="1" /><path clip-path="url(#clip550)" d="M1685.39 1722.72 Q1685.39 1709.9 1690.17 1699.56 Q1692.21 1695.23 1695.06 1691.6 Q1697.92 1687.97 1699.81 1686.37 Q1701.7 1684.78 1702.22 1684.78 Q1702.96 1684.78 1702.99 1685.52 Q1702.99 1685.89 1701.99 1686.82 Q1689.77 1699.27 1689.8 1722.72 Q1689.8 1746.25 1701.7 1758.22 Q1702.99 1759.52 1702.99 1759.93 Q1702.99 1760.67 1702.22 1760.67 Q1701.7 1760.67 1699.88 1759.15 Q1698.07 1757.63 1695.25 1754.15 Q1692.43 1750.66 1690.4 1746.4 Q1685.39 1736.06 1685.39 1722.72 Z" fill="#000000" fill-rule="nonzero" fill-opacity="1" /><path clip-path="url(#clip550)" d="M1711.07 1741.7 Q1711.07 1740.32 1711.18 1739.92 Q1711.33 1739.51 1711.92 1738.88 L1726.49 1722.65 Q1734.45 1713.68 1734.45 1705.86 Q1734.45 1700.79 1731.79 1697.16 Q1729.16 1693.52 1724.3 1693.52 Q1720.97 1693.52 1718.15 1695.56 Q1715.33 1697.6 1714.04 1701.23 Q1714.26 1701.16 1715.04 1701.16 Q1716.93 1701.16 1717.96 1702.34 Q1719.04 1703.53 1719.04 1705.12 Q1719.04 1707.16 1717.71 1708.16 Q1716.41 1709.12 1715.11 1709.12 Q1714.59 1709.12 1713.89 1709.01 Q1713.22 1708.9 1712.15 1707.86 Q1711.07 1706.79 1711.07 1704.9 Q1711.07 1699.6 1715.07 1695.38 Q1719.11 1691.15 1725.26 1691.15 Q1732.23 1691.15 1736.79 1695.3 Q1741.38 1699.42 1741.38 1705.86 Q1741.38 1708.12 1740.68 1710.2 Q1740.01 1712.24 1739.09 1713.83 Q1738.2 1715.42 1735.75 1717.98 Q1733.31 1720.54 1731.34 1722.35 Q1729.38 1724.17 1724.97 1728.02 L1716.93 1735.84 L1730.6 1735.84 Q1737.27 1735.84 1737.79 1735.25 Q1738.53 1734.17 1739.46 1728.5 L1741.38 1728.5 L1739.23 1741.7 L1711.07 1741.7 Z" fill="#000000" fill-rule="nonzero" fill-opacity="1" /><path clip-path="url(#clip550)" d="M1752.83 1740.47 Q1751.76 1739.25 1751.76 1737.66 Q1751.76 1736.06 1752.8 1734.88 Q1753.87 1733.65 1755.8 1733.65 Q1758.06 1733.65 1759.36 1735.84 Q1760.65 1737.99 1760.65 1741.62 Q1760.65 1745.55 1759.06 1749.18 Q1757.47 1752.85 1755.91 1754.59 Q1754.35 1756.33 1753.72 1756.33 Q1752.98 1756.33 1752.98 1755.52 Q1752.98 1755.22 1753.5 1754.67 Q1758.95 1748.81 1758.98 1741.62 Q1758.98 1740.47 1758.84 1740.47 L1758.65 1740.62 Q1757.35 1741.7 1755.8 1741.7 Q1753.91 1741.7 1752.83 1740.47 Z" fill="#000000" fill-rule="nonzero" fill-opacity="1" /><path clip-path="url(#clip550)" d="M1772.99 1698.38 L1772.99 1696.01 Q1782.11 1696.01 1786.81 1691.15 Q1788.11 1691.15 1788.33 1691.45 Q1788.55 1691.75 1788.55 1693.12 L1788.55 1735.69 Q1788.55 1737.95 1789.67 1738.66 Q1790.78 1739.36 1795.63 1739.36 L1798.04 1739.36 L1798.04 1741.7 Q1795.37 1741.47 1785.74 1741.47 Q1776.1 1741.47 1773.47 1741.7 L1773.47 1739.36 L1775.88 1739.36 Q1780.66 1739.36 1781.81 1738.69 Q1782.96 1737.99 1782.96 1735.69 L1782.96 1696.38 Q1778.99 1698.38 1772.99 1698.38 Z" fill="#000000" fill-rule="nonzero" fill-opacity="1" /><path clip-path="url(#clip550)" d="M1811.79 1740.47 Q1810.71 1739.25 1810.71 1737.66 Q1810.71 1736.06 1811.75 1734.88 Q1812.83 1733.65 1814.75 1733.65 Q1817.01 1733.65 1818.31 1735.84 Q1819.61 1737.99 1819.61 1741.62 Q1819.61 1745.55 1818.01 1749.18 Q1816.42 1752.85 1814.86 1754.59 Q1813.31 1756.33 1812.68 1756.33 Q1811.94 1756.33 1811.94 1755.52 Q1811.94 1755.22 1812.45 1754.67 Q1817.9 1748.81 1817.94 1741.62 Q1817.94 1740.47 1817.79 1740.47 L1817.61 1740.62 Q1816.31 1741.7 1814.75 1741.7 Q1812.86 1741.7 1811.79 1740.47 Z" fill="#000000" fill-rule="nonzero" fill-opacity="1" /><path clip-path="url(#clip550)" d="M1827.31 1729.17 L1827.31 1726.84 L1850.62 1691.23 Q1851.21 1690.3 1852.14 1690.34 Q1852.99 1690.34 1853.18 1690.67 Q1853.36 1691 1853.36 1692.3 L1853.36 1726.84 L1860.96 1726.84 L1860.96 1729.17 L1853.36 1729.17 L1853.36 1735.77 Q1853.36 1737.95 1854.25 1738.66 Q1855.18 1739.36 1859.11 1739.36 L1860.7 1739.36 L1860.7 1741.7 Q1857.59 1741.47 1850.4 1741.47 Q1843.25 1741.47 1840.14 1741.7 L1840.14 1739.36 L1841.73 1739.36 Q1845.66 1739.36 1846.58 1738.69 Q1847.51 1737.99 1847.51 1735.77 L1847.51 1729.17 L1827.31 1729.17 M1829.46 1726.84 L1847.95 1726.84 L1847.95 1698.53 L1829.46 1726.84 Z" fill="#000000" fill-rule="nonzero" fill-opacity="1" /><path clip-path="url(#clip550)" d="M1867.48 1759.93 Q1867.48 1759.56 1868.45 1758.63 Q1880.67 1746.18 1880.67 1722.72 Q1880.67 1699.19 1868.93 1687.3 Q1867.48 1685.93 1867.48 1685.52 Q1867.48 1684.78 1868.22 1684.78 Q1868.74 1684.78 1870.56 1686.3 Q1872.41 1687.82 1875.19 1691.3 Q1878.01 1694.78 1880.08 1699.05 Q1885.08 1709.38 1885.08 1722.72 Q1885.08 1735.54 1880.3 1745.88 Q1878.26 1750.22 1875.41 1753.85 Q1872.56 1757.48 1870.67 1759.07 Q1868.78 1760.67 1868.22 1760.67 Q1867.48 1760.67 1867.48 1759.93 Z" fill="#000000" fill-rule="nonzero" fill-opacity="1" /><path clip-path="url(#clip550)" d="M2065.14 1722.72 Q2065.14 1709.9 2069.92 1699.56 Q2071.96 1695.23 2074.81 1691.6 Q2077.67 1687.97 2079.56 1686.37 Q2081.45 1684.78 2081.97 1684.78 Q2082.71 1684.78 2082.74 1685.52 Q2082.74 1685.89 2081.74 1686.82 Q2069.52 1699.27 2069.55 1722.72 Q2069.55 1746.25 2081.45 1758.22 Q2082.74 1759.52 2082.74 1759.93 Q2082.74 1760.67 2081.97 1760.67 Q2081.45 1760.67 2079.63 1759.15 Q2077.82 1757.63 2075 1754.15 Q2072.18 1750.66 2070.15 1746.4 Q2065.14 1736.06 2065.14 1722.72 Z" fill="#000000" fill-rule="nonzero" fill-opacity="1" /><path clip-path="url(#clip550)" d="M2090.23 1717.72 Q2090.23 1705.79 2096.31 1698.49 Q2102.38 1691.15 2110.2 1691.15 Q2114.76 1691.15 2117.28 1693.49 Q2119.84 1695.78 2119.84 1699.34 Q2119.84 1701.31 2118.69 1702.16 Q2117.54 1703.01 2116.35 1703.01 Q2114.98 1703.01 2113.91 1702.08 Q2112.83 1701.16 2112.83 1699.49 Q2112.83 1696.08 2117.02 1696.08 Q2115.06 1693.04 2110.35 1693.04 Q2108.91 1693.04 2107.42 1693.49 Q2105.94 1693.89 2104.01 1695.3 Q2102.09 1696.71 2100.61 1698.93 Q2099.12 1701.16 2098.09 1705.34 Q2097.05 1709.53 2097.05 1714.98 L2097.05 1716.79 Q2100.16 1709.27 2106.53 1709.31 Q2112.91 1709.31 2117.32 1714.16 Q2121.73 1719.02 2121.73 1726.21 Q2121.73 1733.58 2117.13 1738.47 Q2112.54 1743.36 2106.09 1743.36 Q2103.2 1743.36 2100.57 1742.14 Q2097.97 1740.95 2095.53 1738.21 Q2093.12 1735.47 2091.67 1730.21 Q2090.23 1724.95 2090.23 1717.72 M2097.2 1724.54 Q2097.2 1731.99 2098.57 1735.54 Q2098.79 1736.14 2099.27 1736.95 Q2099.79 1737.77 2100.64 1738.84 Q2101.53 1739.88 2102.98 1740.58 Q2104.42 1741.25 2106.09 1741.25 Q2111.17 1741.25 2113.61 1736.32 Q2114.91 1733.58 2114.91 1726.13 Q2114.91 1718.54 2113.54 1715.76 Q2111.2 1711.05 2106.46 1711.05 Q2103.27 1711.05 2101.05 1713.24 Q2098.86 1715.42 2098.01 1718.35 Q2097.2 1721.28 2097.2 1724.54 Z" fill="#000000" fill-rule="nonzero" fill-opacity="1" /><path clip-path="url(#clip550)" d="M2132.58 1740.47 Q2131.51 1739.25 2131.51 1737.66 Q2131.51 1736.06 2132.55 1734.88 Q2133.62 1733.65 2135.55 1733.65 Q2137.81 1733.65 2139.11 1735.84 Q2140.4 1737.99 2140.4 1741.62 Q2140.4 1745.55 2138.81 1749.18 Q2137.22 1752.85 2135.66 1754.59 Q2134.1 1756.33 2133.47 1756.33 Q2132.73 1756.33 2132.73 1755.52 Q2132.73 1755.22 2133.25 1754.67 Q2138.7 1748.81 2138.73 1741.62 Q2138.73 1740.47 2138.59 1740.47 L2138.4 1740.62 Q2137.1 1741.7 2135.55 1741.7 Q2133.66 1741.7 2132.58 1740.47 Z" fill="#000000" fill-rule="nonzero" fill-opacity="1" /><path clip-path="url(#clip550)" d="M2148.11 1729.17 L2148.11 1726.84 L2171.42 1691.23 Q2172.01 1690.3 2172.94 1690.34 Q2173.79 1690.34 2173.97 1690.67 Q2174.16 1691 2174.16 1692.3 L2174.16 1726.84 L2181.76 1726.84 L2181.76 1729.17 L2174.16 1729.17 L2174.16 1735.77 Q2174.16 1737.95 2175.05 1738.66 Q2175.97 1739.36 2179.9 1739.36 L2181.5 1739.36 L2181.5 1741.7 Q2178.38 1741.47 2171.19 1741.47 Q2164.04 1741.47 2160.93 1741.7 L2160.93 1739.36 L2162.52 1739.36 Q2166.45 1739.36 2167.38 1738.69 Q2168.3 1737.99 2168.3 1735.77 L2168.3 1729.17 L2148.11 1729.17 M2150.26 1726.84 L2168.75 1726.84 L2168.75 1698.53 L2150.26 1726.84 Z" fill="#000000" fill-rule="nonzero" fill-opacity="1" /><path clip-path="url(#clip550)" d="M2191.54 1740.47 Q2190.46 1739.25 2190.46 1737.66 Q2190.46 1736.06 2191.5 1734.88 Q2192.58 1733.65 2194.5 1733.65 Q2196.76 1733.65 2198.06 1735.84 Q2199.36 1737.99 2199.36 1741.62 Q2199.36 1745.55 2197.76 1749.18 Q2196.17 1752.85 2194.61 1754.59 Q2193.06 1756.33 2192.43 1756.33 Q2191.69 1756.33 2191.69 1755.52 Q2191.69 1755.22 2192.21 1754.67 Q2197.65 1748.81 2197.69 1741.62 Q2197.69 1740.47 2197.54 1740.47 L2197.36 1740.62 Q2196.06 1741.7 2194.5 1741.7 Q2192.61 1741.7 2191.54 1740.47 Z" fill="#000000" fill-rule="nonzero" fill-opacity="1" /><path clip-path="url(#clip550)" d="M2208.73 1729.47 Q2208.73 1727.21 2209.95 1726.35 Q2211.18 1725.47 2212.47 1725.47 Q2214.22 1725.47 2215.22 1726.58 Q2216.25 1727.65 2216.25 1729.17 Q2216.25 1730.69 2215.22 1731.8 Q2214.22 1732.88 2212.47 1732.88 Q2211.62 1732.88 2211.18 1732.73 Q2212.18 1736.21 2215.22 1738.73 Q2218.29 1741.25 2222.33 1741.25 Q2227.41 1741.25 2230.45 1736.32 Q2232.26 1733.14 2232.26 1725.91 Q2232.26 1719.54 2230.89 1716.35 Q2228.78 1711.5 2224.44 1711.5 Q2218.29 1711.5 2214.66 1716.79 Q2214.22 1717.46 2213.7 1717.5 Q2212.96 1717.5 2212.77 1717.09 Q2212.62 1716.65 2212.62 1715.5 L2212.62 1693.04 Q2212.62 1691.23 2213.36 1691.23 Q2213.66 1691.23 2214.29 1691.45 Q2219.07 1693.56 2224.37 1693.6 Q2229.82 1693.6 2234.71 1691.38 Q2235.08 1691.15 2235.3 1691.15 Q2236.04 1691.15 2236.08 1692 Q2236.08 1692.3 2235.45 1693.19 Q2234.86 1694.04 2233.56 1695.19 Q2232.26 1696.3 2230.59 1697.38 Q2228.93 1698.45 2226.48 1699.19 Q2224.07 1699.9 2221.4 1699.9 Q2218.22 1699.9 2214.96 1698.9 L2214.96 1713.68 Q2218.88 1709.83 2224.59 1709.83 Q2230.67 1709.83 2234.86 1714.72 Q2239.04 1719.61 2239.04 1726.43 Q2239.04 1733.58 2234.08 1738.47 Q2229.15 1743.36 2222.48 1743.36 Q2216.4 1743.36 2212.55 1739.03 Q2208.73 1734.69 2208.73 1729.47 Z" fill="#000000" fill-rule="nonzero" fill-opacity="1" /><path clip-path="url(#clip550)" d="M2247.23 1759.93 Q2247.23 1759.56 2248.2 1758.63 Q2260.42 1746.18 2260.42 1722.72 Q2260.42 1699.19 2248.68 1687.3 Q2247.23 1685.93 2247.23 1685.52 Q2247.23 1684.78 2247.97 1684.78 Q2248.49 1684.78 2250.31 1686.3 Q2252.16 1687.82 2254.94 1691.3 Q2257.76 1694.78 2259.83 1699.05 Q2264.83 1709.38 2264.83 1722.72 Q2264.83 1735.54 2260.05 1745.88 Q2258.01 1750.22 2255.16 1753.85 Q2252.31 1757.48 2250.42 1759.07 Q2248.53 1760.67 2247.97 1760.67 Q2247.23 1760.67 2247.23 1759.93 Z" fill="#000000" fill-rule="nonzero" fill-opacity="1" /><path clip-path="url(#clip550)" d="M2444.89 1722.72 Q2444.89 1709.9 2449.67 1699.56 Q2451.71 1695.23 2454.56 1691.6 Q2457.42 1687.97 2459.31 1686.37 Q2461.2 1684.78 2461.72 1684.78 Q2462.46 1684.78 2462.49 1685.52 Q2462.49 1685.89 2461.49 1686.82 Q2449.27 1699.27 2449.3 1722.72 Q2449.3 1746.25 2461.2 1758.22 Q2462.49 1759.52 2462.49 1759.93 Q2462.49 1760.67 2461.72 1760.67 Q2461.2 1760.67 2459.38 1759.15 Q2457.57 1757.63 2454.75 1754.15 Q2451.93 1750.66 2449.9 1746.4 Q2444.89 1736.06 2444.89 1722.72 Z" fill="#000000" fill-rule="nonzero" fill-opacity="1" /><path clip-path="url(#clip550)" d="M2469.98 1731.47 Q2469.98 1729.21 2471.28 1728.13 Q2472.57 1727.06 2474.24 1727.06 Q2475.98 1727.06 2477.21 1728.21 Q2478.47 1729.32 2478.47 1731.28 Q2478.47 1733.4 2476.98 1734.58 Q2475.54 1735.77 2473.46 1735.47 Q2475.28 1738.51 2478.61 1739.88 Q2481.99 1741.25 2485.1 1741.25 Q2488.36 1741.25 2490.99 1738.43 Q2493.66 1735.62 2493.66 1728.73 Q2493.66 1722.87 2491.36 1719.5 Q2489.1 1716.13 2484.62 1716.13 L2481.28 1716.13 Q2480.13 1716.13 2479.8 1716.02 Q2479.47 1715.91 2479.47 1715.28 Q2479.47 1714.53 2480.61 1714.39 Q2481.76 1714.39 2483.58 1714.16 Q2487.99 1714.02 2490.32 1710.2 Q2492.44 1706.64 2492.44 1701.57 Q2492.44 1696.93 2490.21 1695.01 Q2488.03 1693.04 2485.17 1693.04 Q2482.5 1693.04 2479.58 1694.15 Q2476.65 1695.27 2475.06 1697.75 Q2479.76 1697.75 2479.76 1701.57 Q2479.76 1703.23 2478.69 1704.34 Q2477.65 1705.42 2475.91 1705.42 Q2474.24 1705.42 2473.13 1704.38 Q2472.02 1703.31 2472.02 1701.49 Q2472.02 1697.16 2475.87 1694.15 Q2479.76 1691.15 2485.47 1691.15 Q2491.1 1691.15 2495.25 1694.12 Q2499.44 1697.08 2499.44 1701.64 Q2499.44 1706.12 2496.47 1709.79 Q2493.51 1713.46 2488.8 1714.98 Q2494.58 1716.13 2498.03 1720.06 Q2501.48 1723.95 2501.48 1728.73 Q2501.48 1734.66 2496.81 1739.03 Q2492.14 1743.36 2485.32 1743.36 Q2479.02 1743.36 2474.5 1739.95 Q2469.98 1736.55 2469.98 1731.47 Z" fill="#000000" fill-rule="nonzero" fill-opacity="1" /><path clip-path="url(#clip550)" d="M2512.33 1740.47 Q2511.26 1739.25 2511.26 1737.66 Q2511.26 1736.06 2512.3 1734.88 Q2513.37 1733.65 2515.3 1733.65 Q2517.56 1733.65 2518.86 1735.84 Q2520.15 1737.99 2520.15 1741.62 Q2520.15 1745.55 2518.56 1749.18 Q2516.97 1752.85 2515.41 1754.59 Q2513.85 1756.33 2513.22 1756.33 Q2512.48 1756.33 2512.48 1755.52 Q2512.48 1755.22 2513 1754.67 Q2518.45 1748.81 2518.48 1741.62 Q2518.48 1740.47 2518.34 1740.47 L2518.15 1740.62 Q2516.85 1741.7 2515.3 1741.7 Q2513.41 1741.7 2512.33 1740.47 Z" fill="#000000" fill-rule="nonzero" fill-opacity="1" /><path clip-path="url(#clip550)" d="M2532.49 1698.38 L2532.49 1696.01 Q2541.61 1696.01 2546.31 1691.15 Q2547.61 1691.15 2547.83 1691.45 Q2548.05 1691.75 2548.05 1693.12 L2548.05 1735.69 Q2548.05 1737.95 2549.17 1738.66 Q2550.28 1739.36 2555.13 1739.36 L2557.54 1739.36 L2557.54 1741.7 Q2554.87 1741.47 2545.24 1741.47 Q2535.6 1741.47 2532.97 1741.7 L2532.97 1739.36 L2535.38 1739.36 Q2540.16 1739.36 2541.31 1738.69 Q2542.46 1737.99 2542.46 1735.69 L2542.46 1696.38 Q2538.49 1698.38 2532.49 1698.38 Z" fill="#000000" fill-rule="nonzero" fill-opacity="1" /><path clip-path="url(#clip550)" d="M2571.29 1740.47 Q2570.21 1739.25 2570.21 1737.66 Q2570.21 1736.06 2571.25 1734.88 Q2572.33 1733.65 2574.25 1733.65 Q2576.51 1733.65 2577.81 1735.84 Q2579.11 1737.99 2579.11 1741.62 Q2579.11 1745.55 2577.51 1749.18 Q2575.92 1752.85 2574.36 1754.59 Q2572.81 1756.33 2572.18 1756.33 Q2571.44 1756.33 2571.44 1755.52 Q2571.44 1755.22 2571.96 1754.67 Q2577.4 1748.81 2577.44 1741.62 Q2577.44 1740.47 2577.29 1740.47 L2577.11 1740.62 Q2575.81 1741.7 2574.25 1741.7 Q2572.36 1741.7 2571.29 1740.47 Z" fill="#000000" fill-rule="nonzero" fill-opacity="1" /><path clip-path="url(#clip550)" d="M2588.48 1729.47 Q2588.48 1727.21 2589.7 1726.35 Q2590.93 1725.47 2592.22 1725.47 Q2593.97 1725.47 2594.97 1726.58 Q2596 1727.65 2596 1729.17 Q2596 1730.69 2594.97 1731.8 Q2593.97 1732.88 2592.22 1732.88 Q2591.37 1732.88 2590.93 1732.73 Q2591.93 1736.21 2594.97 1738.73 Q2598.04 1741.25 2602.08 1741.25 Q2607.16 1741.25 2610.2 1736.32 Q2612.01 1733.14 2612.01 1725.91 Q2612.01 1719.54 2610.64 1716.35 Q2608.53 1711.5 2604.19 1711.5 Q2598.04 1711.5 2594.41 1716.79 Q2593.97 1717.46 2593.45 1717.5 Q2592.71 1717.5 2592.52 1717.09 Q2592.37 1716.65 2592.37 1715.5 L2592.37 1693.04 Q2592.37 1691.23 2593.11 1691.23 Q2593.41 1691.23 2594.04 1691.45 Q2598.82 1693.56 2604.12 1693.6 Q2609.57 1693.6 2614.46 1691.38 Q2614.83 1691.15 2615.05 1691.15 Q2615.79 1691.15 2615.83 1692 Q2615.83 1692.3 2615.2 1693.19 Q2614.61 1694.04 2613.31 1695.19 Q2612.01 1696.3 2610.34 1697.38 Q2608.68 1698.45 2606.23 1699.19 Q2603.82 1699.9 2601.15 1699.9 Q2597.97 1699.9 2594.71 1698.9 L2594.71 1713.68 Q2598.63 1709.83 2604.34 1709.83 Q2610.42 1709.83 2614.61 1714.72 Q2618.79 1719.61 2618.79 1726.43 Q2618.79 1733.58 2613.83 1738.47 Q2608.9 1743.36 2602.23 1743.36 Q2596.15 1743.36 2592.3 1739.03 Q2588.48 1734.69 2588.48 1729.47 Z" fill="#000000" fill-rule="nonzero" fill-opacity="1" /><path clip-path="url(#clip550)" d="M2626.98 1759.93 Q2626.98 1759.56 2627.95 1758.63 Q2640.17 1746.18 2640.17 1722.72 Q2640.17 1699.19 2628.43 1687.3 Q2626.98 1685.93 2626.98 1685.52 Q2626.98 1684.78 2627.72 1684.78 Q2628.24 1684.78 2630.06 1686.3 Q2631.91 1687.82 2634.69 1691.3 Q2637.51 1694.78 2639.58 1699.05 Q2644.58 1709.38 2644.58 1722.72 Q2644.58 1735.54 2639.8 1745.88 Q2637.76 1750.22 2634.91 1753.85 Q2632.06 1757.48 2630.17 1759.07 Q2628.28 1760.67 2627.72 1760.67 Q2626.98 1760.67 2626.98 1759.93 Z" fill="#000000" fill-rule="nonzero" fill-opacity="1" /><path clip-path="url(#clip550)" d="M1358.41 1832.46 Q1358.41 1815.37 1364.78 1801.58 Q1367.5 1795.8 1371.3 1790.96 Q1375.11 1786.12 1377.63 1784 Q1380.15 1781.87 1380.84 1781.87 Q1381.83 1781.87 1381.88 1782.86 Q1381.88 1783.35 1380.54 1784.59 Q1364.24 1801.19 1364.29 1832.46 Q1364.29 1863.84 1380.15 1879.8 Q1381.88 1881.52 1381.88 1882.07 Q1381.88 1883.06 1380.84 1883.06 Q1380.15 1883.06 1377.73 1881.03 Q1375.31 1879 1371.55 1874.36 Q1367.8 1869.72 1365.08 1864.03 Q1358.41 1850.25 1358.41 1832.46 Z" fill="#000000" fill-rule="nonzero" fill-opacity="1" /><path clip-path="url(#clip550)" d="M1390.42 1791.8 L1390.42 1788.64 L1405 1787.55 L1405 1819.62 Q1410.88 1813.05 1418.88 1813.05 Q1427.58 1813.05 1433.95 1819.72 Q1440.32 1826.39 1440.32 1835.92 Q1440.32 1845.56 1433.65 1852.23 Q1426.98 1858.9 1417.75 1858.9 Q1409.35 1858.9 1404.5 1851.49 Q1400.95 1857.66 1400.85 1857.76 L1398.33 1857.76 L1398.33 1797.43 Q1398.33 1793.68 1397 1792.74 Q1395.66 1791.8 1390.42 1791.8 M1405.3 1846.25 Q1405.3 1848.37 1406.73 1850.5 Q1410.73 1856.62 1417.25 1856.62 Q1417.3 1856.62 1417.35 1856.62 Q1424.42 1856.62 1428.81 1850.15 Q1431.93 1845.31 1431.93 1835.82 Q1431.93 1826.44 1429.01 1821.74 Q1424.96 1815.27 1418.39 1815.27 Q1410.98 1815.27 1406.43 1821.74 Q1405.3 1823.37 1405.3 1825.4 L1405.3 1846.25 Z" fill="#000000" fill-rule="nonzero" fill-opacity="1" /><path clip-path="url(#clip550)" d="M1446.55 1857.76 L1446.55 1854.65 Q1451.94 1854.65 1453.17 1854 Q1454.46 1853.31 1454.46 1850.05 L1454.46 1822.93 Q1454.46 1819.17 1453.12 1818.23 Q1451.84 1817.3 1446.55 1817.3 L1446.55 1814.13 L1460.63 1813.05 L1460.63 1824.16 Q1462.06 1819.82 1465.08 1816.46 Q1468.14 1813.05 1473.08 1813.05 Q1476.34 1813.05 1478.42 1814.87 Q1480.54 1816.7 1480.54 1819.22 Q1480.54 1821.45 1479.16 1822.58 Q1477.82 1823.67 1476.19 1823.67 Q1474.37 1823.67 1473.08 1822.53 Q1471.85 1821.35 1471.85 1819.32 Q1471.85 1818.09 1472.39 1817.15 Q1472.98 1816.16 1473.43 1815.81 Q1473.87 1815.47 1474.17 1815.37 Q1473.97 1815.27 1473.08 1815.27 Q1467.5 1815.27 1464.29 1820.85 Q1461.12 1826.39 1461.12 1834.29 L1461.12 1849.85 Q1461.12 1852.77 1462.31 1853.71 Q1463.55 1854.65 1468.83 1854.65 L1470.96 1854.65 L1470.96 1857.76 Q1466.91 1857.46 1458.11 1857.46 Q1456.88 1857.46 1454.95 1857.51 Q1453.02 1857.56 1450.5 1857.66 Q1447.98 1857.76 1446.55 1857.76 Z" fill="#000000" fill-rule="nonzero" fill-opacity="1" /><path clip-path="url(#clip550)" d="M1487.51 1848.13 Q1487.51 1839.53 1497.64 1834.98 Q1503.71 1832.07 1516.26 1831.33 L1516.26 1827.62 Q1516.26 1821.35 1512.95 1818.04 Q1509.69 1814.68 1505.54 1814.68 Q1498.13 1814.68 1494.57 1819.32 Q1497.59 1819.42 1498.67 1820.95 Q1499.76 1822.43 1499.76 1823.97 Q1499.76 1825.99 1498.48 1827.33 Q1497.24 1828.61 1495.12 1828.61 Q1493.09 1828.61 1491.76 1827.37 Q1490.42 1826.09 1490.42 1823.87 Q1490.42 1818.93 1494.87 1815.67 Q1499.37 1812.4 1505.74 1812.4 Q1514.04 1812.4 1519.57 1817.99 Q1521.3 1819.72 1522.14 1821.94 Q1523.03 1824.16 1523.13 1825.65 Q1523.23 1827.08 1523.23 1829.94 L1523.23 1850.15 Q1523.23 1850.74 1523.43 1851.73 Q1523.62 1852.72 1524.51 1854 Q1525.45 1855.24 1526.98 1855.24 Q1530.64 1855.24 1530.59 1848.77 L1530.59 1843.09 L1533.16 1843.09 L1533.16 1848.77 Q1533.16 1854.15 1530.29 1856.28 Q1527.48 1858.35 1524.86 1858.35 Q1521.5 1858.35 1519.38 1855.88 Q1517.25 1853.41 1516.95 1850.05 Q1515.42 1853.91 1511.92 1856.43 Q1508.46 1858.9 1503.71 1858.9 Q1500.06 1858.9 1496.6 1857.96 Q1493.19 1857.07 1490.32 1854.55 Q1487.51 1851.98 1487.51 1848.13 M1495.31 1848.03 Q1495.31 1851.78 1497.98 1854.2 Q1500.65 1856.62 1504.41 1856.62 Q1508.65 1856.62 1512.46 1853.36 Q1516.26 1850.05 1516.26 1843.58 L1516.26 1833.45 Q1505.05 1833.85 1500.16 1838.34 Q1495.31 1842.79 1495.31 1848.03 Z" fill="#000000" fill-rule="nonzero" fill-opacity="1" /><path clip-path="url(#clip550)" d="M1537.11 1857.76 L1537.11 1854.65 Q1542.5 1854.65 1543.73 1854 Q1544.97 1853.31 1544.97 1850.05 L1544.97 1822.93 Q1544.97 1819.17 1543.63 1818.23 Q1542.35 1817.3 1537.11 1817.3 L1537.11 1814.13 L1551.34 1813.05 L1551.34 1823.67 Q1556.08 1813.05 1566.31 1813.05 Q1573.92 1813.05 1576.93 1816.8 Q1579.16 1819.32 1579.6 1822.14 Q1580.1 1824.95 1580.1 1832.27 L1580.1 1851.58 Q1580.2 1853.71 1581.83 1854.2 Q1583.46 1854.65 1588 1854.65 L1588 1857.76 Q1577.68 1857.46 1576.64 1857.46 Q1575.85 1857.46 1565.22 1857.76 L1565.22 1854.65 Q1570.61 1854.65 1571.85 1854 Q1573.13 1853.31 1573.13 1850.05 L1573.13 1826.49 Q1573.13 1821.35 1571.55 1818.33 Q1569.97 1815.27 1565.62 1815.27 Q1560.38 1815.27 1556.18 1819.67 Q1551.98 1824.06 1551.98 1831.48 L1551.98 1850.05 Q1551.98 1853.31 1553.22 1854 Q1554.5 1854.65 1559.84 1854.65 L1559.84 1857.76 Q1549.51 1857.46 1548.53 1857.46 Q1547.73 1857.46 1537.11 1857.76 Z" fill="#000000" fill-rule="nonzero" fill-opacity="1" /><path clip-path="url(#clip550)" d="M1599.86 1852.23 Q1593.44 1845.51 1593.44 1835.92 Q1593.44 1826.29 1599.76 1819.37 Q1606.08 1812.4 1615.37 1812.4 Q1621.55 1812.4 1626.19 1815.37 Q1630.84 1818.28 1630.84 1823.27 Q1630.84 1825.5 1629.5 1826.78 Q1628.22 1828.02 1626.19 1828.02 Q1624.07 1828.02 1622.78 1826.73 Q1621.55 1825.4 1621.55 1823.37 Q1621.55 1822.48 1621.85 1821.59 Q1622.14 1820.7 1623.23 1819.77 Q1624.36 1818.83 1626.29 1818.68 Q1622.68 1814.97 1615.67 1814.97 Q1615.57 1814.97 1615.47 1814.97 Q1610.33 1814.97 1606.08 1819.82 Q1601.84 1824.66 1601.84 1835.72 Q1601.84 1841.5 1603.22 1845.75 Q1604.65 1849.95 1606.97 1852.13 Q1609.3 1854.3 1611.57 1855.34 Q1613.84 1856.33 1616.06 1856.33 Q1626 1856.33 1629.35 1845.7 Q1629.65 1844.72 1630.64 1844.72 Q1631.97 1844.72 1631.97 1845.7 Q1631.97 1846.2 1631.58 1847.48 Q1631.18 1848.77 1629.95 1850.79 Q1628.71 1852.82 1626.93 1854.6 Q1625.2 1856.33 1622.09 1857.61 Q1619.03 1858.9 1615.18 1858.9 Q1606.28 1858.9 1599.86 1852.23 Z" fill="#000000" fill-rule="nonzero" fill-opacity="1" /><path clip-path="url(#clip550)" d="M1635.33 1857.76 L1635.33 1854.65 Q1640.72 1854.65 1641.95 1854 Q1643.19 1853.31 1643.19 1850.05 L1643.19 1797.43 Q1643.19 1793.68 1641.85 1792.74 Q1640.57 1791.8 1635.33 1791.8 L1635.33 1788.64 L1649.86 1787.55 L1649.86 1822.73 L1649.96 1822.73 Q1651.59 1819.07 1655.24 1816.06 Q1658.9 1813.05 1664.53 1813.05 Q1672.14 1813.05 1675.15 1816.8 Q1677.38 1819.32 1677.82 1822.14 Q1678.32 1824.95 1678.32 1832.27 L1678.32 1851.58 Q1678.42 1853.71 1680.05 1854.2 Q1681.68 1854.65 1686.22 1854.65 L1686.22 1857.76 Q1675.9 1857.46 1674.86 1857.46 Q1674.07 1857.46 1663.45 1857.76 L1663.45 1854.65 Q1668.83 1854.65 1670.07 1854 Q1671.35 1853.31 1671.35 1850.05 L1671.35 1826.49 Q1671.35 1821.35 1669.77 1818.33 Q1668.19 1815.27 1663.84 1815.27 Q1658.6 1815.27 1654.4 1819.67 Q1650.2 1824.06 1650.2 1831.48 L1650.2 1850.05 Q1650.2 1853.31 1651.44 1854 Q1652.72 1854.65 1658.06 1854.65 L1658.06 1857.76 Q1647.73 1857.46 1646.75 1857.46 Q1645.96 1857.46 1635.33 1857.76 Z" fill="#000000" fill-rule="nonzero" fill-opacity="1" /><path clip-path="url(#clip550)" d="M1698.33 1856.13 Q1696.89 1854.5 1696.89 1852.37 Q1696.89 1850.25 1698.28 1848.67 Q1699.71 1847.04 1702.28 1847.04 Q1705.29 1847.04 1707.02 1849.95 Q1708.75 1852.82 1708.75 1857.66 Q1708.75 1862.9 1706.63 1867.74 Q1704.5 1872.63 1702.43 1874.95 Q1700.35 1877.28 1699.51 1877.28 Q1698.52 1877.28 1698.52 1876.19 Q1698.52 1875.79 1699.22 1875.05 Q1706.48 1867.25 1706.53 1857.66 Q1706.53 1856.13 1706.33 1856.13 L1706.08 1856.33 Q1704.35 1857.76 1702.28 1857.76 Q1699.76 1857.76 1698.33 1856.13 Z" fill="#000000" fill-rule="nonzero" fill-opacity="1" /><path clip-path="url(#clip550)" d="M1719.57 1857.76 L1719.57 1854.65 Q1724.96 1854.65 1726.19 1854 Q1727.43 1853.31 1727.43 1850.05 L1727.43 1822.83 Q1727.43 1819.07 1726.14 1818.18 Q1724.91 1817.3 1719.97 1817.3 L1719.97 1814.13 L1734.1 1813.05 L1734.1 1850.15 Q1734.1 1853.16 1735.18 1853.91 Q1736.27 1854.65 1741.21 1854.65 L1741.21 1857.76 Q1730.89 1857.46 1730.69 1857.46 Q1729.3 1857.46 1719.57 1857.76 M1723.82 1795.41 Q1723.82 1793.38 1725.35 1791.75 Q1726.93 1790.07 1729.16 1790.07 Q1731.38 1790.07 1732.96 1791.6 Q1734.54 1793.09 1734.54 1795.46 Q1734.54 1797.78 1732.96 1799.31 Q1731.38 1800.79 1729.16 1800.79 Q1726.83 1800.79 1725.3 1799.16 Q1723.82 1797.53 1723.82 1795.41 Z" fill="#000000" fill-rule="nonzero" fill-opacity="1" /><path clip-path="url(#clip550)" d="M1754.35 1856.13 Q1752.92 1854.5 1752.92 1852.37 Q1752.92 1850.25 1754.3 1848.67 Q1755.74 1847.04 1758.31 1847.04 Q1761.32 1847.04 1763.05 1849.95 Q1764.78 1852.82 1764.78 1857.66 Q1764.78 1862.9 1762.65 1867.74 Q1760.53 1872.63 1758.45 1874.95 Q1756.38 1877.28 1755.54 1877.28 Q1754.55 1877.28 1754.55 1876.19 Q1754.55 1875.79 1755.24 1875.05 Q1762.51 1867.25 1762.56 1857.66 Q1762.56 1856.13 1762.36 1856.13 L1762.11 1856.33 Q1760.38 1857.76 1758.31 1857.76 Q1755.79 1857.76 1754.35 1856.13 Z" fill="#000000" fill-rule="nonzero" fill-opacity="1" /><path clip-path="url(#clip550)" d="M1768.19 1870.41 Q1768.19 1868.38 1769.47 1867.05 Q1770.71 1865.76 1772.83 1865.76 Q1774.96 1865.76 1776.19 1867.05 Q1777.48 1868.38 1777.48 1870.41 Q1777.48 1872.24 1776.39 1873.37 Q1775.35 1874.56 1773.97 1874.95 Q1776.59 1876.29 1779.4 1876.29 Q1781.73 1876.29 1783.31 1874.9 Q1784.89 1873.52 1785.58 1871.25 Q1786.32 1868.98 1786.57 1867.05 Q1786.81 1865.17 1786.81 1863 L1786.81 1822.93 Q1786.81 1819.17 1785.33 1818.23 Q1783.9 1817.3 1778.12 1817.3 L1778.12 1814.13 L1793.48 1813.05 L1793.48 1862.8 Q1793.48 1869.57 1789.43 1874.01 Q1785.38 1878.51 1779.65 1878.51 Q1775.01 1878.51 1771.6 1876.34 Q1768.19 1874.16 1768.19 1870.41 M1784.34 1799.26 Q1782.76 1797.68 1782.76 1795.46 Q1782.76 1793.23 1784.34 1791.65 Q1785.92 1790.07 1788.15 1790.07 Q1790.37 1790.07 1791.95 1791.65 Q1793.53 1793.23 1793.53 1795.46 Q1793.53 1797.68 1791.95 1799.26 Q1790.37 1800.79 1788.15 1800.79 Q1785.92 1800.79 1784.34 1799.26 Z" fill="#000000" fill-rule="nonzero" fill-opacity="1" /><path clip-path="url(#clip550)" d="M1808.85 1882.07 Q1808.85 1881.57 1810.13 1880.34 Q1826.44 1863.74 1826.44 1832.46 Q1826.44 1801.09 1810.78 1785.23 Q1808.85 1783.4 1808.85 1782.86 Q1808.85 1781.87 1809.84 1781.87 Q1810.53 1781.87 1812.95 1783.9 Q1815.42 1785.92 1819.13 1790.57 Q1822.88 1795.21 1825.65 1800.89 Q1832.32 1814.68 1832.32 1832.46 Q1832.32 1849.56 1825.94 1863.34 Q1823.23 1869.12 1819.42 1873.97 Q1815.62 1878.81 1813.1 1880.93 Q1810.58 1883.06 1809.84 1883.06 Q1808.85 1883.06 1808.85 1882.07 Z" fill="#000000" fill-rule="nonzero" fill-opacity="1" /><polyline clip-path="url(#clip552)" style="stroke:#000000; stroke-linecap:round; stroke-linejoin:round; stroke-width:2; stroke-opacity:0.1; fill:none" points="357.97,1530.97 2832.76,1530.97 "/>
<polyline clip-path="url(#clip552)" style="stroke:#000000; stroke-linecap:round; stroke-linejoin:round; stroke-width:2; stroke-opacity:0.1; fill:none" points="357.97,1223.76 2832.76,1223.76 "/>
<polyline clip-path="url(#clip552)" style="stroke:#000000; stroke-linecap:round; stroke-linejoin:round; stroke-width:2; stroke-opacity:0.1; fill:none" points="357.97,916.549 2832.76,916.549 "/>
<polyline clip-path="url(#clip552)" style="stroke:#000000; stroke-linecap:round; stroke-linejoin:round; stroke-width:2; stroke-opacity:0.1; fill:none" points="357.97,609.338 2832.76,609.338 "/>
<polyline clip-path="url(#clip552)" style="stroke:#000000; stroke-linecap:round; stroke-linejoin:round; stroke-width:2; stroke-opacity:0.1; fill:none" points="357.97,302.127 2832.76,302.127 "/>
<polyline clip-path="url(#clip550)" style="stroke:#000000; stroke-linecap:round; stroke-linejoin:round; stroke-width:4; stroke-opacity:1; fill:none" points="357.97,1653.86 357.97,149.392 "/>
<polyline clip-path="url(#clip550)" style="stroke:#000000; stroke-linecap:round; stroke-linejoin:round; stroke-width:4; stroke-opacity:1; fill:none" points="2832.76,1653.86 2832.76,149.392 "/>
<polyline clip-path="url(#clip550)" style="stroke:#000000; stroke-linecap:round; stroke-linejoin:round; stroke-width:4; stroke-opacity:1; fill:none" points="357.97,1530.97 376.868,1530.97 "/>
<polyline clip-path="url(#clip550)" style="stroke:#000000; stroke-linecap:round; stroke-linejoin:round; stroke-width:4; stroke-opacity:1; fill:none" points="357.97,1223.76 376.868,1223.76 "/>
<polyline clip-path="url(#clip550)" style="stroke:#000000; stroke-linecap:round; stroke-linejoin:round; stroke-width:4; stroke-opacity:1; fill:none" points="357.97,916.549 376.868,916.549 "/>
<polyline clip-path="url(#clip550)" style="stroke:#000000; stroke-linecap:round; stroke-linejoin:round; stroke-width:4; stroke-opacity:1; fill:none" points="357.97,609.338 376.868,609.338 "/>
<polyline clip-path="url(#clip550)" style="stroke:#000000; stroke-linecap:round; stroke-linejoin:round; stroke-width:4; stroke-opacity:1; fill:none" points="357.97,302.127 376.868,302.127 "/>
<path clip-path="url(#clip550)" d="M199.307 1536.84 Q199.751 1537.29 199.751 1537.92 Q199.751 1538.55 199.307 1538.99 Q198.862 1539.44 198.232 1539.44 L150.727 1539.44 Q150.098 1539.44 149.653 1538.99 Q149.208 1538.55 149.208 1537.92 Q149.208 1537.29 149.653 1536.84 Q150.098 1536.4 150.727 1536.4 L198.232 1536.4 Q198.862 1536.4 199.307 1536.84 Z" fill="#000000" fill-rule="nonzero" fill-opacity="1" /><path clip-path="url(#clip550)" d="M207.755 1556.89 Q207.755 1555.52 207.866 1555.11 Q208.015 1554.71 208.607 1554.08 L223.17 1537.85 Q231.137 1528.88 231.137 1521.06 Q231.137 1515.98 228.469 1512.35 Q225.838 1508.72 220.984 1508.72 Q217.649 1508.72 214.833 1510.76 Q212.016 1512.8 210.72 1516.43 Q210.942 1516.35 211.72 1516.35 Q213.61 1516.35 214.647 1517.54 Q215.722 1518.72 215.722 1520.32 Q215.722 1522.36 214.388 1523.36 Q213.091 1524.32 211.794 1524.32 Q211.275 1524.32 210.571 1524.21 Q209.904 1524.1 208.83 1523.06 Q207.755 1521.99 207.755 1520.1 Q207.755 1514.8 211.757 1510.57 Q215.796 1506.35 221.947 1506.35 Q228.914 1506.35 233.471 1510.5 Q238.066 1514.61 238.066 1521.06 Q238.066 1523.32 237.362 1525.39 Q236.695 1527.43 235.769 1529.03 Q234.879 1530.62 232.434 1533.18 Q229.988 1535.73 228.024 1537.55 Q226.06 1539.36 221.651 1543.22 L213.61 1551.04 L227.283 1551.04 Q233.953 1551.04 234.472 1550.44 Q235.213 1549.37 236.139 1543.7 L238.066 1543.7 L235.917 1556.89 L207.755 1556.89 Z" fill="#000000" fill-rule="nonzero" fill-opacity="1" /><path clip-path="url(#clip550)" d="M244.884 1532.62 Q244.884 1521.47 247.7 1515.39 Q251.628 1506.35 260.892 1506.35 Q262.856 1506.35 264.894 1506.9 Q266.969 1507.42 269.563 1509.46 Q272.194 1511.5 273.787 1514.83 Q276.826 1521.28 276.826 1532.62 Q276.826 1543.7 274.01 1549.74 Q269.896 1558.56 260.818 1558.56 Q257.409 1558.56 253.926 1556.82 Q250.48 1555.08 248.293 1550.89 Q244.884 1544.63 244.884 1532.62 M251.184 1531.69 Q251.184 1543.14 251.999 1547.7 Q252.925 1552.63 255.445 1554.78 Q258.002 1556.89 260.818 1556.89 Q263.856 1556.89 266.376 1554.63 Q268.933 1552.33 269.711 1547.41 Q270.563 1542.55 270.526 1531.69 Q270.526 1521.13 269.785 1516.91 Q268.785 1511.98 266.117 1510.02 Q263.486 1508.02 260.818 1508.02 Q259.817 1508.02 258.743 1508.31 Q257.705 1508.61 256.186 1509.46 Q254.667 1510.31 253.481 1512.43 Q252.332 1514.54 251.777 1517.72 Q251.184 1521.84 251.184 1531.69 Z" fill="#000000" fill-rule="nonzero" fill-opacity="1" /><path clip-path="url(#clip550)" d="M282.829 1532.62 Q282.829 1521.47 285.645 1515.39 Q289.573 1506.35 298.836 1506.35 Q300.8 1506.35 302.838 1506.9 Q304.913 1507.42 307.507 1509.46 Q310.138 1511.5 311.732 1514.83 Q314.77 1521.28 314.77 1532.62 Q314.77 1543.7 311.954 1549.74 Q307.841 1558.56 298.762 1558.56 Q295.353 1558.56 291.87 1556.82 Q288.424 1555.08 286.238 1550.89 Q282.829 1544.63 282.829 1532.62 M289.128 1531.69 Q289.128 1543.14 289.943 1547.7 Q290.87 1552.63 293.389 1554.78 Q295.946 1556.89 298.762 1556.89 Q301.801 1556.89 304.321 1554.63 Q306.877 1552.33 307.656 1547.41 Q308.508 1542.55 308.471 1531.69 Q308.471 1521.13 307.73 1516.91 Q306.729 1511.98 304.061 1510.02 Q301.43 1508.02 298.762 1508.02 Q297.762 1508.02 296.687 1508.31 Q295.65 1508.61 294.13 1509.46 Q292.611 1510.31 291.425 1512.43 Q290.277 1514.54 289.721 1517.72 Q289.128 1521.84 289.128 1531.69 Z" fill="#000000" fill-rule="nonzero" fill-opacity="1" /><path clip-path="url(#clip550)" d="M199.307 1229.63 Q199.751 1230.08 199.751 1230.71 Q199.751 1231.34 199.307 1231.78 Q198.862 1232.23 198.232 1232.23 L150.727 1232.23 Q150.098 1232.23 149.653 1231.78 Q149.208 1231.34 149.208 1230.71 Q149.208 1230.08 149.653 1229.63 Q150.098 1229.19 150.727 1229.19 L198.232 1229.19 Q198.862 1229.19 199.307 1229.63 Z" fill="#000000" fill-rule="nonzero" fill-opacity="1" /><path clip-path="url(#clip550)" d="M210.72 1206.36 L210.72 1203.99 Q219.835 1203.99 224.541 1199.14 Q225.838 1199.14 226.06 1199.43 Q226.283 1199.73 226.283 1201.1 L226.283 1243.68 Q226.283 1245.94 227.394 1246.64 Q228.506 1247.35 233.36 1247.35 L235.769 1247.35 L235.769 1249.68 Q233.101 1249.46 223.466 1249.46 Q213.832 1249.46 211.201 1249.68 L211.201 1247.35 L213.61 1247.35 Q218.39 1247.35 219.539 1246.68 Q220.687 1245.97 220.687 1243.68 L220.687 1204.36 Q216.722 1206.36 210.72 1206.36 Z" fill="#000000" fill-rule="nonzero" fill-opacity="1" /><path clip-path="url(#clip550)" d="M244.884 1225.41 Q244.884 1214.26 247.7 1208.18 Q251.628 1199.14 260.892 1199.14 Q262.856 1199.14 264.894 1199.69 Q266.969 1200.21 269.563 1202.25 Q272.194 1204.29 273.787 1207.62 Q276.826 1214.07 276.826 1225.41 Q276.826 1236.49 274.01 1242.53 Q269.896 1251.35 260.818 1251.35 Q257.409 1251.35 253.926 1249.61 Q250.48 1247.86 248.293 1243.68 Q244.884 1237.42 244.884 1225.41 M251.184 1224.48 Q251.184 1235.93 251.999 1240.49 Q252.925 1245.42 255.445 1247.57 Q258.002 1249.68 260.818 1249.68 Q263.856 1249.68 266.376 1247.42 Q268.933 1245.12 269.711 1240.19 Q270.563 1235.34 270.526 1224.48 Q270.526 1213.92 269.785 1209.7 Q268.785 1204.77 266.117 1202.81 Q263.486 1200.8 260.818 1200.8 Q259.817 1200.8 258.743 1201.1 Q257.705 1201.4 256.186 1202.25 Q254.667 1203.1 253.481 1205.21 Q252.332 1207.33 251.777 1210.51 Q251.184 1214.63 251.184 1224.48 Z" fill="#000000" fill-rule="nonzero" fill-opacity="1" /><path clip-path="url(#clip550)" d="M282.829 1225.41 Q282.829 1214.26 285.645 1208.18 Q289.573 1199.14 298.836 1199.14 Q300.8 1199.14 302.838 1199.69 Q304.913 1200.21 307.507 1202.25 Q310.138 1204.29 311.732 1207.62 Q314.77 1214.07 314.77 1225.41 Q314.77 1236.49 311.954 1242.53 Q307.841 1251.35 298.762 1251.35 Q295.353 1251.35 291.87 1249.61 Q288.424 1247.86 286.238 1243.68 Q282.829 1237.42 282.829 1225.41 M289.128 1224.48 Q289.128 1235.93 289.943 1240.49 Q290.87 1245.42 293.389 1247.57 Q295.946 1249.68 298.762 1249.68 Q301.801 1249.68 304.321 1247.42 Q306.877 1245.12 307.656 1240.19 Q308.508 1235.34 308.471 1224.48 Q308.471 1213.92 307.73 1209.7 Q306.729 1204.77 304.061 1202.81 Q301.43 1200.8 298.762 1200.8 Q297.762 1200.8 296.687 1201.1 Q295.65 1201.4 294.13 1202.25 Q292.611 1203.1 291.425 1205.21 Q290.277 1207.33 289.721 1210.51 Q289.128 1214.63 289.128 1224.48 Z" fill="#000000" fill-rule="nonzero" fill-opacity="1" /><path clip-path="url(#clip550)" d="M282.829 918.198 Q282.829 907.045 285.645 900.968 Q289.573 891.926 298.836 891.926 Q300.8 891.926 302.838 892.482 Q304.913 893.001 307.507 895.039 Q310.138 897.077 311.732 900.412 Q314.77 906.86 314.77 918.198 Q314.77 929.278 311.954 935.318 Q307.841 944.137 298.762 944.137 Q295.353 944.137 291.87 942.395 Q288.424 940.654 286.238 936.467 Q282.829 930.204 282.829 918.198 M289.128 917.272 Q289.128 928.722 289.943 933.28 Q290.87 938.208 293.389 940.357 Q295.946 942.469 298.762 942.469 Q301.801 942.469 304.321 940.209 Q306.877 937.912 307.656 932.983 Q308.508 928.129 308.471 917.272 Q308.471 906.711 307.73 902.487 Q306.729 897.559 304.061 895.595 Q301.43 893.594 298.762 893.594 Q297.762 893.594 296.687 893.89 Q295.65 894.187 294.13 895.039 Q292.611 895.891 291.425 898.003 Q290.277 900.116 289.721 903.302 Q289.128 907.415 289.128 917.272 Z" fill="#000000" fill-rule="nonzero" fill-opacity="1" /><path clip-path="url(#clip550)" d="M210.72 591.941 L210.72 589.57 Q219.835 589.57 224.541 584.715 Q225.838 584.715 226.06 585.012 Q226.283 585.308 226.283 586.679 L226.283 629.256 Q226.283 631.516 227.394 632.22 Q228.506 632.924 233.36 632.924 L235.769 632.924 L235.769 635.258 Q233.101 635.036 223.466 635.036 Q213.832 635.036 211.201 635.258 L211.201 632.924 L213.61 632.924 Q218.39 632.924 219.539 632.257 Q220.687 631.553 220.687 629.256 L220.687 589.94 Q216.722 591.941 210.72 591.941 Z" fill="#000000" fill-rule="nonzero" fill-opacity="1" /><path clip-path="url(#clip550)" d="M244.884 610.987 Q244.884 599.834 247.7 593.757 Q251.628 584.715 260.892 584.715 Q262.856 584.715 264.894 585.271 Q266.969 585.79 269.563 587.828 Q272.194 589.866 273.787 593.201 Q276.826 599.649 276.826 610.987 Q276.826 622.067 274.01 628.107 Q269.896 636.926 260.818 636.926 Q257.409 636.926 253.926 635.184 Q250.48 633.443 248.293 629.256 Q244.884 622.993 244.884 610.987 M251.184 610.061 Q251.184 621.511 251.999 626.069 Q252.925 630.997 255.445 633.146 Q258.002 635.258 260.818 635.258 Q263.856 635.258 266.376 632.998 Q268.933 630.701 269.711 625.772 Q270.563 620.918 270.526 610.061 Q270.526 599.5 269.785 595.276 Q268.785 590.348 266.117 588.384 Q263.486 586.383 260.818 586.383 Q259.817 586.383 258.743 586.679 Q257.705 586.976 256.186 587.828 Q254.667 588.68 253.481 590.792 Q252.332 592.905 251.777 596.091 Q251.184 600.204 251.184 610.061 Z" fill="#000000" fill-rule="nonzero" fill-opacity="1" /><path clip-path="url(#clip550)" d="M282.829 610.987 Q282.829 599.834 285.645 593.757 Q289.573 584.715 298.836 584.715 Q300.8 584.715 302.838 585.271 Q304.913 585.79 307.507 587.828 Q310.138 589.866 311.732 593.201 Q314.77 599.649 314.77 610.987 Q314.77 622.067 311.954 628.107 Q307.841 636.926 298.762 636.926 Q295.353 636.926 291.87 635.184 Q288.424 633.443 286.238 629.256 Q282.829 622.993 282.829 610.987 M289.128 610.061 Q289.128 621.511 289.943 626.069 Q290.87 630.997 293.389 633.146 Q295.946 635.258 298.762 635.258 Q301.801 635.258 304.321 632.998 Q306.877 630.701 307.656 625.772 Q308.508 620.918 308.471 610.061 Q308.471 599.5 307.73 595.276 Q306.729 590.348 304.061 588.384 Q301.43 586.383 298.762 586.383 Q297.762 586.383 296.687 586.679 Q295.65 586.976 294.13 587.828 Q292.611 588.68 291.425 590.792 Q290.277 592.905 289.721 596.091 Q289.128 600.204 289.128 610.061 Z" fill="#000000" fill-rule="nonzero" fill-opacity="1" /><path clip-path="url(#clip550)" d="M207.755 328.047 Q207.755 326.676 207.866 326.269 Q208.015 325.861 208.607 325.231 L223.17 309.001 Q231.137 300.034 231.137 292.215 Q231.137 287.139 228.469 283.507 Q225.838 279.876 220.984 279.876 Q217.649 279.876 214.833 281.914 Q212.016 283.952 210.72 287.583 Q210.942 287.509 211.72 287.509 Q213.61 287.509 214.647 288.695 Q215.722 289.881 215.722 291.474 Q215.722 293.512 214.388 294.513 Q213.091 295.476 211.794 295.476 Q211.275 295.476 210.571 295.365 Q209.904 295.254 208.83 294.216 Q207.755 293.142 207.755 291.252 Q207.755 285.953 211.757 281.729 Q215.796 277.504 221.947 277.504 Q228.914 277.504 233.471 281.655 Q238.066 285.768 238.066 292.215 Q238.066 294.476 237.362 296.551 Q236.695 298.589 235.769 300.182 Q234.879 301.775 232.434 304.332 Q229.988 306.889 228.024 308.705 Q226.06 310.52 221.651 314.374 L213.61 322.193 L227.283 322.193 Q233.953 322.193 234.472 321.6 Q235.213 320.525 236.139 314.856 L238.066 314.856 L235.917 328.047 L207.755 328.047 Z" fill="#000000" fill-rule="nonzero" fill-opacity="1" /><path clip-path="url(#clip550)" d="M244.884 303.776 Q244.884 292.623 247.7 286.546 Q251.628 277.504 260.892 277.504 Q262.856 277.504 264.894 278.06 Q266.969 278.579 269.563 280.617 Q272.194 282.655 273.787 285.99 Q276.826 292.438 276.826 303.776 Q276.826 314.856 274.01 320.896 Q269.896 329.715 260.818 329.715 Q257.409 329.715 253.926 327.973 Q250.48 326.232 248.293 322.045 Q244.884 315.782 244.884 303.776 M251.184 302.85 Q251.184 314.3 251.999 318.858 Q252.925 323.786 255.445 325.935 Q258.002 328.047 260.818 328.047 Q263.856 328.047 266.376 325.787 Q268.933 323.49 269.711 318.561 Q270.563 313.707 270.526 302.85 Q270.526 292.289 269.785 288.065 Q268.785 283.137 266.117 281.173 Q263.486 279.172 260.818 279.172 Q259.817 279.172 258.743 279.468 Q257.705 279.765 256.186 280.617 Q254.667 281.469 253.481 283.581 Q252.332 285.694 251.777 288.88 Q251.184 292.993 251.184 302.85 Z" fill="#000000" fill-rule="nonzero" fill-opacity="1" /><path clip-path="url(#clip550)" d="M282.829 303.776 Q282.829 292.623 285.645 286.546 Q289.573 277.504 298.836 277.504 Q300.8 277.504 302.838 278.06 Q304.913 278.579 307.507 280.617 Q310.138 282.655 311.732 285.99 Q314.77 292.438 314.77 303.776 Q314.77 314.856 311.954 320.896 Q307.841 329.715 298.762 329.715 Q295.353 329.715 291.87 327.973 Q288.424 326.232 286.238 322.045 Q282.829 315.782 282.829 303.776 M289.128 302.85 Q289.128 314.3 289.943 318.858 Q290.87 323.786 293.389 325.935 Q295.946 328.047 298.762 328.047 Q301.801 328.047 304.321 325.787 Q306.877 323.49 307.656 318.561 Q308.508 313.707 308.471 302.85 Q308.471 292.289 307.73 288.065 Q306.729 283.137 304.061 281.173 Q301.43 279.172 298.762 279.172 Q297.762 279.172 296.687 279.468 Q295.65 279.765 294.13 280.617 Q292.611 281.469 291.425 283.581 Q290.277 285.694 289.721 288.88 Q289.128 292.993 289.128 302.85 Z" fill="#000000" fill-rule="nonzero" fill-opacity="1" /><path clip-path="url(#clip550)" d="M85.2722 1325.66 L82.1596 1325.66 Q81.9619 1316.67 75.3414 1314.34 L14.8676 1293.39 Q13.6324 1293 13.2372 1292.55 Q12.8419 1292.11 12.8419 1290.97 Q12.8419 1290.38 12.9408 1290.03 Q13.0396 1289.64 13.3854 1289.39 Q13.7313 1289.15 13.9289 1289.05 Q14.1265 1288.95 14.8676 1288.65 L78.1082 1266.81 Q80.628 1266.02 81.4185 1264.39 Q82.1596 1262.76 82.1596 1258.17 L82.1596 1256.39 L85.2722 1256.39 Q84.9757 1262.76 84.9757 1269.63 Q84.9757 1280.55 85.2722 1284.2 L82.1596 1284.2 Q82.1596 1275.81 79.0963 1275.81 Q78.8987 1275.81 77.6636 1276.1 L62.1993 1281.44 L62.1993 1306.44 L75.4403 1311.13 Q75.8355 1311.33 76.9719 1311.33 Q79.0963 1311.33 80.628 1309.35 Q82.1596 1307.38 82.1596 1303.72 L85.2722 1303.72 Q84.9757 1313.45 84.9757 1315.38 Q84.9757 1318.69 85.2722 1325.66 M59.0866 1305.35 L59.0866 1282.57 L26.1818 1293.99 L59.0866 1305.35 Z" fill="#000000" fill-rule="nonzero" fill-opacity="1" /><path clip-path="url(#clip550)" d="M79.7386 1245.96 Q73.0193 1252.39 63.4344 1252.39 Q53.8001 1252.39 46.8832 1246.06 Q39.9168 1239.74 39.9168 1230.45 Q39.9168 1224.27 42.8812 1219.63 Q45.7962 1214.99 50.7863 1214.99 Q53.0096 1214.99 54.2942 1216.32 Q55.5293 1217.6 55.5293 1219.63 Q55.5293 1221.75 54.2448 1223.04 Q52.9108 1224.27 50.8851 1224.27 Q49.9958 1224.27 49.1065 1223.98 Q48.2171 1223.68 47.2784 1222.59 Q46.3397 1221.46 46.1915 1219.53 Q42.486 1223.14 42.486 1230.15 Q42.486 1230.25 42.486 1230.35 Q42.486 1235.49 47.3278 1239.74 Q52.1697 1243.99 63.2368 1243.99 Q69.0174 1243.99 73.2664 1242.6 Q77.4659 1241.17 79.6398 1238.85 Q81.8137 1236.53 82.8513 1234.25 Q83.8394 1231.98 83.8394 1229.76 Q83.8394 1219.83 73.2169 1216.47 Q72.2288 1216.17 72.2288 1215.18 Q72.2288 1213.85 73.2169 1213.85 Q73.711 1213.85 74.9956 1214.24 Q76.2802 1214.64 78.3058 1215.88 Q80.3315 1217.11 82.1102 1218.89 Q83.8394 1220.62 85.124 1223.73 Q86.4085 1226.79 86.4085 1230.65 Q86.4085 1239.54 79.7386 1245.96 Z" fill="#000000" fill-rule="nonzero" fill-opacity="1" /><path clip-path="url(#clip550)" d="M44.8081 1209.01 L42.5848 1209.01 Q42.3872 1204.36 39.1263 1201.3 Q35.8161 1198.19 31.7647 1197.15 Q27.7134 1196.06 23.0197 1195.96 L23.0197 1193.44 L41.6461 1193.44 L41.6461 1178.97 L44.8081 1178.97 L44.8081 1193.44 L72.9205 1193.44 Q83.8394 1193.44 83.8394 1186.63 Q83.8394 1183.71 80.875 1181.78 Q77.8612 1179.86 72.5253 1179.86 L66.9423 1179.86 L66.9423 1177.34 L72.7229 1177.34 Q78.207 1177.34 82.3078 1179.86 Q86.4085 1182.38 86.4085 1187.37 Q86.4085 1189.2 85.9145 1191.02 Q85.4698 1192.8 84.2841 1195.17 Q83.0489 1197.5 80.0845 1198.98 Q77.0707 1200.41 72.7229 1200.41 L44.8081 1200.41 L44.8081 1209.01 Z" fill="#000000" fill-rule="nonzero" fill-opacity="1" /><path clip-path="url(#clip550)" d="M85.2722 1168.35 L82.1596 1168.35 Q82.1596 1162.96 81.5173 1161.73 Q80.8256 1160.49 77.5647 1160.49 L50.3416 1160.49 Q46.5867 1160.49 45.6974 1161.78 Q44.8081 1163.01 44.8081 1167.95 L41.6461 1167.95 L40.5591 1153.82 L77.6636 1153.82 Q80.6774 1153.82 81.4185 1152.73 Q82.1596 1151.65 82.1596 1146.71 L85.2722 1146.71 Q84.9757 1157.03 84.9757 1157.23 Q84.9757 1158.61 85.2722 1168.35 M22.9209 1164.1 Q20.8952 1164.1 19.2648 1162.57 Q17.585 1160.98 17.585 1158.76 Q17.585 1156.54 19.1166 1154.96 Q20.5988 1153.38 22.9703 1153.38 Q25.2924 1153.38 26.824 1154.96 Q28.3062 1156.54 28.3062 1158.76 Q28.3062 1161.08 26.6758 1162.61 Q25.0454 1164.1 22.9209 1164.1 Z" fill="#000000" fill-rule="nonzero" fill-opacity="1" /><path clip-path="url(#clip550)" d="M44.8081 1141.77 L41.6461 1141.77 Q41.9425 1137.22 41.9425 1131.93 Q41.9425 1130.01 41.6461 1120.92 L44.8081 1120.92 Q44.8081 1126.7 47.4266 1126.7 Q47.8219 1126.7 49.1559 1126.1 L77.3671 1114.74 L51.5768 1104.41 Q49.8476 1103.82 49.1559 1103.82 Q47.4266 1103.82 46.1915 1105.01 Q44.9069 1106.14 44.8081 1108.66 L41.6461 1108.66 Q41.9425 1103.52 41.9425 1099.87 Q41.9425 1095.72 41.6461 1092.31 L44.8081 1092.31 Q44.8081 1095.32 46.1915 1097.45 Q47.5255 1099.57 48.7112 1100.26 Q49.8476 1100.91 51.5768 1101.6 L84.4817 1114.84 Q86.4085 1115.63 86.4085 1116.96 Q86.4085 1117.85 86.0133 1118.25 Q85.6674 1118.59 84.4817 1119.09 L48.563 1133.66 Q46.0433 1134.65 45.4504 1135.94 Q44.8081 1137.22 44.8081 1141.77 Z" fill="#000000" fill-rule="nonzero" fill-opacity="1" /><path clip-path="url(#clip550)" d="M62.9898 1090.38 Q53.4543 1090.38 46.6855 1084.26 Q39.9168 1078.13 39.9168 1069.34 Q39.9168 1060.44 45.6974 1055.85 Q51.478 1051.2 59.7783 1051.2 Q61.3099 1051.2 61.6064 1051.6 Q61.9028 1051.99 61.9028 1053.72 L61.9028 1081.98 Q72.2288 1081.98 77.0707 1078.92 Q83.8394 1074.67 83.8394 1067.51 Q83.8394 1066.52 83.6418 1065.33 Q83.4441 1064.15 82.6042 1061.73 Q81.7149 1059.31 79.3928 1057.18 Q77.0707 1055.06 73.4146 1053.82 Q71.9818 1053.52 72.0312 1052.54 Q72.0312 1051.2 73.2169 1051.2 Q74.1063 1051.2 76.1319 1052.19 Q78.1082 1053.13 80.4797 1054.96 Q82.8513 1056.79 84.6299 1060.34 Q86.4085 1063.85 86.4085 1068.1 Q86.4085 1076.99 79.6892 1083.71 Q72.9205 1090.38 62.9898 1090.38 M59.7783 1081.88 L59.7783 1057.87 Q57.6538 1057.87 55.2823 1058.27 Q52.9108 1058.61 49.6499 1059.7 Q46.3397 1060.74 44.2646 1063.21 Q42.1895 1065.68 42.1895 1069.34 Q42.1895 1070.97 42.8812 1072.74 Q43.5729 1074.47 45.2527 1076.6 Q46.9326 1078.72 50.7369 1080.2 Q54.5412 1081.69 59.7783 1081.88 Z" fill="#000000" fill-rule="nonzero" fill-opacity="1" /><path clip-path="url(#clip550)" d="M101.774 1011.83 Q101.774 1006.44 101.082 1005.21 Q100.44 1003.92 97.2286 1003.92 L49.8476 1003.92 Q46.4879 1003.92 45.648 1005.21 Q44.8081 1006.44 44.8081 1011.83 L41.6461 1011.83 L40.5591 997.251 L47.229 997.251 Q40.5591 991.174 40.5591 983.071 Q40.5591 974.474 47.229 968.199 Q53.8989 961.925 63.4344 961.925 Q73.0687 961.925 79.7386 968.595 Q86.4085 975.265 86.4085 984.504 Q86.4085 989.543 83.8394 992.952 Q81.2208 996.312 79.294 996.954 L80.2327 996.954 L97.2286 996.954 Q100.489 996.954 101.132 995.67 Q101.774 994.385 101.774 989.049 L104.887 989.049 Q104.59 999.672 104.59 1000.46 Q104.59 1001.45 104.887 1011.83 L101.774 1011.83 M73.7604 996.954 Q75.292 996.954 75.8355 996.757 Q76.379 996.51 78.0094 995.521 Q84.1358 991.519 84.1358 984.998 Q84.1358 984.948 84.1358 984.899 Q84.1358 979.118 78.2564 974.721 Q72.3276 970.324 63.4344 970.324 Q54.9365 970.324 49.0077 974.326 Q43.0789 978.328 43.0789 983.861 Q43.0789 987.814 45.2033 991.272 Q47.3278 994.731 51.1816 996.954 L73.7604 996.954 Z" fill="#000000" fill-rule="nonzero" fill-opacity="1" /><path clip-path="url(#clip550)" d="M79.8374 946.214 Q73.2169 952.883 63.632 952.883 Q53.9977 952.883 46.982 946.362 Q39.9168 939.791 39.9168 930.403 Q39.9168 921.214 46.9326 914.643 Q53.8989 908.022 63.632 908.022 Q73.1675 908.022 79.788 914.692 Q86.4085 921.313 86.4085 930.502 Q86.4085 939.494 79.8374 946.214 M62.7921 944.484 Q72.6241 944.484 77.0707 941.915 Q83.8394 937.963 83.8394 930.403 Q83.8394 926.648 81.8137 923.536 Q79.788 920.374 76.379 918.645 Q71.9324 916.421 62.7921 916.421 Q53.059 916.421 48.7606 919.089 Q42.1895 923.042 42.1895 930.502 Q42.1895 933.763 43.9188 936.974 Q45.5986 940.136 48.9583 942.063 Q53.4049 944.484 62.7921 944.484 Z" fill="#000000" fill-rule="nonzero" fill-opacity="1" /><path clip-path="url(#clip550)" d="M44.8081 906.095 L41.6461 906.095 Q41.9425 900.611 41.9425 896.708 Q41.9425 894.781 41.6461 885.641 L44.8081 885.641 Q44.8081 891.619 47.5255 891.619 Q48.1183 891.619 49.3535 891.125 L76.379 881.491 L51.8732 872.795 Q46.9326 874.623 46.3397 875.117 Q44.8081 876.352 44.8081 881.491 L41.6461 881.491 Q41.9425 876.945 41.9425 872.499 Q41.9425 870.769 41.6461 861.975 L44.8081 861.975 Q44.8081 867.953 47.5255 867.953 Q47.9207 867.953 49.4523 867.459 L77.6636 857.43 L51.7744 848.24 Q50.4405 847.746 49.6499 847.697 Q47.4266 847.697 46.1915 849.278 Q44.9069 850.859 44.8081 853.576 L41.6461 853.576 Q41.9425 847.795 41.9425 844.189 Q41.9425 840.137 41.6461 836.778 L44.8081 836.778 Q45.0057 843.052 51.2804 845.276 L84.4817 857.133 Q86.3097 858.27 86.4085 859.159 Q86.4085 860.493 84.4817 861.185 L55.727 871.511 L84.3829 881.738 Q85.618 882.133 86.0133 882.479 Q86.4085 882.825 86.4085 883.763 Q86.4085 884.653 85.8651 885.048 Q85.371 885.443 84.1358 885.888 L48.316 898.635 Q45.9938 899.524 45.401 900.858 Q44.8081 902.143 44.8081 906.095 Z" fill="#000000" fill-rule="nonzero" fill-opacity="1" /><path clip-path="url(#clip550)" d="M62.9898 834.9 Q53.4543 834.9 46.6855 828.774 Q39.9168 822.647 39.9168 813.853 Q39.9168 804.96 45.6974 800.365 Q51.478 795.721 59.7783 795.721 Q61.3099 795.721 61.6064 796.116 Q61.9028 796.511 61.9028 798.24 L61.9028 826.501 Q72.2288 826.501 77.0707 823.438 Q83.8394 819.189 83.8394 812.025 Q83.8394 811.037 83.6418 809.851 Q83.4441 808.665 82.6042 806.244 Q81.7149 803.823 79.3928 801.699 Q77.0707 799.574 73.4146 798.339 Q71.9818 798.043 72.0312 797.055 Q72.0312 795.721 73.2169 795.721 Q74.1063 795.721 76.1319 796.709 Q78.1082 797.647 80.4797 799.476 Q82.8513 801.304 84.6299 804.861 Q86.4085 808.369 86.4085 812.618 Q86.4085 821.511 79.6892 828.23 Q72.9205 834.9 62.9898 834.9 M59.7783 826.402 L59.7783 802.391 Q57.6538 802.391 55.2823 802.786 Q52.9108 803.132 49.6499 804.219 Q46.3397 805.256 44.2646 807.726 Q42.1895 810.197 42.1895 813.853 Q42.1895 815.483 42.8812 817.262 Q43.5729 818.991 45.2527 821.116 Q46.9326 823.24 50.7369 824.722 Q54.5412 826.205 59.7783 826.402 Z" fill="#000000" fill-rule="nonzero" fill-opacity="1" /><path clip-path="url(#clip550)" d="M85.2722 789.989 L82.1596 789.989 Q82.1596 784.604 81.5173 783.369 Q80.8256 782.084 77.5647 782.084 L50.4405 782.084 Q46.6855 782.084 45.7468 783.418 Q44.8081 784.703 44.8081 789.989 L41.6461 789.989 L40.5591 775.909 L51.6756 775.909 Q47.3278 774.476 43.9682 771.462 Q40.5591 768.399 40.5591 763.458 Q40.5591 760.197 42.3872 758.122 Q44.2152 755.998 46.7349 755.998 Q48.9583 755.998 50.0946 757.381 Q51.1816 758.715 51.1816 760.345 Q51.1816 762.173 50.0452 763.458 Q48.8594 764.693 46.8338 764.693 Q45.5986 764.693 44.6599 764.15 Q43.6717 763.557 43.3259 763.112 Q42.98 762.668 42.8812 762.371 Q42.7824 762.569 42.7824 763.458 Q42.7824 769.041 48.3654 772.252 Q53.8989 775.414 61.804 775.414 L77.3671 775.414 Q80.2821 775.414 81.2208 774.229 Q82.1596 772.994 82.1596 767.707 L82.1596 765.583 L85.2722 765.583 Q84.9757 769.634 84.9757 778.428 Q84.9757 779.663 85.0252 781.59 Q85.0746 783.517 85.1734 786.037 Q85.2722 788.557 85.2722 789.989 Z" fill="#000000" fill-rule="nonzero" fill-opacity="1" /><path clip-path="url(#clip550)" d="M110.568 709.111 L9.38347 709.111 L9.38347 693.844 L11.7056 693.844 L11.7056 702.342 L108.246 702.342 L108.246 693.844 L110.568 693.844 L110.568 709.111 Z" fill="#000000" fill-rule="nonzero" fill-opacity="1" /><path clip-path="url(#clip550)" d="M85.2722 687.767 L82.1596 687.767 Q82.1596 684.111 81.4679 681.789 Q80.7268 679.467 79.3928 678.627 Q78.0094 677.737 77.1201 677.54 Q76.1814 677.342 74.6497 677.342 L24.0573 677.342 Q21.1423 677.342 20.2529 678.627 Q19.3142 679.862 19.3142 685.346 L19.3142 687.767 L16.1522 687.767 L16.1522 670.672 Q16.1522 668.844 16.498 668.35 Q16.7945 667.856 18.3755 667.115 L75.045 645.178 L18.0791 623.044 Q16.6463 622.55 16.3992 622.105 Q16.1522 621.611 16.1522 619.684 L16.1522 602.59 L19.3142 602.59 L19.3142 605.011 Q19.3142 610.495 20.2529 611.779 Q21.1423 613.015 24.0573 613.015 L77.3671 613.015 Q80.2821 613.015 81.2208 611.779 Q82.1596 610.495 82.1596 605.011 L82.1596 602.59 L85.2722 602.59 Q84.9757 606.345 84.9757 617.066 Q84.9757 627.886 85.2722 631.641 L82.1596 631.641 L82.1596 629.171 Q82.1596 623.686 81.2702 622.451 Q80.3315 621.216 77.3671 621.216 L19.3142 621.216 L19.3142 621.315 L83.3453 646.166 Q85.2722 646.858 85.2722 647.995 Q85.2722 649.23 83.0489 650.02 L20.1047 674.427 L20.1047 674.526 L74.6497 674.526 Q76.1814 674.526 77.1201 674.328 Q78.0094 674.131 79.3928 673.291 Q80.7268 672.401 81.4679 670.079 Q82.1596 667.757 82.1596 664.101 L85.2722 664.101 Q84.9757 674.724 84.9757 675.959 Q84.9757 677.145 85.2722 687.767 Z" fill="#000000" fill-rule="nonzero" fill-opacity="1" /><path clip-path="url(#clip550)" d="M19.3142 597.056 L16.1522 597.056 Q16.1522 595.623 16.251 593.054 Q16.3498 590.485 16.3992 588.459 Q16.4486 586.434 16.4486 584.705 Q16.4486 573.983 16.1522 570.327 L19.3142 570.327 Q19.3142 578.825 22.328 578.825 Q23.0197 578.825 23.662 578.628 L73.4146 562.373 L30.0355 548.292 L22.9209 550.515 Q20.4012 551.306 19.8577 553.035 Q19.3142 554.764 19.3142 559.606 L16.1522 559.606 Q16.1522 558.173 16.251 555.604 Q16.3498 553.035 16.3992 551.009 Q16.4486 548.983 16.4486 547.304 Q16.4486 536.582 16.1522 532.926 L19.3142 532.926 Q19.3142 541.424 22.328 541.424 Q22.6245 541.424 23.8596 541.128 L73.4146 524.922 L26.6758 509.755 Q25.1442 509.26 24.6501 509.211 Q22.8221 509.211 21.1423 511.336 Q19.413 513.46 19.3142 518.055 L16.1522 518.055 Q16.4486 510.15 16.4486 506 Q16.4486 501.355 16.1522 496.81 L19.3142 496.81 Q19.3142 504.814 26.0829 506.889 L85.4698 526.256 Q86.2603 526.454 86.6062 526.602 Q87.0014 526.75 87.2485 527.146 Q87.4955 527.541 87.4955 528.233 Q87.4955 529.567 85.5686 530.16 L34.0868 546.958 L85.4698 563.657 Q86.2603 563.855 86.6062 564.053 Q87.0014 564.201 87.2485 564.596 Q87.4955 564.991 87.4955 565.683 Q87.4955 567.017 85.5686 567.61 L23.5632 587.867 Q20.6482 588.756 20.0059 590.139 Q19.3142 591.473 19.3142 597.056 Z" fill="#000000" fill-rule="nonzero" fill-opacity="1" /><path clip-path="url(#clip550)" d="M108.246 492.857 L108.246 484.359 L11.7056 484.359 L11.7056 492.857 L9.38347 492.857 L9.38347 477.591 L110.568 477.591 L110.568 492.857 L108.246 492.857 Z" fill="#000000" fill-rule="nonzero" fill-opacity="1" /><path clip-path="url(#clip550)" d="M1244.05 103.68 L1244.05 99.7892 L1247.08 99.7892 Q1253.93 99.7892 1255.48 98.6776 Q1257.08 97.5042 1257.08 93.7987 L1257.08 27.1613 Q1257.08 23.5176 1255.48 22.4059 Q1253.87 21.2325 1247.08 21.2325 L1244.05 21.2325 L1244.05 17.28 L1290.31 17.28 Q1302.35 17.28 1310.38 23.7646 Q1318.41 30.1875 1318.41 38.6484 Q1318.41 45.6271 1312.48 51.1854 Q1306.61 56.7436 1297.41 58.5346 Q1307.91 59.6463 1314.83 66.0074 Q1321.8 72.3067 1321.8 80.5206 Q1321.8 89.7844 1313.84 96.7631 Q1305.87 103.68 1293.64 103.68 L1244.05 103.68 M1267.58 94.725 Q1267.58 97.9982 1268.51 98.9246 Q1269.43 99.7892 1273.76 99.7892 L1289.57 99.7892 Q1298.64 99.7892 1303.89 93.8604 Q1309.14 87.8698 1309.14 80.3971 Q1309.14 72.9243 1304.51 66.5632 Q1299.94 60.1403 1291.36 60.1403 L1267.58 60.1403 L1267.58 94.725 M1267.58 57.3612 L1285.92 57.3612 Q1295.68 57.3612 1300.87 51.4942 Q1306.12 45.6271 1306.12 38.6484 Q1306.12 32.4726 1301.92 26.8526 Q1297.78 21.2325 1289.44 21.2325 L1273.76 21.2325 Q1269.43 21.2325 1268.51 22.0972 Q1267.58 22.9618 1267.58 26.2967 L1267.58 57.3612 Z" fill="#000000" fill-rule="nonzero" fill-opacity="1" /><path clip-path="url(#clip550)" d="M1332.49 103.68 L1332.49 99.7892 Q1339.22 99.7892 1340.76 98.9864 Q1342.37 98.1217 1342.37 94.0457 L1342.37 60.1403 Q1342.37 55.4467 1340.7 54.2733 Q1339.1 53.0999 1332.49 53.0999 L1332.49 49.1473 L1350.09 47.7886 L1350.09 61.6843 Q1351.88 56.2495 1355.65 52.05 Q1359.48 47.7886 1365.65 47.7886 Q1369.73 47.7886 1372.32 50.0737 Q1374.98 52.3588 1374.98 55.5084 Q1374.98 58.2876 1373.25 59.708 Q1371.58 61.0667 1369.54 61.0667 Q1367.26 61.0667 1365.65 59.6463 Q1364.11 58.1641 1364.11 55.632 Q1364.11 54.088 1364.79 52.9146 Q1365.53 51.6794 1366.08 51.2471 Q1366.64 50.8148 1367.01 50.6913 Q1366.76 50.5678 1365.65 50.5678 Q1358.67 50.5678 1354.66 57.5465 Q1350.71 64.4634 1350.71 74.3448 L1350.71 93.7987 Q1350.71 97.4424 1352.19 98.6158 Q1353.73 99.7892 1360.34 99.7892 L1363 99.7892 L1363 103.68 Q1357.93 103.309 1346.94 103.309 Q1345.4 103.309 1342.99 103.371 Q1340.58 103.433 1337.43 103.556 Q1334.28 103.68 1332.49 103.68 Z" fill="#000000" fill-rule="nonzero" fill-opacity="1" /><path clip-path="url(#clip550)" d="M1383.69 91.6371 Q1383.69 80.8912 1396.35 75.2094 Q1403.94 71.5656 1419.63 70.6393 L1419.63 66.0074 Q1419.63 58.1641 1415.49 54.0262 Q1411.42 49.8267 1406.23 49.8267 Q1396.96 49.8267 1392.52 55.632 Q1396.28 55.7555 1397.64 57.67 Q1399 59.5227 1399 61.4373 Q1399 63.9693 1397.4 65.6368 Q1395.85 67.2425 1393.2 67.2425 Q1390.66 67.2425 1389 65.6986 Q1387.33 64.0929 1387.33 61.3137 Q1387.33 55.1379 1392.89 51.0618 Q1398.51 46.9858 1406.47 46.9858 Q1416.85 46.9858 1423.77 53.9645 Q1425.93 56.126 1426.98 58.9052 Q1428.09 61.6843 1428.21 63.537 Q1428.34 65.328 1428.34 68.91 L1428.34 94.1692 Q1428.34 94.9103 1428.58 96.1455 Q1428.83 97.3806 1429.94 98.9864 Q1431.12 100.53 1433.03 100.53 Q1437.6 100.53 1437.54 92.44 L1437.54 85.3378 L1440.75 85.3378 L1440.75 92.44 Q1440.75 99.1716 1437.17 101.827 Q1433.65 104.421 1430.38 104.421 Q1426.18 104.421 1423.52 101.333 Q1420.86 98.2453 1420.49 94.0457 Q1418.58 98.8628 1414.19 102.013 Q1409.87 105.1 1403.94 105.1 Q1399.37 105.1 1395.05 103.927 Q1390.79 102.815 1387.21 99.6657 Q1383.69 96.4543 1383.69 91.6371 M1393.44 91.5136 Q1393.44 96.2072 1396.78 99.2334 Q1400.11 102.26 1404.81 102.26 Q1410.12 102.26 1414.87 98.1835 Q1419.63 94.0457 1419.63 85.9553 L1419.63 73.2949 Q1405.61 73.7889 1399.5 79.4089 Q1393.44 84.9672 1393.44 91.5136 Z" fill="#000000" fill-rule="nonzero" fill-opacity="1" /><path clip-path="url(#clip550)" d="M1445.69 103.68 L1445.69 99.7892 Q1452.42 99.7892 1453.97 98.9864 Q1455.51 98.1217 1455.51 94.0457 L1455.51 60.1403 Q1455.51 55.4467 1453.84 54.2733 Q1452.24 53.0999 1445.69 53.0999 L1445.69 49.1473 L1463.48 47.7886 L1463.48 61.0667 Q1469.41 47.7886 1482.19 47.7886 Q1491.7 47.7886 1495.47 52.4823 Q1498.25 55.632 1498.8 59.1522 Q1499.42 62.6724 1499.42 71.8127 L1499.42 95.9602 Q1499.54 98.6158 1501.58 99.2334 Q1503.62 99.7892 1509.3 99.7892 L1509.3 103.68 Q1496.4 103.309 1495.1 103.309 Q1494.11 103.309 1480.83 103.68 L1480.83 99.7892 Q1487.56 99.7892 1489.11 98.9864 Q1490.71 98.1217 1490.71 94.0457 L1490.71 64.5869 Q1490.71 58.1641 1488.74 54.3968 Q1486.76 50.5678 1481.33 50.5678 Q1474.78 50.5678 1469.53 56.0643 Q1464.28 61.5608 1464.28 70.8245 L1464.28 94.0457 Q1464.28 98.1217 1465.82 98.9864 Q1467.43 99.7892 1474.1 99.7892 L1474.1 103.68 Q1461.19 103.309 1459.96 103.309 Q1458.97 103.309 1445.69 103.68 Z" fill="#000000" fill-rule="nonzero" fill-opacity="1" /><path clip-path="url(#clip550)" d="M1524.12 96.7631 Q1516.1 88.3639 1516.1 76.3828 Q1516.1 64.3399 1524 55.6937 Q1531.91 46.9858 1543.52 46.9858 Q1551.24 46.9858 1557.04 50.6913 Q1562.85 54.335 1562.85 60.5726 Q1562.85 63.3518 1561.18 64.9575 Q1559.57 66.5014 1557.04 66.5014 Q1554.39 66.5014 1552.78 64.8957 Q1551.24 63.2282 1551.24 60.6962 Q1551.24 59.5845 1551.61 58.4729 Q1551.98 57.3612 1553.34 56.1878 Q1554.76 55.0144 1557.17 54.8291 Q1552.66 50.1972 1543.89 50.1972 Q1543.76 50.1972 1543.64 50.1972 Q1537.22 50.1972 1531.91 56.2495 Q1526.6 62.3019 1526.6 76.1358 Q1526.6 83.3615 1528.32 88.6727 Q1530.12 93.9222 1533.02 96.6395 Q1535.92 99.3569 1538.76 100.654 Q1541.6 101.889 1544.38 101.889 Q1556.79 101.889 1560.99 88.611 Q1561.37 87.3758 1562.6 87.3758 Q1564.27 87.3758 1564.27 88.611 Q1564.27 89.2285 1563.77 90.8343 Q1563.28 92.44 1561.74 94.9721 Q1560.19 97.5042 1557.97 99.7275 Q1555.81 101.889 1551.92 103.495 Q1548.09 105.1 1543.27 105.1 Q1532.15 105.1 1524.12 96.7631 Z" fill="#000000" fill-rule="nonzero" fill-opacity="1" /><path clip-path="url(#clip550)" d="M1568.47 103.68 L1568.47 99.7892 Q1575.2 99.7892 1576.74 98.9864 Q1578.29 98.1217 1578.29 94.0457 L1578.29 28.273 Q1578.29 23.5794 1576.62 22.4059 Q1575.01 21.2325 1568.47 21.2325 L1568.47 17.28 L1586.62 15.9213 L1586.62 59.8933 L1586.75 59.8933 Q1588.79 55.3232 1593.36 51.5559 Q1597.93 47.7886 1604.97 47.7886 Q1614.48 47.7886 1618.24 52.4823 Q1621.02 55.632 1621.58 59.1522 Q1622.2 62.6724 1622.2 71.8127 L1622.2 95.9602 Q1622.32 98.6158 1624.36 99.2334 Q1626.4 99.7892 1632.08 99.7892 L1632.08 103.68 Q1619.17 103.309 1617.87 103.309 Q1616.89 103.309 1603.61 103.68 L1603.61 99.7892 Q1610.34 99.7892 1611.88 98.9864 Q1613.49 98.1217 1613.49 94.0457 L1613.49 64.5869 Q1613.49 58.1641 1611.51 54.3968 Q1609.54 50.5678 1604.1 50.5678 Q1597.56 50.5678 1592.31 56.0643 Q1587.06 61.5608 1587.06 70.8245 L1587.06 94.0457 Q1587.06 98.1217 1588.6 98.9864 Q1590.21 99.7892 1596.88 99.7892 L1596.88 103.68 Q1583.97 103.309 1582.73 103.309 Q1581.75 103.309 1568.47 103.68 Z" fill="#000000" fill-rule="nonzero" fill-opacity="1" /><path clip-path="url(#clip550)" d="M1680.81 53.0999 L1680.81 49.1473 L1690.75 49.1473 L1690.75 34.6341 Q1690.75 25.2468 1696.8 19.8739 Q1702.92 14.5009 1710.39 14.5009 Q1715.33 14.5009 1718.54 17.1565 Q1721.75 19.8121 1721.75 23.3941 Q1721.75 25.8027 1720.27 27.4084 Q1718.85 28.9523 1716.19 28.9523 Q1713.66 28.9523 1712.18 27.3466 Q1710.76 25.7409 1710.76 23.5176 Q1710.76 19.4415 1714.53 18.2064 Q1712.61 17.3418 1710.39 17.28 Q1705.82 17.28 1702.24 21.9736 Q1698.72 26.6673 1698.72 34.5106 L1698.72 49.1473 L1713.54 49.1473 L1713.54 53.0999 L1699.15 53.0999 L1699.15 93.7987 Q1699.15 97.4424 1700.63 98.6158 Q1702.17 99.7892 1708.72 99.7892 L1711.38 99.7892 L1711.38 103.68 Q1706.31 103.309 1695.32 103.309 Q1693.78 103.309 1691.37 103.371 Q1689.02 103.433 1685.81 103.556 Q1682.66 103.68 1680.93 103.68 L1680.93 99.7892 Q1687.66 99.7892 1689.2 98.9864 Q1690.75 98.1217 1690.75 94.0457 L1690.75 53.0999 L1680.81 53.0999 Z" fill="#000000" fill-rule="nonzero" fill-opacity="1" /><path clip-path="url(#clip550)" d="M1719.34 103.68 L1719.34 99.7892 Q1726.07 99.7892 1727.62 98.9864 Q1729.16 98.1217 1729.16 94.0457 L1729.16 28.273 Q1729.16 23.5794 1727.5 22.4059 Q1725.89 21.2325 1719.34 21.2325 L1719.34 17.28 L1737.5 15.9213 L1737.5 94.0457 Q1737.5 98.1217 1739.11 98.9864 Q1740.71 99.7892 1747.38 99.7892 L1747.38 103.68 Q1745.84 103.68 1742.63 103.556 Q1739.41 103.433 1737.07 103.371 Q1734.72 103.309 1733.36 103.309 Q1731.88 103.309 1719.34 103.68 Z" fill="#000000" fill-rule="nonzero" fill-opacity="1" /><path clip-path="url(#clip550)" d="M1762.02 96.8866 Q1753.68 88.611 1753.68 76.6298 Q1753.68 64.5869 1761.83 55.8172 Q1770.05 46.9858 1781.78 46.9858 Q1793.27 46.9858 1801.48 55.7555 Q1809.76 64.4634 1809.76 76.6298 Q1809.76 88.5492 1801.42 96.8248 Q1793.14 105.1 1781.66 105.1 Q1770.42 105.1 1762.02 96.8866 M1764.18 75.5799 Q1764.18 87.8698 1767.39 93.4281 Q1772.33 101.889 1781.78 101.889 Q1786.47 101.889 1790.37 99.3569 Q1794.32 96.8248 1796.48 92.5635 Q1799.26 87.0052 1799.26 75.5799 Q1799.26 63.4135 1795.92 58.0405 Q1790.98 49.8267 1781.66 49.8267 Q1777.58 49.8267 1773.57 51.9882 Q1769.61 54.088 1767.21 58.2876 Q1764.18 63.8458 1764.18 75.5799 Z" fill="#000000" fill-rule="nonzero" fill-opacity="1" /><path clip-path="url(#clip550)" d="M1812.17 53.0999 L1812.17 49.1473 Q1819.02 49.5179 1823.9 49.5179 Q1826.31 49.5179 1837.73 49.1473 L1837.73 53.0999 Q1830.26 53.0999 1830.26 56.4966 Q1830.26 57.2377 1830.88 58.7816 L1842.92 92.5635 L1853.79 61.9313 Q1851.51 55.7555 1850.89 55.0144 Q1849.34 53.0999 1842.92 53.0999 L1842.92 49.1473 Q1848.6 49.5179 1854.16 49.5179 Q1856.32 49.5179 1867.32 49.1473 L1867.32 53.0999 Q1859.84 53.0999 1859.84 56.4966 Q1859.84 56.9907 1860.46 58.9052 L1873 94.1692 L1884.48 61.8078 Q1885.1 60.1403 1885.16 59.1522 Q1885.16 56.3731 1883.19 54.8291 Q1881.21 53.2234 1877.82 53.0999 L1877.82 49.1473 Q1885.04 49.5179 1889.55 49.5179 Q1894.61 49.5179 1898.81 49.1473 L1898.81 53.0999 Q1890.97 53.3469 1888.19 61.1902 L1873.37 102.692 Q1871.95 104.977 1870.84 105.1 Q1869.17 105.1 1868.3 102.692 L1855.4 66.7485 L1842.61 102.568 Q1842.12 104.112 1841.69 104.606 Q1841.25 105.1 1840.08 105.1 Q1838.97 105.1 1838.47 104.421 Q1837.98 103.804 1837.43 102.26 L1821.49 57.4847 Q1820.38 54.5821 1818.71 53.841 Q1817.11 53.0999 1812.17 53.0999 Z" fill="#000000" fill-rule="nonzero" fill-opacity="1" /><path clip-path="url(#clip550)" d="M1905.36 102.013 L1905.36 85.3378 Q1905.36 83.9173 1905.42 83.4232 Q1905.48 82.9292 1905.85 82.5586 Q1906.22 82.1881 1906.97 82.1881 Q1907.83 82.1881 1908.14 82.5586 Q1908.51 82.9292 1908.76 84.3496 Q1910.67 93.0576 1914.75 97.6894 Q1918.88 102.26 1926.36 102.26 Q1933.46 102.26 1937.04 99.1099 Q1940.62 95.9602 1940.62 90.7725 Q1940.62 81.5087 1927.47 79.1619 Q1919.87 77.618 1916.72 76.6298 Q1913.57 75.5799 1910.79 73.2949 Q1905.36 68.8483 1905.36 62.5489 Q1905.36 56.2495 1910.11 51.6177 Q1914.93 46.9858 1925.55 46.9858 Q1932.66 46.9858 1937.47 50.5678 Q1938.89 49.4561 1939.64 48.5297 Q1941.3 46.9858 1942.17 46.9858 Q1943.16 46.9858 1943.34 47.6651 Q1943.53 48.2827 1943.53 50.0737 L1943.53 62.7959 Q1943.53 64.2164 1943.46 64.7105 Q1943.4 65.2045 1943.03 65.5751 Q1942.66 65.8839 1941.86 65.8839 Q1940.44 65.8839 1940.38 64.7105 Q1939.39 49.3944 1925.55 49.3944 Q1918.08 49.3944 1914.75 52.297 Q1911.41 55.1379 1911.41 59.0287 Q1911.41 61.1902 1912.4 62.8577 Q1913.45 64.4634 1914.75 65.4516 Q1916.11 66.3779 1918.58 67.3043 Q1921.05 68.1689 1922.53 68.4777 Q1924.07 68.7865 1926.97 69.4041 Q1937.1 71.3186 1941.36 75.4564 Q1946.68 80.7676 1946.68 87.4993 Q1946.68 94.9721 1941.61 100.036 Q1936.55 105.1 1926.36 105.1 Q1918.14 105.1 1912.4 99.6039 Q1911.66 100.345 1911.1 101.024 Q1910.55 101.642 1910.3 101.889 Q1910.11 102.136 1910.05 102.321 Q1909.99 102.445 1909.87 102.568 Q1907.34 105.1 1906.72 105.1 Q1905.73 105.1 1905.54 104.421 Q1905.36 103.804 1905.36 102.013 Z" fill="#000000" fill-rule="nonzero" fill-opacity="1" /><path clip-path="url(#clip552)" d="M494.088 1071.03 L494.088 916.549 L797.888 916.549 L797.888 1071.03 L494.088 1071.03 L494.088 1071.03  Z" fill="#009af9" fill-rule="evenodd" fill-opacity="1"/>
<polyline clip-path="url(#clip552)" style="stroke:#000000; stroke-linecap:round; stroke-linejoin:round; stroke-width:4; stroke-opacity:1; fill:none" points="494.088,1071.03 494.088,916.549 797.888,916.549 797.888,1071.03 494.088,1071.03 "/>
<path clip-path="url(#clip552)" d="M873.838 149.392 L873.838 916.549 L1177.64 916.549 L1177.64 149.392 L873.838 149.392 L873.838 149.392  Z" fill="#009af9" fill-rule="evenodd" fill-opacity="1"/>
<polyline clip-path="url(#clip552)" style="stroke:#000000; stroke-linecap:round; stroke-linejoin:round; stroke-width:4; stroke-opacity:1; fill:none" points="873.838,149.392 873.838,916.549 1177.64,916.549 1177.64,149.392 873.838,149.392 "/>
<path clip-path="url(#clip552)" d="M1253.59 998.846 L1253.59 916.549 L1557.39 916.549 L1557.39 998.846 L1253.59 998.846 L1253.59 998.846  Z" fill="#009af9" fill-rule="evenodd" fill-opacity="1"/>
<polyline clip-path="url(#clip552)" style="stroke:#000000; stroke-linecap:round; stroke-linejoin:round; stroke-width:4; stroke-opacity:1; fill:none" points="1253.59,998.846 1253.59,916.549 1557.39,916.549 1557.39,998.846 1253.59,998.846 "/>
<path clip-path="url(#clip552)" d="M1633.34 342.715 L1633.34 916.549 L1937.14 916.549 L1937.14 342.715 L1633.34 342.715 L1633.34 342.715  Z" fill="#009af9" fill-rule="evenodd" fill-opacity="1"/>
<polyline clip-path="url(#clip552)" style="stroke:#000000; stroke-linecap:round; stroke-linejoin:round; stroke-width:4; stroke-opacity:1; fill:none" points="1633.34,342.715 1633.34,916.549 1937.14,916.549 1937.14,342.715 1633.34,342.715 "/>
<path clip-path="url(#clip552)" d="M2013.09 1653.86 L2013.09 916.549 L2316.89 916.549 L2316.89 1653.86 L2013.09 1653.86 L2013.09 1653.86  Z" fill="#009af9" fill-rule="evenodd" fill-opacity="1"/>
<polyline clip-path="url(#clip552)" style="stroke:#000000; stroke-linecap:round; stroke-linejoin:round; stroke-width:4; stroke-opacity:1; fill:none" points="2013.09,1653.86 2013.09,916.549 2316.89,916.549 2316.89,1653.86 2013.09,1653.86 "/>
<path clip-path="url(#clip552)" d="M2392.84 1612.4 L2392.84 916.549 L2696.64 916.549 L2696.64 1612.4 L2392.84 1612.4 L2392.84 1612.4  Z" fill="#009af9" fill-rule="evenodd" fill-opacity="1"/>
<polyline clip-path="url(#clip552)" style="stroke:#000000; stroke-linecap:round; stroke-linejoin:round; stroke-width:4; stroke-opacity:1; fill:none" points="2392.84,1612.4 2392.84,916.549 2696.64,916.549 2696.64,1612.4 2392.84,1612.4 "/>
<circle clip-path="url(#clip552)" style="fill:#009af9; stroke:none; fill-opacity:0" cx="645.988" cy="1071.03" r="2"/>
<circle clip-path="url(#clip552)" style="fill:#009af9; stroke:none; fill-opacity:0" cx="1025.74" cy="149.392" r="2"/>
<circle clip-path="url(#clip552)" style="fill:#009af9; stroke:none; fill-opacity:0" cx="1405.49" cy="998.846" r="2"/>
<circle clip-path="url(#clip552)" style="fill:#009af9; stroke:none; fill-opacity:0" cx="1785.24" cy="342.715" r="2"/>
<circle clip-path="url(#clip552)" style="fill:#009af9; stroke:none; fill-opacity:0" cx="2164.99" cy="1653.86" r="2"/>
<circle clip-path="url(#clip552)" style="fill:#009af9; stroke:none; fill-opacity:0" cx="2544.74" cy="1612.4" r="2"/>
</svg>
