<?xml version="1.0" encoding="utf-8"?>
<svg xmlns="http://www.w3.org/2000/svg" xmlns:xlink="http://www.w3.org/1999/xlink" width="720" height="480" viewBox="0 0 2880 1920">
<defs>
  <clipPath id="clip310">
    <rect x="0" y="0" width="2880" height="1920"/>
  </clipPath>
</defs>
<path clip-path="url(#clip310)" d="M0 1920 L2880 1920 L2880 0 L0 0  Z" fill="#ffffff" fill-rule="evenodd" fill-opacity="1"/>
<defs>
  <clipPath id="clip311">
    <rect x="576" y="0" width="2017" height="1920"/>
  </clipPath>
</defs>
<path clip-path="url(#clip310)" d="M301.091 1653.86 L2832.76 1653.86 L2832.76 149.392 L301.091 149.392  Z" fill="#ffffff" fill-rule="evenodd" fill-opacity="1"/>
<defs>
  <clipPath id="clip312">
    <rect x="301" y="149" width="2533" height="1505"/>
  </clipPath>
</defs>
<polyline clip-path="url(#clip312)" style="stroke:#000000; stroke-linecap:round; stroke-linejoin:round; stroke-width:2; stroke-opacity:0.1; fill:none" points="628.101,1653.86 628.101,149.392 "/>
<polyline clip-path="url(#clip312)" style="stroke:#000000; stroke-linecap:round; stroke-linejoin:round; stroke-width:2; stroke-opacity:0.1; fill:none" points="1097.51,1653.86 1097.51,149.392 "/>
<polyline clip-path="url(#clip312)" style="stroke:#000000; stroke-linecap:round; stroke-linejoin:round; stroke-width:2; stroke-opacity:0.1; fill:none" points="1566.92,1653.86 1566.92,149.392 "/>
<polyline clip-path="url(#clip312)" style="stroke:#000000; stroke-linecap:round; stroke-linejoin:round; stroke-width:2; stroke-opacity:0.1; fill:none" points="2036.33,1653.86 2036.33,149.392 "/>
<polyline clip-path="url(#clip312)" style="stroke:#000000; stroke-linecap:round; stroke-linejoin:round; stroke-width:2; stroke-opacity:0.1; fill:none" points="2505.75,1653.86 2505.75,149.392 "/>
<polyline clip-path="url(#clip310)" style="stroke:#000000; stroke-linecap:round; stroke-linejoin:round; stroke-width:4; stroke-opacity:1; fill:none" points="301.091,1653.86 2832.76,1653.86 "/>
<polyline clip-path="url(#clip310)" style="stroke:#000000; stroke-linecap:round; stroke-linejoin:round; stroke-width:4; stroke-opacity:1; fill:none" points="301.091,149.392 2832.76,149.392 "/>
<polyline clip-path="url(#clip310)" style="stroke:#000000; stroke-linecap:round; stroke-linejoin:round; stroke-width:4; stroke-opacity:1; fill:none" points="628.101,1653.86 628.101,1634.96 "/>
<polyline clip-path="url(#clip310)" style="stroke:#000000; stroke-linecap:round; stroke-linejoin:round; stroke-width:4; stroke-opacity:1; fill:none" points="1097.51,1653.86 1097.51,1634.96 "/>
<polyline clip-path="url(#clip310)" style="stroke:#000000; stroke-linecap:round; stroke-linejoin:round; stroke-width:4; stroke-opacity:1; fill:none" points="1566.92,1653.86 1566.92,1634.96 "/>
<polyline clip-path="url(#clip310)" style="stroke:#000000; stroke-linecap:round; stroke-linejoin:round; stroke-width:4; stroke-opacity:1; fill:none" points="2036.33,1653.86 2036.33,1634.96 "/>
<polyline clip-path="url(#clip310)" style="stroke:#000000; stroke-linecap:round; stroke-linejoin:round; stroke-width:4; stroke-opacity:1; fill:none" points="2505.75,1653.86 2505.75,1634.96 "/>
<path clip-path="url(#clip310)" d="M611.278 1729.17 L611.278 1726.84 L634.586 1691.23 Q635.179 1690.3 636.105 1690.34 Q636.957 1690.34 637.143 1690.67 Q637.328 1691 637.328 1692.3 L637.328 1726.84 L644.924 1726.84 L644.924 1729.17 L637.328 1729.17 L637.328 1735.77 Q637.328 1737.95 638.217 1738.66 Q639.144 1739.36 643.071 1739.36 L644.665 1739.36 L644.665 1741.7 Q641.552 1741.47 634.363 1741.47 Q627.212 1741.47 624.099 1741.7 L624.099 1739.36 L625.693 1739.36 Q629.62 1739.36 630.547 1738.69 Q631.473 1737.99 631.473 1735.77 L631.473 1729.17 L611.278 1729.17 M613.427 1726.84 L631.918 1726.84 L631.918 1698.53 L613.427 1726.84 Z" fill="#000000" fill-rule="nonzero" fill-opacity="1" /><path clip-path="url(#clip310)" d="M1084.99 1698.38 L1084.99 1696.01 Q1094.1 1696.01 1098.81 1691.15 Q1100.11 1691.15 1100.33 1691.45 Q1100.55 1691.75 1100.55 1693.12 L1100.55 1735.69 Q1100.55 1737.95 1101.66 1738.66 Q1102.77 1739.36 1107.63 1739.36 L1110.04 1739.36 L1110.04 1741.7 Q1107.37 1741.47 1097.73 1741.47 Q1088.1 1741.47 1085.47 1741.7 L1085.47 1739.36 L1087.88 1739.36 Q1092.66 1739.36 1093.81 1738.69 Q1094.96 1737.99 1094.96 1735.69 L1094.96 1696.38 Q1090.99 1698.38 1084.99 1698.38 Z" fill="#000000" fill-rule="nonzero" fill-opacity="1" /><path clip-path="url(#clip310)" d="M1551.77 1729.47 Q1551.77 1727.21 1552.99 1726.35 Q1554.21 1725.47 1555.51 1725.47 Q1557.25 1725.47 1558.25 1726.58 Q1559.29 1727.65 1559.29 1729.17 Q1559.29 1730.69 1558.25 1731.8 Q1557.25 1732.88 1555.51 1732.88 Q1554.66 1732.88 1554.21 1732.73 Q1555.21 1736.21 1558.25 1738.73 Q1561.33 1741.25 1565.37 1741.25 Q1570.44 1741.25 1573.48 1736.32 Q1575.3 1733.14 1575.3 1725.91 Q1575.3 1719.54 1573.93 1716.35 Q1571.81 1711.5 1567.48 1711.5 Q1561.33 1711.5 1557.7 1716.79 Q1557.25 1717.46 1556.73 1717.5 Q1555.99 1717.5 1555.81 1717.09 Q1555.66 1716.65 1555.66 1715.5 L1555.66 1693.04 Q1555.66 1691.23 1556.4 1691.23 Q1556.7 1691.23 1557.33 1691.45 Q1562.11 1693.56 1567.4 1693.6 Q1572.85 1693.6 1577.74 1691.38 Q1578.11 1691.15 1578.34 1691.15 Q1579.08 1691.15 1579.11 1692 Q1579.11 1692.3 1578.48 1693.19 Q1577.89 1694.04 1576.59 1695.19 Q1575.3 1696.3 1573.63 1697.38 Q1571.96 1698.45 1569.52 1699.19 Q1567.11 1699.9 1564.44 1699.9 Q1561.25 1699.9 1557.99 1698.9 L1557.99 1713.68 Q1561.92 1709.83 1567.63 1709.83 Q1573.7 1709.83 1577.89 1714.72 Q1582.08 1719.61 1582.08 1726.43 Q1582.08 1733.58 1577.11 1738.47 Q1572.19 1743.36 1565.52 1743.36 Q1559.44 1743.36 1555.58 1739.03 Q1551.77 1734.69 1551.77 1729.47 Z" fill="#000000" fill-rule="nonzero" fill-opacity="1" /><path clip-path="url(#clip310)" d="M2021.18 1741.7 Q2021.18 1740.32 2021.29 1739.92 Q2021.44 1739.51 2022.03 1738.88 L2036.59 1722.65 Q2044.56 1713.68 2044.56 1705.86 Q2044.56 1700.79 2041.89 1697.16 Q2039.26 1693.52 2034.41 1693.52 Q2031.07 1693.52 2028.26 1695.56 Q2025.44 1697.6 2024.14 1701.23 Q2024.37 1701.16 2025.14 1701.16 Q2027.03 1701.16 2028.07 1702.34 Q2029.15 1703.53 2029.15 1705.12 Q2029.15 1707.16 2027.81 1708.16 Q2026.51 1709.12 2025.22 1709.12 Q2024.7 1709.12 2023.99 1709.01 Q2023.33 1708.9 2022.25 1707.86 Q2021.18 1706.79 2021.18 1704.9 Q2021.18 1699.6 2025.18 1695.38 Q2029.22 1691.15 2035.37 1691.15 Q2042.34 1691.15 2046.9 1695.3 Q2051.49 1699.42 2051.49 1705.86 Q2051.49 1708.12 2050.79 1710.2 Q2050.12 1712.24 2049.19 1713.83 Q2048.3 1715.42 2045.86 1717.98 Q2043.41 1720.54 2041.45 1722.35 Q2039.48 1724.17 2035.07 1728.02 L2027.03 1735.84 L2040.71 1735.84 Q2047.38 1735.84 2047.9 1735.25 Q2048.64 1734.17 2049.56 1728.5 L2051.49 1728.5 L2049.34 1741.7 L2021.18 1741.7 Z" fill="#000000" fill-rule="nonzero" fill-opacity="1" /><path clip-path="url(#clip310)" d="M2490 1731.47 Q2490 1729.21 2491.29 1728.13 Q2492.59 1727.06 2494.26 1727.06 Q2496 1727.06 2497.22 1728.21 Q2498.48 1729.32 2498.48 1731.28 Q2498.48 1733.4 2497 1734.58 Q2495.56 1735.77 2493.48 1735.47 Q2495.3 1738.51 2498.63 1739.88 Q2502 1741.25 2505.12 1741.25 Q2508.38 1741.25 2511.01 1738.43 Q2513.68 1735.62 2513.68 1728.73 Q2513.68 1722.87 2511.38 1719.5 Q2509.12 1716.13 2504.63 1716.13 L2501.3 1716.13 Q2500.15 1716.13 2499.82 1716.02 Q2499.48 1715.91 2499.48 1715.28 Q2499.48 1714.53 2500.63 1714.39 Q2501.78 1714.39 2503.6 1714.16 Q2508.01 1714.02 2510.34 1710.2 Q2512.45 1706.64 2512.45 1701.57 Q2512.45 1696.93 2510.23 1695.01 Q2508.04 1693.04 2505.19 1693.04 Q2502.52 1693.04 2499.59 1694.15 Q2496.67 1695.27 2495.07 1697.75 Q2499.78 1697.75 2499.78 1701.57 Q2499.78 1703.23 2498.7 1704.34 Q2497.67 1705.42 2495.93 1705.42 Q2494.26 1705.42 2493.15 1704.38 Q2492.04 1703.31 2492.04 1701.49 Q2492.04 1697.16 2495.89 1694.15 Q2499.78 1691.15 2505.49 1691.15 Q2511.12 1691.15 2515.27 1694.12 Q2519.46 1697.08 2519.46 1701.64 Q2519.46 1706.12 2516.49 1709.79 Q2513.53 1713.46 2508.82 1714.98 Q2514.6 1716.13 2518.05 1720.06 Q2521.49 1723.95 2521.49 1728.73 Q2521.49 1734.66 2516.82 1739.03 Q2512.16 1743.36 2505.34 1743.36 Q2499.04 1743.36 2494.52 1739.95 Q2490 1736.55 2490 1731.47 Z" fill="#000000" fill-rule="nonzero" fill-opacity="1" /><path clip-path="url(#clip310)" d="M1359.14 1849.26 Q1348.77 1838.54 1348.77 1823.18 Q1348.77 1807.76 1359.24 1797.09 Q1369.72 1786.42 1383.95 1786.42 Q1387.5 1786.42 1390.52 1787.26 Q1393.58 1788.05 1396 1789.68 Q1398.42 1791.26 1399.66 1792.35 Q1400.94 1793.38 1402.67 1795.11 L1407.76 1787.65 Q1408.55 1786.42 1409.34 1786.42 Q1410.18 1786.42 1410.33 1786.91 Q1410.48 1787.36 1410.48 1788.84 L1410.48 1812.85 Q1410.48 1814.48 1410.28 1814.87 Q1410.08 1815.27 1408.85 1815.27 Q1407.86 1815.27 1407.66 1814.97 Q1407.46 1814.68 1407.22 1813.54 Q1405.68 1802.62 1399.56 1796.1 Q1393.48 1789.58 1385.18 1789.58 Q1382.76 1789.58 1380.04 1790.12 Q1377.37 1790.67 1373.42 1792.74 Q1369.52 1794.82 1366.5 1798.22 Q1363.54 1801.58 1361.37 1808.11 Q1359.19 1814.58 1359.19 1823.18 Q1359.19 1831.67 1361.37 1838.19 Q1363.54 1844.72 1366.55 1848.13 Q1369.62 1851.49 1373.57 1853.61 Q1377.57 1855.73 1380.39 1856.33 Q1383.25 1856.87 1385.77 1856.87 Q1387.5 1856.87 1389.53 1856.52 Q1391.55 1856.13 1394.57 1855.04 Q1397.63 1853.91 1399.56 1851.24 Q1401.48 1848.57 1401.48 1844.62 L1401.48 1838.15 Q1401.48 1835.13 1400 1834.19 Q1398.52 1833.25 1392.05 1833.25 L1388.84 1833.25 L1388.84 1830.14 Q1392.49 1830.44 1405.09 1830.44 Q1406.23 1830.44 1417.44 1830.14 L1417.44 1833.25 Q1412.6 1833.25 1411.51 1834 Q1410.48 1834.69 1410.48 1837.7 L1410.48 1855.34 Q1410.48 1857.66 1409.59 1857.66 Q1408.8 1857.66 1406.43 1855.39 Q1404.1 1853.12 1403.07 1851.39 Q1400.64 1855.64 1395.36 1857.81 Q1390.12 1859.98 1384.14 1859.98 Q1369.57 1859.98 1359.14 1849.26 Z" fill="#000000" fill-rule="nonzero" fill-opacity="1" /><path clip-path="url(#clip310)" d="M1425.2 1835.48 Q1425.2 1825.94 1431.33 1819.17 Q1437.45 1812.4 1446.25 1812.4 Q1455.14 1812.4 1459.74 1818.18 Q1464.38 1823.97 1464.38 1832.27 Q1464.38 1833.8 1463.98 1834.09 Q1463.59 1834.39 1461.86 1834.39 L1433.6 1834.39 Q1433.6 1844.72 1436.66 1849.56 Q1440.91 1856.33 1448.08 1856.33 Q1449.06 1856.33 1450.25 1856.13 Q1451.44 1855.93 1453.86 1855.09 Q1456.28 1854.2 1458.4 1851.88 Q1460.53 1849.56 1461.76 1845.9 Q1462.06 1844.47 1463.05 1844.52 Q1464.38 1844.52 1464.38 1845.7 Q1464.38 1846.59 1463.39 1848.62 Q1462.45 1850.6 1460.62 1852.97 Q1458.8 1855.34 1455.24 1857.12 Q1451.73 1858.9 1447.48 1858.9 Q1438.59 1858.9 1431.87 1852.18 Q1425.2 1845.41 1425.2 1835.48 M1433.7 1832.27 L1457.71 1832.27 Q1457.71 1830.14 1457.31 1827.77 Q1456.97 1825.4 1455.88 1822.14 Q1454.84 1818.83 1452.37 1816.75 Q1449.9 1814.68 1446.25 1814.68 Q1444.62 1814.68 1442.84 1815.37 Q1441.11 1816.06 1438.98 1817.74 Q1436.86 1819.42 1435.38 1823.22 Q1433.9 1827.03 1433.7 1832.27 Z" fill="#000000" fill-rule="nonzero" fill-opacity="1" /><path clip-path="url(#clip310)" d="M1470.56 1857.76 L1470.56 1854.65 Q1475.94 1854.65 1477.18 1854 Q1478.41 1853.31 1478.41 1850.05 L1478.41 1822.93 Q1478.41 1819.17 1477.08 1818.23 Q1475.79 1817.3 1470.56 1817.3 L1470.56 1814.13 L1484.78 1813.05 L1484.78 1823.67 Q1489.53 1813.05 1499.75 1813.05 Q1507.36 1813.05 1510.38 1816.8 Q1512.6 1819.32 1513.05 1822.14 Q1513.54 1824.95 1513.54 1832.27 L1513.54 1851.58 Q1513.64 1853.71 1515.27 1854.2 Q1516.9 1854.65 1521.44 1854.65 L1521.44 1857.76 Q1511.12 1857.46 1510.08 1857.46 Q1509.29 1857.46 1498.67 1857.76 L1498.67 1854.65 Q1504.05 1854.65 1505.29 1854 Q1506.57 1853.31 1506.57 1850.05 L1506.57 1826.49 Q1506.57 1821.35 1504.99 1818.33 Q1503.41 1815.27 1499.06 1815.27 Q1493.83 1815.27 1489.63 1819.67 Q1485.43 1824.06 1485.43 1831.48 L1485.43 1850.05 Q1485.43 1853.31 1486.66 1854 Q1487.95 1854.65 1493.28 1854.65 L1493.28 1857.76 Q1482.96 1857.46 1481.97 1857.46 Q1481.18 1857.46 1470.56 1857.76 Z" fill="#000000" fill-rule="nonzero" fill-opacity="1" /><path clip-path="url(#clip310)" d="M1526.24 1835.48 Q1526.24 1825.94 1532.36 1819.17 Q1538.49 1812.4 1547.28 1812.4 Q1556.18 1812.4 1560.77 1818.18 Q1565.42 1823.97 1565.42 1832.27 Q1565.42 1833.8 1565.02 1834.09 Q1564.63 1834.39 1562.9 1834.39 L1534.64 1834.39 Q1534.64 1844.72 1537.7 1849.56 Q1541.95 1856.33 1549.11 1856.33 Q1550.1 1856.33 1551.29 1856.13 Q1552.47 1855.93 1554.89 1855.09 Q1557.31 1854.2 1559.44 1851.88 Q1561.56 1849.56 1562.8 1845.9 Q1563.09 1844.47 1564.08 1844.52 Q1565.42 1844.52 1565.42 1845.7 Q1565.42 1846.59 1564.43 1848.62 Q1563.49 1850.6 1561.66 1852.97 Q1559.83 1855.34 1556.28 1857.12 Q1552.77 1858.9 1548.52 1858.9 Q1539.63 1858.9 1532.91 1852.18 Q1526.24 1845.41 1526.24 1835.48 M1534.73 1832.27 L1558.75 1832.27 Q1558.75 1830.14 1558.35 1827.77 Q1558.01 1825.4 1556.92 1822.14 Q1555.88 1818.83 1553.41 1816.75 Q1550.94 1814.68 1547.28 1814.68 Q1545.65 1814.68 1543.88 1815.37 Q1542.15 1816.06 1540.02 1817.74 Q1537.9 1819.42 1536.41 1823.22 Q1534.93 1827.03 1534.73 1832.27 Z" fill="#000000" fill-rule="nonzero" fill-opacity="1" /><path clip-path="url(#clip310)" d="M1571.15 1857.76 L1571.15 1854.65 Q1576.53 1854.65 1577.77 1854 Q1579.05 1853.31 1579.05 1850.05 L1579.05 1822.93 Q1579.05 1819.17 1577.72 1818.23 Q1576.43 1817.3 1571.15 1817.3 L1571.15 1814.13 L1585.23 1813.05 L1585.23 1824.16 Q1586.66 1819.82 1589.68 1816.46 Q1592.74 1813.05 1597.68 1813.05 Q1600.94 1813.05 1603.01 1814.87 Q1605.14 1816.7 1605.14 1819.22 Q1605.14 1821.45 1603.76 1822.58 Q1602.42 1823.67 1600.79 1823.67 Q1598.96 1823.67 1597.68 1822.53 Q1596.44 1821.35 1596.44 1819.32 Q1596.44 1818.09 1596.99 1817.15 Q1597.58 1816.16 1598.02 1815.81 Q1598.47 1815.47 1598.77 1815.37 Q1598.57 1815.27 1597.68 1815.27 Q1592.1 1815.27 1588.88 1820.85 Q1585.72 1826.39 1585.72 1834.29 L1585.72 1849.85 Q1585.72 1852.77 1586.91 1853.71 Q1588.14 1854.65 1593.43 1854.65 L1595.55 1854.65 L1595.55 1857.76 Q1591.5 1857.46 1582.71 1857.46 Q1581.47 1857.46 1579.55 1857.51 Q1577.62 1857.56 1575.1 1857.66 Q1572.58 1857.76 1571.15 1857.76 Z" fill="#000000" fill-rule="nonzero" fill-opacity="1" /><path clip-path="url(#clip310)" d="M1612.11 1848.13 Q1612.11 1839.53 1622.23 1834.98 Q1628.31 1832.07 1640.86 1831.33 L1640.86 1827.62 Q1640.86 1821.35 1637.55 1818.04 Q1634.29 1814.68 1630.14 1814.68 Q1622.73 1814.68 1619.17 1819.32 Q1622.18 1819.42 1623.27 1820.95 Q1624.36 1822.43 1624.36 1823.97 Q1624.36 1825.99 1623.07 1827.33 Q1621.84 1828.61 1619.71 1828.61 Q1617.69 1828.61 1616.35 1827.37 Q1615.02 1826.09 1615.02 1823.87 Q1615.02 1818.93 1619.47 1815.67 Q1623.96 1812.4 1630.34 1812.4 Q1638.64 1812.4 1644.17 1817.99 Q1645.9 1819.72 1646.74 1821.94 Q1647.63 1824.16 1647.73 1825.65 Q1647.83 1827.08 1647.83 1829.94 L1647.83 1850.15 Q1647.83 1850.74 1648.02 1851.73 Q1648.22 1852.72 1649.11 1854 Q1650.05 1855.24 1651.58 1855.24 Q1655.24 1855.24 1655.19 1848.77 L1655.19 1843.09 L1657.76 1843.09 L1657.76 1848.77 Q1657.76 1854.15 1654.89 1856.28 Q1652.08 1858.35 1649.46 1858.35 Q1646.1 1858.35 1643.97 1855.88 Q1641.85 1853.41 1641.55 1850.05 Q1640.02 1853.91 1636.51 1856.43 Q1633.05 1858.9 1628.31 1858.9 Q1624.66 1858.9 1621.2 1857.96 Q1617.79 1857.07 1614.92 1854.55 Q1612.11 1851.98 1612.11 1848.13 M1619.91 1848.03 Q1619.91 1851.78 1622.58 1854.2 Q1625.25 1856.62 1629 1856.62 Q1633.25 1856.62 1637.06 1853.36 Q1640.86 1850.05 1640.86 1843.58 L1640.86 1833.45 Q1629.65 1833.85 1624.75 1838.34 Q1619.91 1842.79 1619.91 1848.03 Z" fill="#000000" fill-rule="nonzero" fill-opacity="1" /><path clip-path="url(#clip310)" d="M1660.38 1817.3 L1660.38 1815.07 Q1665.02 1814.87 1668.08 1811.61 Q1671.2 1808.3 1672.23 1804.25 Q1673.32 1800.2 1673.42 1795.51 L1675.94 1795.51 L1675.94 1814.13 L1690.42 1814.13 L1690.42 1817.3 L1675.94 1817.3 L1675.94 1845.41 Q1675.94 1856.33 1682.76 1856.33 Q1685.67 1856.33 1687.6 1853.36 Q1689.53 1850.35 1689.53 1845.01 L1689.53 1839.43 L1692.05 1839.43 L1692.05 1845.21 Q1692.05 1850.69 1689.53 1854.8 Q1687.01 1858.9 1682.02 1858.9 Q1680.19 1858.9 1678.36 1858.4 Q1676.58 1857.96 1674.21 1856.77 Q1671.89 1855.54 1670.41 1852.57 Q1668.97 1849.56 1668.97 1845.21 L1668.97 1817.3 L1660.38 1817.3 Z" fill="#000000" fill-rule="nonzero" fill-opacity="1" /><path clip-path="url(#clip310)" d="M1707.16 1852.33 Q1700.49 1845.7 1700.49 1836.12 Q1700.49 1826.49 1707.02 1819.47 Q1713.59 1812.4 1722.97 1812.4 Q1732.16 1812.4 1738.74 1819.42 Q1745.36 1826.39 1745.36 1836.12 Q1745.36 1845.66 1738.69 1852.28 Q1732.07 1858.9 1722.88 1858.9 Q1713.88 1858.9 1707.16 1852.33 M1708.89 1835.28 Q1708.89 1845.11 1711.46 1849.56 Q1715.42 1856.33 1722.97 1856.33 Q1726.73 1856.33 1729.84 1854.3 Q1733 1852.28 1734.73 1848.87 Q1736.96 1844.42 1736.96 1835.28 Q1736.96 1825.55 1734.29 1821.25 Q1730.34 1814.68 1722.88 1814.68 Q1719.61 1814.68 1716.4 1816.41 Q1713.24 1818.09 1711.31 1821.45 Q1708.89 1825.89 1708.89 1835.28 Z" fill="#000000" fill-rule="nonzero" fill-opacity="1" /><path clip-path="url(#clip310)" d="M1751.09 1857.76 L1751.09 1854.65 Q1756.47 1854.65 1757.71 1854 Q1758.99 1853.31 1758.99 1850.05 L1758.99 1822.93 Q1758.99 1819.17 1757.66 1818.23 Q1756.37 1817.3 1751.09 1817.3 L1751.09 1814.13 L1765.17 1813.05 L1765.17 1824.16 Q1766.6 1819.82 1769.61 1816.46 Q1772.68 1813.05 1777.62 1813.05 Q1780.88 1813.05 1782.95 1814.87 Q1785.08 1816.7 1785.08 1819.22 Q1785.08 1821.45 1783.7 1822.58 Q1782.36 1823.67 1780.73 1823.67 Q1778.9 1823.67 1777.62 1822.53 Q1776.38 1821.35 1776.38 1819.32 Q1776.38 1818.09 1776.93 1817.15 Q1777.52 1816.16 1777.96 1815.81 Q1778.41 1815.47 1778.71 1815.37 Q1778.51 1815.27 1777.62 1815.27 Q1772.04 1815.27 1768.82 1820.85 Q1765.66 1826.39 1765.66 1834.29 L1765.66 1849.85 Q1765.66 1852.77 1766.85 1853.71 Q1768.08 1854.65 1773.37 1854.65 L1775.49 1854.65 L1775.49 1857.76 Q1771.44 1857.46 1762.65 1857.46 Q1761.41 1857.46 1759.49 1857.51 Q1757.56 1857.56 1755.04 1857.66 Q1752.52 1857.76 1751.09 1857.76 Z" fill="#000000" fill-rule="nonzero" fill-opacity="1" /><polyline clip-path="url(#clip312)" style="stroke:#000000; stroke-linecap:round; stroke-linejoin:round; stroke-width:2; stroke-opacity:0.1; fill:none" points="301.091,1653.86 2832.76,1653.86 "/>
<polyline clip-path="url(#clip312)" style="stroke:#000000; stroke-linecap:round; stroke-linejoin:round; stroke-width:2; stroke-opacity:0.1; fill:none" points="301.091,1362.58 2832.76,1362.58 "/>
<polyline clip-path="url(#clip312)" style="stroke:#000000; stroke-linecap:round; stroke-linejoin:round; stroke-width:2; stroke-opacity:0.1; fill:none" points="301.091,1071.3 2832.76,1071.3 "/>
<polyline clip-path="url(#clip312)" style="stroke:#000000; stroke-linecap:round; stroke-linejoin:round; stroke-width:2; stroke-opacity:0.1; fill:none" points="301.091,780.023 2832.76,780.023 "/>
<polyline clip-path="url(#clip312)" style="stroke:#000000; stroke-linecap:round; stroke-linejoin:round; stroke-width:2; stroke-opacity:0.1; fill:none" points="301.091,488.746 2832.76,488.746 "/>
<polyline clip-path="url(#clip312)" style="stroke:#000000; stroke-linecap:round; stroke-linejoin:round; stroke-width:2; stroke-opacity:0.1; fill:none" points="301.091,197.468 2832.76,197.468 "/>
<polyline clip-path="url(#clip310)" style="stroke:#000000; stroke-linecap:round; stroke-linejoin:round; stroke-width:4; stroke-opacity:1; fill:none" points="301.091,1653.86 301.091,149.392 "/>
<polyline clip-path="url(#clip310)" style="stroke:#000000; stroke-linecap:round; stroke-linejoin:round; stroke-width:4; stroke-opacity:1; fill:none" points="2832.76,1653.86 2832.76,149.392 "/>
<polyline clip-path="url(#clip310)" style="stroke:#000000; stroke-linecap:round; stroke-linejoin:round; stroke-width:4; stroke-opacity:1; fill:none" points="301.091,1653.86 319.988,1653.86 "/>
<polyline clip-path="url(#clip310)" style="stroke:#000000; stroke-linecap:round; stroke-linejoin:round; stroke-width:4; stroke-opacity:1; fill:none" points="301.091,1362.58 319.988,1362.58 "/>
<polyline clip-path="url(#clip310)" style="stroke:#000000; stroke-linecap:round; stroke-linejoin:round; stroke-width:4; stroke-opacity:1; fill:none" points="301.091,1071.3 319.988,1071.3 "/>
<polyline clip-path="url(#clip310)" style="stroke:#000000; stroke-linecap:round; stroke-linejoin:round; stroke-width:4; stroke-opacity:1; fill:none" points="301.091,780.023 319.988,780.023 "/>
<polyline clip-path="url(#clip310)" style="stroke:#000000; stroke-linecap:round; stroke-linejoin:round; stroke-width:4; stroke-opacity:1; fill:none" points="301.091,488.746 319.988,488.746 "/>
<polyline clip-path="url(#clip310)" style="stroke:#000000; stroke-linecap:round; stroke-linejoin:round; stroke-width:4; stroke-opacity:1; fill:none" points="301.091,197.468 319.988,197.468 "/>
<path clip-path="url(#clip310)" d="M225.949 1655.5 Q225.949 1644.35 228.765 1638.27 Q232.693 1629.23 241.957 1629.23 Q243.921 1629.23 245.959 1629.79 Q248.034 1630.31 250.628 1632.35 Q253.259 1634.38 254.852 1637.72 Q257.891 1644.17 257.891 1655.5 Q257.891 1666.58 255.074 1672.62 Q250.961 1681.44 241.883 1681.44 Q238.474 1681.44 234.991 1679.7 Q231.544 1677.96 229.358 1673.77 Q225.949 1667.51 225.949 1655.5 M232.249 1654.58 Q232.249 1666.03 233.064 1670.59 Q233.99 1675.51 236.51 1677.66 Q239.067 1679.78 241.883 1679.78 Q244.921 1679.78 247.441 1677.52 Q249.998 1675.22 250.776 1670.29 Q251.628 1665.44 251.591 1654.58 Q251.591 1644.02 250.85 1639.79 Q249.85 1634.87 247.182 1632.9 Q244.551 1630.9 241.883 1630.9 Q240.882 1630.9 239.808 1631.2 Q238.77 1631.49 237.251 1632.35 Q235.732 1633.2 234.546 1635.31 Q233.397 1637.42 232.841 1640.61 Q232.249 1644.72 232.249 1654.58 Z" fill="#000000" fill-rule="nonzero" fill-opacity="1" /><path clip-path="url(#clip310)" d="M153.84 1345.18 L153.84 1342.81 Q162.956 1342.81 167.662 1337.96 Q168.959 1337.96 169.181 1338.25 Q169.403 1338.55 169.403 1339.92 L169.403 1382.5 Q169.403 1384.76 170.515 1385.46 Q171.626 1386.16 176.481 1386.16 L178.889 1386.16 L178.889 1388.5 Q176.221 1388.28 166.587 1388.28 Q156.953 1388.28 154.322 1388.5 L154.322 1386.16 L156.73 1386.16 Q161.51 1386.16 162.659 1385.5 Q163.808 1384.79 163.808 1382.5 L163.808 1343.18 Q159.843 1345.18 153.84 1345.18 Z" fill="#000000" fill-rule="nonzero" fill-opacity="1" /><path clip-path="url(#clip310)" d="M188.005 1364.23 Q188.005 1353.07 190.821 1347 Q194.749 1337.96 204.013 1337.96 Q205.977 1337.96 208.015 1338.51 Q210.09 1339.03 212.683 1341.07 Q215.314 1343.11 216.908 1346.44 Q219.946 1352.89 219.946 1364.23 Q219.946 1375.31 217.13 1381.35 Q213.017 1390.17 203.938 1390.17 Q200.529 1390.17 197.046 1388.42 Q193.6 1386.68 191.414 1382.5 Q188.005 1376.23 188.005 1364.23 M194.304 1363.3 Q194.304 1374.75 195.119 1379.31 Q196.046 1384.24 198.566 1386.39 Q201.122 1388.5 203.938 1388.5 Q206.977 1388.5 209.497 1386.24 Q212.054 1383.94 212.832 1379.01 Q213.684 1374.16 213.647 1363.3 Q213.647 1352.74 212.906 1348.52 Q211.905 1343.59 209.237 1341.62 Q206.606 1339.62 203.938 1339.62 Q202.938 1339.62 201.863 1339.92 Q200.826 1340.22 199.307 1341.07 Q197.787 1341.92 196.602 1344.03 Q195.453 1346.14 194.897 1349.33 Q194.304 1353.44 194.304 1363.3 Z" fill="#000000" fill-rule="nonzero" fill-opacity="1" /><path clip-path="url(#clip310)" d="M225.949 1364.23 Q225.949 1353.07 228.765 1347 Q232.693 1337.96 241.957 1337.96 Q243.921 1337.96 245.959 1338.51 Q248.034 1339.03 250.628 1341.07 Q253.259 1343.11 254.852 1346.44 Q257.891 1352.89 257.891 1364.23 Q257.891 1375.31 255.074 1381.35 Q250.961 1390.17 241.883 1390.17 Q238.474 1390.17 234.991 1388.42 Q231.544 1386.68 229.358 1382.5 Q225.949 1376.23 225.949 1364.23 M232.249 1363.3 Q232.249 1374.75 233.064 1379.31 Q233.99 1384.24 236.51 1386.39 Q239.067 1388.5 241.883 1388.5 Q244.921 1388.5 247.441 1386.24 Q249.998 1383.94 250.776 1379.01 Q251.628 1374.16 251.591 1363.3 Q251.591 1352.74 250.85 1348.52 Q249.85 1343.59 247.182 1341.62 Q244.551 1339.62 241.883 1339.62 Q240.882 1339.62 239.808 1339.92 Q238.77 1340.22 237.251 1341.07 Q235.732 1341.92 234.546 1344.03 Q233.397 1346.14 232.841 1349.33 Q232.249 1353.44 232.249 1363.3 Z" fill="#000000" fill-rule="nonzero" fill-opacity="1" /><path clip-path="url(#clip310)" d="M150.876 1097.22 Q150.876 1095.85 150.987 1095.44 Q151.135 1095.03 151.728 1094.4 L166.291 1078.17 Q174.257 1069.21 174.257 1061.39 Q174.257 1056.31 171.589 1052.68 Q168.959 1049.05 164.104 1049.05 Q160.769 1049.05 157.953 1051.09 Q155.137 1053.13 153.84 1056.76 Q154.062 1056.68 154.841 1056.68 Q156.73 1056.68 157.768 1057.87 Q158.842 1059.05 158.842 1060.65 Q158.842 1062.69 157.509 1063.69 Q156.212 1064.65 154.915 1064.65 Q154.396 1064.65 153.692 1064.54 Q153.025 1064.43 151.95 1063.39 Q150.876 1062.31 150.876 1060.42 Q150.876 1055.13 154.878 1050.9 Q158.917 1046.68 165.068 1046.68 Q172.034 1046.68 176.592 1050.83 Q181.187 1054.94 181.187 1061.39 Q181.187 1063.65 180.483 1065.72 Q179.816 1067.76 178.889 1069.36 Q178 1070.95 175.554 1073.51 Q173.109 1076.06 171.145 1077.88 Q169.181 1079.69 164.771 1083.55 L156.73 1091.37 L170.404 1091.37 Q177.074 1091.37 177.592 1090.77 Q178.333 1089.7 179.26 1084.03 L181.187 1084.03 L179.037 1097.22 L150.876 1097.22 Z" fill="#000000" fill-rule="nonzero" fill-opacity="1" /><path clip-path="url(#clip310)" d="M188.005 1072.95 Q188.005 1061.8 190.821 1055.72 Q194.749 1046.68 204.013 1046.68 Q205.977 1046.68 208.015 1047.23 Q210.09 1047.75 212.683 1049.79 Q215.314 1051.83 216.908 1055.16 Q219.946 1061.61 219.946 1072.95 Q219.946 1084.03 217.13 1090.07 Q213.017 1098.89 203.938 1098.89 Q200.529 1098.89 197.046 1097.15 Q193.6 1095.4 191.414 1091.22 Q188.005 1084.96 188.005 1072.95 M194.304 1072.02 Q194.304 1083.47 195.119 1088.03 Q196.046 1092.96 198.566 1095.11 Q201.122 1097.22 203.938 1097.22 Q206.977 1097.22 209.497 1094.96 Q212.054 1092.66 212.832 1087.73 Q213.684 1082.88 213.647 1072.02 Q213.647 1061.46 212.906 1057.24 Q211.905 1052.31 209.237 1050.35 Q206.606 1048.35 203.938 1048.35 Q202.938 1048.35 201.863 1048.64 Q200.826 1048.94 199.307 1049.79 Q197.787 1050.64 196.602 1052.75 Q195.453 1054.87 194.897 1058.05 Q194.304 1062.17 194.304 1072.02 Z" fill="#000000" fill-rule="nonzero" fill-opacity="1" /><path clip-path="url(#clip310)" d="M225.949 1072.95 Q225.949 1061.8 228.765 1055.72 Q232.693 1046.68 241.957 1046.68 Q243.921 1046.68 245.959 1047.23 Q248.034 1047.75 250.628 1049.79 Q253.259 1051.83 254.852 1055.16 Q257.891 1061.61 257.891 1072.95 Q257.891 1084.03 255.074 1090.07 Q250.961 1098.89 241.883 1098.89 Q238.474 1098.89 234.991 1097.15 Q231.544 1095.4 229.358 1091.22 Q225.949 1084.96 225.949 1072.95 M232.249 1072.02 Q232.249 1083.47 233.064 1088.03 Q233.99 1092.96 236.51 1095.11 Q239.067 1097.22 241.883 1097.22 Q244.921 1097.22 247.441 1094.96 Q249.998 1092.66 250.776 1087.73 Q251.628 1082.88 251.591 1072.02 Q251.591 1061.46 250.85 1057.24 Q249.85 1052.31 247.182 1050.35 Q244.551 1048.35 241.883 1048.35 Q240.882 1048.35 239.808 1048.64 Q238.77 1048.94 237.251 1049.79 Q235.732 1050.64 234.546 1052.75 Q233.397 1054.87 232.841 1058.05 Q232.249 1062.17 232.249 1072.02 Z" fill="#000000" fill-rule="nonzero" fill-opacity="1" /><path clip-path="url(#clip310)" d="M150.283 795.716 Q150.283 793.456 151.58 792.381 Q152.877 791.306 154.544 791.306 Q156.286 791.306 157.509 792.455 Q158.768 793.567 158.768 795.531 Q158.768 797.643 157.286 798.829 Q155.841 800.014 153.766 799.718 Q155.582 802.756 158.917 804.127 Q162.289 805.498 165.401 805.498 Q168.662 805.498 171.293 802.682 Q173.961 799.866 173.961 792.974 Q173.961 787.119 171.664 783.747 Q169.403 780.375 164.92 780.375 L161.585 780.375 Q160.436 780.375 160.102 780.264 Q159.769 780.153 159.769 779.523 Q159.769 778.782 160.918 778.634 Q162.066 778.634 163.882 778.411 Q168.292 778.263 170.626 774.446 Q172.738 770.889 172.738 765.812 Q172.738 761.181 170.515 759.254 Q168.329 757.29 165.475 757.29 Q162.807 757.29 159.88 758.401 Q156.953 759.513 155.359 761.996 Q160.065 761.996 160.065 765.812 Q160.065 767.48 158.991 768.592 Q157.953 769.666 156.212 769.666 Q154.544 769.666 153.432 768.629 Q152.321 767.554 152.321 765.738 Q152.321 761.403 156.175 758.401 Q160.065 755.4 165.772 755.4 Q171.404 755.4 175.554 758.364 Q179.742 761.329 179.742 765.887 Q179.742 770.37 176.777 774.039 Q173.813 777.707 169.107 779.226 Q174.887 780.375 178.333 784.303 Q181.78 788.194 181.78 792.974 Q181.78 798.903 177.111 803.275 Q172.442 807.611 165.624 807.611 Q159.324 807.611 154.803 804.201 Q150.283 800.792 150.283 795.716 Z" fill="#000000" fill-rule="nonzero" fill-opacity="1" /><path clip-path="url(#clip310)" d="M188.005 781.672 Q188.005 770.518 190.821 764.441 Q194.749 755.4 204.013 755.4 Q205.977 755.4 208.015 755.956 Q210.09 756.475 212.683 758.513 Q215.314 760.551 216.908 763.886 Q219.946 770.333 219.946 781.672 Q219.946 792.751 217.13 798.791 Q213.017 807.611 203.938 807.611 Q200.529 807.611 197.046 805.869 Q193.6 804.127 191.414 799.94 Q188.005 793.678 188.005 781.672 M194.304 780.746 Q194.304 792.196 195.119 796.753 Q196.046 801.682 198.566 803.831 Q201.122 805.943 203.938 805.943 Q206.977 805.943 209.497 803.683 Q212.054 801.385 212.832 796.457 Q213.684 791.603 213.647 780.746 Q213.647 770.185 212.906 765.961 Q211.905 761.032 209.237 759.068 Q206.606 757.067 203.938 757.067 Q202.938 757.067 201.863 757.364 Q200.826 757.66 199.307 758.513 Q197.787 759.365 196.602 761.477 Q195.453 763.589 194.897 766.776 Q194.304 770.889 194.304 780.746 Z" fill="#000000" fill-rule="nonzero" fill-opacity="1" /><path clip-path="url(#clip310)" d="M225.949 781.672 Q225.949 770.518 228.765 764.441 Q232.693 755.4 241.957 755.4 Q243.921 755.4 245.959 755.956 Q248.034 756.475 250.628 758.513 Q253.259 760.551 254.852 763.886 Q257.891 770.333 257.891 781.672 Q257.891 792.751 255.074 798.791 Q250.961 807.611 241.883 807.611 Q238.474 807.611 234.991 805.869 Q231.544 804.127 229.358 799.94 Q225.949 793.678 225.949 781.672 M232.249 780.746 Q232.249 792.196 233.064 796.753 Q233.99 801.682 236.51 803.831 Q239.067 805.943 241.883 805.943 Q244.921 805.943 247.441 803.683 Q249.998 801.385 250.776 796.457 Q251.628 791.603 251.591 780.746 Q251.591 770.185 250.85 765.961 Q249.85 761.032 247.182 759.068 Q244.551 757.067 241.883 757.067 Q240.882 757.067 239.808 757.364 Q238.77 757.66 237.251 758.513 Q235.732 759.365 234.546 761.477 Q233.397 763.589 232.841 766.776 Q232.249 770.889 232.249 780.746 Z" fill="#000000" fill-rule="nonzero" fill-opacity="1" /><path clip-path="url(#clip310)" d="M149.208 502.141 L149.208 499.806 L172.516 464.197 Q173.109 463.27 174.035 463.307 Q174.887 463.307 175.073 463.641 Q175.258 463.974 175.258 465.271 L175.258 499.806 L182.854 499.806 L182.854 502.141 L175.258 502.141 L175.258 508.737 Q175.258 510.923 176.147 511.627 Q177.074 512.331 181.001 512.331 L182.595 512.331 L182.595 514.666 Q179.482 514.443 172.293 514.443 Q165.142 514.443 162.029 514.666 L162.029 512.331 L163.623 512.331 Q167.55 512.331 168.477 511.664 Q169.403 510.96 169.403 508.737 L169.403 502.141 L149.208 502.141 M151.357 499.806 L169.848 499.806 L169.848 471.496 L151.357 499.806 Z" fill="#000000" fill-rule="nonzero" fill-opacity="1" /><path clip-path="url(#clip310)" d="M188.005 490.394 Q188.005 479.241 190.821 473.164 Q194.749 464.122 204.013 464.122 Q205.977 464.122 208.015 464.678 Q210.09 465.197 212.683 467.235 Q215.314 469.273 216.908 472.608 Q219.946 479.056 219.946 490.394 Q219.946 501.474 217.13 507.514 Q213.017 516.333 203.938 516.333 Q200.529 516.333 197.046 514.591 Q193.6 512.85 191.414 508.663 Q188.005 502.4 188.005 490.394 M194.304 489.468 Q194.304 500.918 195.119 505.476 Q196.046 510.404 198.566 512.553 Q201.122 514.666 203.938 514.666 Q206.977 514.666 209.497 512.405 Q212.054 510.108 212.832 505.179 Q213.684 500.325 213.647 489.468 Q213.647 478.907 212.906 474.683 Q211.905 469.755 209.237 467.791 Q206.606 465.79 203.938 465.79 Q202.938 465.79 201.863 466.086 Q200.826 466.383 199.307 467.235 Q197.787 468.087 196.602 470.199 Q195.453 472.312 194.897 475.498 Q194.304 479.611 194.304 489.468 Z" fill="#000000" fill-rule="nonzero" fill-opacity="1" /><path clip-path="url(#clip310)" d="M225.949 490.394 Q225.949 479.241 228.765 473.164 Q232.693 464.122 241.957 464.122 Q243.921 464.122 245.959 464.678 Q248.034 465.197 250.628 467.235 Q253.259 469.273 254.852 472.608 Q257.891 479.056 257.891 490.394 Q257.891 501.474 255.074 507.514 Q250.961 516.333 241.883 516.333 Q238.474 516.333 234.991 514.591 Q231.544 512.85 229.358 508.663 Q225.949 502.4 225.949 490.394 M232.249 489.468 Q232.249 500.918 233.064 505.476 Q233.99 510.404 236.51 512.553 Q239.067 514.666 241.883 514.666 Q244.921 514.666 247.441 512.405 Q249.998 510.108 250.776 505.179 Q251.628 500.325 251.591 489.468 Q251.591 478.907 250.85 474.683 Q249.85 469.755 247.182 467.791 Q244.551 465.79 241.883 465.79 Q240.882 465.79 239.808 466.086 Q238.77 466.383 237.251 467.235 Q235.732 468.087 234.546 470.199 Q233.397 472.312 232.841 475.498 Q232.249 479.611 232.249 489.468 Z" fill="#000000" fill-rule="nonzero" fill-opacity="1" /><path clip-path="url(#clip310)" d="M150.876 211.16 Q150.876 208.899 152.098 208.047 Q153.321 207.158 154.618 207.158 Q156.36 207.158 157.36 208.269 Q158.398 209.344 158.398 210.863 Q158.398 212.383 157.36 213.494 Q156.36 214.569 154.618 214.569 Q153.766 214.569 153.321 214.421 Q154.322 217.904 157.36 220.424 Q160.436 222.943 164.475 222.943 Q169.551 222.943 172.59 218.015 Q174.406 214.828 174.406 207.603 Q174.406 201.229 173.035 198.042 Q170.922 193.188 166.587 193.188 Q160.436 193.188 156.804 198.487 Q156.36 199.154 155.841 199.191 Q155.1 199.191 154.915 198.783 Q154.766 198.339 154.766 197.19 L154.766 174.735 Q154.766 172.919 155.508 172.919 Q155.804 172.919 156.434 173.141 Q161.214 175.253 166.513 175.291 Q171.96 175.291 176.851 173.067 Q177.222 172.845 177.444 172.845 Q178.185 172.845 178.222 173.697 Q178.222 173.994 177.592 174.883 Q176.999 175.735 175.703 176.884 Q174.406 177.996 172.738 179.07 Q171.071 180.145 168.625 180.886 Q166.216 181.59 163.548 181.59 Q160.362 181.59 157.101 180.589 L157.101 195.374 Q161.029 191.521 166.735 191.521 Q172.812 191.521 176.999 196.412 Q181.187 201.303 181.187 208.121 Q181.187 215.273 176.221 220.164 Q171.293 225.055 164.623 225.055 Q158.546 225.055 154.692 220.72 Q150.876 216.385 150.876 211.16 Z" fill="#000000" fill-rule="nonzero" fill-opacity="1" /><path clip-path="url(#clip310)" d="M188.005 199.117 Q188.005 187.963 190.821 181.886 Q194.749 172.845 204.013 172.845 Q205.977 172.845 208.015 173.401 Q210.09 173.919 212.683 175.958 Q215.314 177.996 216.908 181.33 Q219.946 187.778 219.946 199.117 Q219.946 210.196 217.13 216.236 Q213.017 225.055 203.938 225.055 Q200.529 225.055 197.046 223.314 Q193.6 221.572 191.414 217.385 Q188.005 211.123 188.005 199.117 M194.304 198.191 Q194.304 209.641 195.119 214.198 Q196.046 219.127 198.566 221.276 Q201.122 223.388 203.938 223.388 Q206.977 223.388 209.497 221.128 Q212.054 218.83 212.832 213.902 Q213.684 209.048 213.647 198.191 Q213.647 187.63 212.906 183.406 Q211.905 178.477 209.237 176.513 Q206.606 174.512 203.938 174.512 Q202.938 174.512 201.863 174.809 Q200.826 175.105 199.307 175.958 Q197.787 176.81 196.602 178.922 Q195.453 181.034 194.897 184.221 Q194.304 188.334 194.304 198.191 Z" fill="#000000" fill-rule="nonzero" fill-opacity="1" /><path clip-path="url(#clip310)" d="M225.949 199.117 Q225.949 187.963 228.765 181.886 Q232.693 172.845 241.957 172.845 Q243.921 172.845 245.959 173.401 Q248.034 173.919 250.628 175.958 Q253.259 177.996 254.852 181.33 Q257.891 187.778 257.891 199.117 Q257.891 210.196 255.074 216.236 Q250.961 225.055 241.883 225.055 Q238.474 225.055 234.991 223.314 Q231.544 221.572 229.358 217.385 Q225.949 211.123 225.949 199.117 M232.249 198.191 Q232.249 209.641 233.064 214.198 Q233.99 219.127 236.51 221.276 Q239.067 223.388 241.883 223.388 Q244.921 223.388 247.441 221.128 Q249.998 218.83 250.776 213.902 Q251.628 209.048 251.591 198.191 Q251.591 187.63 250.85 183.406 Q249.85 178.477 247.182 176.513 Q244.551 174.512 241.883 174.512 Q240.882 174.512 239.808 174.809 Q238.77 175.105 237.251 175.958 Q235.732 176.81 234.546 178.922 Q233.397 181.034 232.841 184.221 Q232.249 188.334 232.249 198.191 Z" fill="#000000" fill-rule="nonzero" fill-opacity="1" /><path clip-path="url(#clip310)" d="M85.2722 1325.66 L82.1596 1325.66 Q81.9619 1316.67 75.3414 1314.34 L14.8676 1293.39 Q13.6324 1293 13.2372 1292.55 Q12.8419 1292.11 12.8419 1290.97 Q12.8419 1290.38 12.9408 1290.03 Q13.0396 1289.64 13.3854 1289.39 Q13.7313 1289.15 13.9289 1289.05 Q14.1265 1288.95 14.8676 1288.65 L78.1082 1266.81 Q80.628 1266.02 81.4185 1264.39 Q82.1596 1262.76 82.1596 1258.17 L82.1596 1256.39 L85.2722 1256.39 Q84.9757 1262.76 84.9757 1269.63 Q84.9757 1280.55 85.2722 1284.2 L82.1596 1284.2 Q82.1596 1275.81 79.0963 1275.81 Q78.8987 1275.81 77.6636 1276.1 L62.1993 1281.44 L62.1993 1306.44 L75.4403 1311.13 Q75.8355 1311.33 76.9719 1311.33 Q79.0963 1311.33 80.628 1309.35 Q82.1596 1307.38 82.1596 1303.72 L85.2722 1303.72 Q84.9757 1313.45 84.9757 1315.38 Q84.9757 1318.69 85.2722 1325.66 M59.0866 1305.35 L59.0866 1282.57 L26.1818 1293.99 L59.0866 1305.35 Z" fill="#000000" fill-rule="nonzero" fill-opacity="1" /><path clip-path="url(#clip310)" d="M79.7386 1245.96 Q73.0193 1252.39 63.4344 1252.39 Q53.8001 1252.39 46.8832 1246.06 Q39.9168 1239.74 39.9168 1230.45 Q39.9168 1224.27 42.8812 1219.63 Q45.7962 1214.99 50.7863 1214.99 Q53.0096 1214.99 54.2942 1216.32 Q55.5293 1217.6 55.5293 1219.63 Q55.5293 1221.75 54.2448 1223.04 Q52.9108 1224.27 50.8851 1224.27 Q49.9958 1224.27 49.1065 1223.98 Q48.2171 1223.68 47.2784 1222.59 Q46.3397 1221.46 46.1915 1219.53 Q42.486 1223.14 42.486 1230.15 Q42.486 1230.25 42.486 1230.35 Q42.486 1235.49 47.3278 1239.74 Q52.1697 1243.99 63.2368 1243.99 Q69.0174 1243.99 73.2664 1242.6 Q77.4659 1241.17 79.6398 1238.85 Q81.8137 1236.53 82.8513 1234.25 Q83.8394 1231.98 83.8394 1229.76 Q83.8394 1219.83 73.2169 1216.47 Q72.2288 1216.17 72.2288 1215.18 Q72.2288 1213.85 73.2169 1213.85 Q73.711 1213.85 74.9956 1214.24 Q76.2802 1214.64 78.3058 1215.88 Q80.3315 1217.11 82.1102 1218.89 Q83.8394 1220.62 85.124 1223.73 Q86.4085 1226.79 86.4085 1230.65 Q86.4085 1239.54 79.7386 1245.96 Z" fill="#000000" fill-rule="nonzero" fill-opacity="1" /><path clip-path="url(#clip310)" d="M44.8081 1209.01 L42.5848 1209.01 Q42.3872 1204.36 39.1263 1201.3 Q35.8161 1198.19 31.7647 1197.15 Q27.7134 1196.06 23.0197 1195.96 L23.0197 1193.44 L41.6461 1193.44 L41.6461 1178.97 L44.8081 1178.97 L44.8081 1193.44 L72.9205 1193.44 Q83.8394 1193.44 83.8394 1186.63 Q83.8394 1183.71 80.875 1181.78 Q77.8612 1179.86 72.5253 1179.86 L66.9423 1179.86 L66.9423 1177.34 L72.7229 1177.34 Q78.207 1177.34 82.3078 1179.86 Q86.4085 1182.38 86.4085 1187.37 Q86.4085 1189.2 85.9145 1191.02 Q85.4698 1192.8 84.2841 1195.17 Q83.0489 1197.5 80.0845 1198.98 Q77.0707 1200.41 72.7229 1200.41 L44.8081 1200.41 L44.8081 1209.01 Z" fill="#000000" fill-rule="nonzero" fill-opacity="1" /><path clip-path="url(#clip310)" d="M85.2722 1168.35 L82.1596 1168.35 Q82.1596 1162.96 81.5173 1161.73 Q80.8256 1160.49 77.5647 1160.49 L50.3416 1160.49 Q46.5867 1160.49 45.6974 1161.78 Q44.8081 1163.01 44.8081 1167.95 L41.6461 1167.95 L40.5591 1153.82 L77.6636 1153.82 Q80.6774 1153.82 81.4185 1152.73 Q82.1596 1151.65 82.1596 1146.71 L85.2722 1146.71 Q84.9757 1157.03 84.9757 1157.23 Q84.9757 1158.61 85.2722 1168.35 M22.9209 1164.1 Q20.8952 1164.1 19.2648 1162.57 Q17.585 1160.98 17.585 1158.76 Q17.585 1156.54 19.1166 1154.96 Q20.5988 1153.38 22.9703 1153.38 Q25.2924 1153.38 26.824 1154.96 Q28.3062 1156.54 28.3062 1158.76 Q28.3062 1161.08 26.6758 1162.61 Q25.0454 1164.1 22.9209 1164.1 Z" fill="#000000" fill-rule="nonzero" fill-opacity="1" /><path clip-path="url(#clip310)" d="M44.8081 1141.77 L41.6461 1141.77 Q41.9425 1137.22 41.9425 1131.93 Q41.9425 1130.01 41.6461 1120.92 L44.8081 1120.92 Q44.8081 1126.7 47.4266 1126.7 Q47.8219 1126.7 49.1559 1126.1 L77.3671 1114.74 L51.5768 1104.41 Q49.8476 1103.82 49.1559 1103.82 Q47.4266 1103.82 46.1915 1105.01 Q44.9069 1106.14 44.8081 1108.66 L41.6461 1108.66 Q41.9425 1103.52 41.9425 1099.87 Q41.9425 1095.72 41.6461 1092.31 L44.8081 1092.31 Q44.8081 1095.32 46.1915 1097.45 Q47.5255 1099.57 48.7112 1100.26 Q49.8476 1100.91 51.5768 1101.6 L84.4817 1114.84 Q86.4085 1115.63 86.4085 1116.96 Q86.4085 1117.85 86.0133 1118.25 Q85.6674 1118.59 84.4817 1119.09 L48.563 1133.66 Q46.0433 1134.65 45.4504 1135.94 Q44.8081 1137.22 44.8081 1141.77 Z" fill="#000000" fill-rule="nonzero" fill-opacity="1" /><path clip-path="url(#clip310)" d="M62.9898 1090.38 Q53.4543 1090.38 46.6855 1084.26 Q39.9168 1078.13 39.9168 1069.34 Q39.9168 1060.44 45.6974 1055.85 Q51.478 1051.2 59.7783 1051.2 Q61.3099 1051.2 61.6064 1051.6 Q61.9028 1051.99 61.9028 1053.72 L61.9028 1081.98 Q72.2288 1081.98 77.0707 1078.92 Q83.8394 1074.67 83.8394 1067.51 Q83.8394 1066.52 83.6418 1065.33 Q83.4441 1064.15 82.6042 1061.73 Q81.7149 1059.31 79.3928 1057.18 Q77.0707 1055.06 73.4146 1053.82 Q71.9818 1053.52 72.0312 1052.54 Q72.0312 1051.2 73.2169 1051.2 Q74.1063 1051.2 76.1319 1052.19 Q78.1082 1053.13 80.4797 1054.96 Q82.8513 1056.79 84.6299 1060.34 Q86.4085 1063.85 86.4085 1068.1 Q86.4085 1076.99 79.6892 1083.71 Q72.9205 1090.38 62.9898 1090.38 M59.7783 1081.88 L59.7783 1057.87 Q57.6538 1057.87 55.2823 1058.27 Q52.9108 1058.61 49.6499 1059.7 Q46.3397 1060.74 44.2646 1063.21 Q42.1895 1065.68 42.1895 1069.34 Q42.1895 1070.97 42.8812 1072.74 Q43.5729 1074.47 45.2527 1076.6 Q46.9326 1078.72 50.7369 1080.2 Q54.5412 1081.69 59.7783 1081.88 Z" fill="#000000" fill-rule="nonzero" fill-opacity="1" /><path clip-path="url(#clip310)" d="M101.774 1011.83 Q101.774 1006.44 101.082 1005.21 Q100.44 1003.92 97.2286 1003.92 L49.8476 1003.92 Q46.4879 1003.92 45.648 1005.21 Q44.8081 1006.44 44.8081 1011.83 L41.6461 1011.83 L40.5591 997.251 L47.229 997.251 Q40.5591 991.174 40.5591 983.071 Q40.5591 974.474 47.229 968.199 Q53.8989 961.925 63.4344 961.925 Q73.0687 961.925 79.7386 968.595 Q86.4085 975.265 86.4085 984.504 Q86.4085 989.543 83.8394 992.952 Q81.2208 996.312 79.294 996.954 L80.2327 996.954 L97.2286 996.954 Q100.489 996.954 101.132 995.67 Q101.774 994.385 101.774 989.049 L104.887 989.049 Q104.59 999.672 104.59 1000.46 Q104.59 1001.45 104.887 1011.83 L101.774 1011.83 M73.7604 996.954 Q75.292 996.954 75.8355 996.757 Q76.379 996.51 78.0094 995.521 Q84.1358 991.519 84.1358 984.998 Q84.1358 984.948 84.1358 984.899 Q84.1358 979.118 78.2564 974.721 Q72.3276 970.324 63.4344 970.324 Q54.9365 970.324 49.0077 974.326 Q43.0789 978.328 43.0789 983.861 Q43.0789 987.814 45.2033 991.272 Q47.3278 994.731 51.1816 996.954 L73.7604 996.954 Z" fill="#000000" fill-rule="nonzero" fill-opacity="1" /><path clip-path="url(#clip310)" d="M79.8374 946.214 Q73.2169 952.883 63.632 952.883 Q53.9977 952.883 46.982 946.362 Q39.9168 939.791 39.9168 930.403 Q39.9168 921.214 46.9326 914.643 Q53.8989 908.022 63.632 908.022 Q73.1675 908.022 79.788 914.692 Q86.4085 921.313 86.4085 930.502 Q86.4085 939.494 79.8374 946.214 M62.7921 944.484 Q72.6241 944.484 77.0707 941.915 Q83.8394 937.963 83.8394 930.403 Q83.8394 926.648 81.8137 923.536 Q79.788 920.374 76.379 918.645 Q71.9324 916.421 62.7921 916.421 Q53.059 916.421 48.7606 919.089 Q42.1895 923.042 42.1895 930.502 Q42.1895 933.763 43.9188 936.974 Q45.5986 940.136 48.9583 942.063 Q53.4049 944.484 62.7921 944.484 Z" fill="#000000" fill-rule="nonzero" fill-opacity="1" /><path clip-path="url(#clip310)" d="M44.8081 906.095 L41.6461 906.095 Q41.9425 900.611 41.9425 896.708 Q41.9425 894.781 41.6461 885.641 L44.8081 885.641 Q44.8081 891.619 47.5255 891.619 Q48.1183 891.619 49.3535 891.125 L76.379 881.491 L51.8732 872.795 Q46.9326 874.623 46.3397 875.117 Q44.8081 876.352 44.8081 881.491 L41.6461 881.491 Q41.9425 876.945 41.9425 872.499 Q41.9425 870.769 41.6461 861.975 L44.8081 861.975 Q44.8081 867.953 47.5255 867.953 Q47.9207 867.953 49.4523 867.459 L77.6636 857.43 L51.7744 848.24 Q50.4405 847.746 49.6499 847.697 Q47.4266 847.697 46.1915 849.278 Q44.9069 850.859 44.8081 853.576 L41.6461 853.576 Q41.9425 847.795 41.9425 844.189 Q41.9425 840.137 41.6461 836.778 L44.8081 836.778 Q45.0057 843.052 51.2804 845.276 L84.4817 857.133 Q86.3097 858.27 86.4085 859.159 Q86.4085 860.493 84.4817 861.185 L55.727 871.511 L84.3829 881.738 Q85.618 882.133 86.0133 882.479 Q86.4085 882.825 86.4085 883.763 Q86.4085 884.653 85.8651 885.048 Q85.371 885.443 84.1358 885.888 L48.316 898.635 Q45.9938 899.524 45.401 900.858 Q44.8081 902.143 44.8081 906.095 Z" fill="#000000" fill-rule="nonzero" fill-opacity="1" /><path clip-path="url(#clip310)" d="M62.9898 834.9 Q53.4543 834.9 46.6855 828.774 Q39.9168 822.647 39.9168 813.853 Q39.9168 804.96 45.6974 800.365 Q51.478 795.721 59.7783 795.721 Q61.3099 795.721 61.6064 796.116 Q61.9028 796.511 61.9028 798.24 L61.9028 826.501 Q72.2288 826.501 77.0707 823.438 Q83.8394 819.189 83.8394 812.025 Q83.8394 811.037 83.6418 809.851 Q83.4441 808.665 82.6042 806.244 Q81.7149 803.823 79.3928 801.699 Q77.0707 799.574 73.4146 798.339 Q71.9818 798.043 72.0312 797.055 Q72.0312 795.721 73.2169 795.721 Q74.1063 795.721 76.1319 796.709 Q78.1082 797.647 80.4797 799.476 Q82.8513 801.304 84.6299 804.861 Q86.4085 808.369 86.4085 812.618 Q86.4085 821.511 79.6892 828.23 Q72.9205 834.9 62.9898 834.9 M59.7783 826.402 L59.7783 802.391 Q57.6538 802.391 55.2823 802.786 Q52.9108 803.132 49.6499 804.219 Q46.3397 805.256 44.2646 807.726 Q42.1895 810.197 42.1895 813.853 Q42.1895 815.483 42.8812 817.262 Q43.5729 818.991 45.2527 821.116 Q46.9326 823.24 50.7369 824.722 Q54.5412 826.205 59.7783 826.402 Z" fill="#000000" fill-rule="nonzero" fill-opacity="1" /><path clip-path="url(#clip310)" d="M85.2722 789.989 L82.1596 789.989 Q82.1596 784.604 81.5173 783.369 Q80.8256 782.084 77.5647 782.084 L50.4405 782.084 Q46.6855 782.084 45.7468 783.418 Q44.8081 784.703 44.8081 789.989 L41.6461 789.989 L40.5591 775.909 L51.6756 775.909 Q47.3278 774.476 43.9682 771.462 Q40.5591 768.399 40.5591 763.458 Q40.5591 760.197 42.3872 758.122 Q44.2152 755.998 46.7349 755.998 Q48.9583 755.998 50.0946 757.381 Q51.1816 758.715 51.1816 760.345 Q51.1816 762.173 50.0452 763.458 Q48.8594 764.693 46.8338 764.693 Q45.5986 764.693 44.6599 764.15 Q43.6717 763.557 43.3259 763.112 Q42.98 762.668 42.8812 762.371 Q42.7824 762.569 42.7824 763.458 Q42.7824 769.041 48.3654 772.252 Q53.8989 775.414 61.804 775.414 L77.3671 775.414 Q80.2821 775.414 81.2208 774.229 Q82.1596 772.994 82.1596 767.707 L82.1596 765.583 L85.2722 765.583 Q84.9757 769.634 84.9757 778.428 Q84.9757 779.663 85.0252 781.59 Q85.0746 783.517 85.1734 786.037 Q85.2722 788.557 85.2722 789.989 Z" fill="#000000" fill-rule="nonzero" fill-opacity="1" /><path clip-path="url(#clip310)" d="M110.568 709.111 L9.38347 709.111 L9.38347 693.844 L11.7056 693.844 L11.7056 702.342 L108.246 702.342 L108.246 693.844 L110.568 693.844 L110.568 709.111 Z" fill="#000000" fill-rule="nonzero" fill-opacity="1" /><path clip-path="url(#clip310)" d="M85.2722 687.767 L82.1596 687.767 Q82.1596 684.111 81.4679 681.789 Q80.7268 679.467 79.3928 678.627 Q78.0094 677.737 77.1201 677.54 Q76.1814 677.342 74.6497 677.342 L24.0573 677.342 Q21.1423 677.342 20.2529 678.627 Q19.3142 679.862 19.3142 685.346 L19.3142 687.767 L16.1522 687.767 L16.1522 670.672 Q16.1522 668.844 16.498 668.35 Q16.7945 667.856 18.3755 667.115 L75.045 645.178 L18.0791 623.044 Q16.6463 622.55 16.3992 622.105 Q16.1522 621.611 16.1522 619.684 L16.1522 602.59 L19.3142 602.59 L19.3142 605.011 Q19.3142 610.495 20.2529 611.779 Q21.1423 613.015 24.0573 613.015 L77.3671 613.015 Q80.2821 613.015 81.2208 611.779 Q82.1596 610.495 82.1596 605.011 L82.1596 602.59 L85.2722 602.59 Q84.9757 606.345 84.9757 617.066 Q84.9757 627.886 85.2722 631.641 L82.1596 631.641 L82.1596 629.171 Q82.1596 623.686 81.2702 622.451 Q80.3315 621.216 77.3671 621.216 L19.3142 621.216 L19.3142 621.315 L83.3453 646.166 Q85.2722 646.858 85.2722 647.995 Q85.2722 649.23 83.0489 650.02 L20.1047 674.427 L20.1047 674.526 L74.6497 674.526 Q76.1814 674.526 77.1201 674.328 Q78.0094 674.131 79.3928 673.291 Q80.7268 672.401 81.4679 670.079 Q82.1596 667.757 82.1596 664.101 L85.2722 664.101 Q84.9757 674.724 84.9757 675.959 Q84.9757 677.145 85.2722 687.767 Z" fill="#000000" fill-rule="nonzero" fill-opacity="1" /><path clip-path="url(#clip310)" d="M19.3142 597.056 L16.1522 597.056 Q16.1522 595.623 16.251 593.054 Q16.3498 590.485 16.3992 588.459 Q16.4486 586.434 16.4486 584.705 Q16.4486 573.983 16.1522 570.327 L19.3142 570.327 Q19.3142 578.825 22.328 578.825 Q23.0197 578.825 23.662 578.628 L73.4146 562.373 L30.0355 548.292 L22.9209 550.515 Q20.4012 551.306 19.8577 553.035 Q19.3142 554.764 19.3142 559.606 L16.1522 559.606 Q16.1522 558.173 16.251 555.604 Q16.3498 553.035 16.3992 551.009 Q16.4486 548.983 16.4486 547.304 Q16.4486 536.582 16.1522 532.926 L19.3142 532.926 Q19.3142 541.424 22.328 541.424 Q22.6245 541.424 23.8596 541.128 L73.4146 524.922 L26.6758 509.755 Q25.1442 509.26 24.6501 509.211 Q22.8221 509.211 21.1423 511.336 Q19.413 513.46 19.3142 518.055 L16.1522 518.055 Q16.4486 510.15 16.4486 506 Q16.4486 501.355 16.1522 496.81 L19.3142 496.81 Q19.3142 504.814 26.0829 506.889 L85.4698 526.256 Q86.2603 526.454 86.6062 526.602 Q87.0014 526.75 87.2485 527.146 Q87.4955 527.541 87.4955 528.233 Q87.4955 529.567 85.5686 530.16 L34.0868 546.958 L85.4698 563.657 Q86.2603 563.855 86.6062 564.053 Q87.0014 564.201 87.2485 564.596 Q87.4955 564.991 87.4955 565.683 Q87.4955 567.017 85.5686 567.61 L23.5632 587.867 Q20.6482 588.756 20.0059 590.139 Q19.3142 591.473 19.3142 597.056 Z" fill="#000000" fill-rule="nonzero" fill-opacity="1" /><path clip-path="url(#clip310)" d="M108.246 492.857 L108.246 484.359 L11.7056 484.359 L11.7056 492.857 L9.38347 492.857 L9.38347 477.591 L110.568 477.591 L110.568 492.857 L108.246 492.857 Z" fill="#000000" fill-rule="nonzero" fill-opacity="1" /><path clip-path="url(#clip310)" d="M1042.47 93.0576 Q1029.5 79.656 1029.5 60.4491 Q1029.5 41.1805 1042.59 27.8407 Q1055.69 14.5009 1073.47 14.5009 Q1077.92 14.5009 1081.69 15.5508 Q1085.52 16.5389 1088.54 18.5769 Q1091.57 20.5532 1093.11 21.9119 Q1094.72 23.2088 1096.88 25.3704 L1103.24 16.0448 Q1104.23 14.5009 1105.22 14.5009 Q1106.27 14.5009 1106.45 15.1185 Q1106.64 15.6743 1106.64 17.527 L1106.64 47.5416 Q1106.64 49.5796 1106.39 50.0737 Q1106.14 50.5678 1104.6 50.5678 Q1103.36 50.5678 1103.12 50.1972 Q1102.87 49.8267 1102.56 48.4062 Q1100.65 34.7576 1092.99 26.6055 Q1085.39 18.4534 1075.02 18.4534 Q1071.99 18.4534 1068.59 19.1328 Q1065.26 19.8121 1060.32 22.4059 Q1055.44 24.9998 1051.67 29.2611 Q1047.97 33.4607 1045.25 41.6128 Q1042.53 49.7032 1042.53 60.4491 Q1042.53 71.0716 1045.25 79.2237 Q1047.97 87.3758 1051.73 91.6371 Q1055.56 95.8367 1060.5 98.4923 Q1065.51 101.148 1069.03 101.889 Q1072.61 102.568 1075.76 102.568 Q1077.92 102.568 1080.45 102.136 Q1082.98 101.642 1086.75 100.283 Q1090.58 98.8628 1092.99 95.5279 Q1095.4 92.1929 1095.4 87.2523 L1095.4 79.1619 Q1095.4 75.3947 1093.55 74.2212 Q1091.69 73.0478 1083.6 73.0478 L1079.59 73.0478 L1079.59 69.1571 Q1084.16 69.5276 1099.91 69.5276 Q1101.33 69.5276 1115.35 69.1571 L1115.35 73.0478 Q1109.29 73.0478 1107.93 73.9742 Q1106.64 74.8388 1106.64 78.6061 L1106.64 100.654 Q1106.64 103.556 1105.53 103.556 Q1104.54 103.556 1101.57 100.716 Q1098.67 97.8747 1097.37 95.7132 Q1094.35 101.024 1087.74 103.742 Q1081.19 106.459 1073.72 106.459 Q1055.5 106.459 1042.47 93.0576 Z" fill="#000000" fill-rule="nonzero" fill-opacity="1" /><path clip-path="url(#clip310)" d="M1125.04 75.827 Q1125.04 63.9076 1132.7 55.4467 Q1140.36 46.9858 1151.35 46.9858 Q1162.47 46.9858 1168.21 54.2115 Q1174.02 61.4373 1174.02 71.8127 Q1174.02 73.7272 1173.52 74.0977 Q1173.03 74.4683 1170.87 74.4683 L1135.54 74.4683 Q1135.54 87.3758 1139.37 93.4281 Q1144.68 101.889 1153.64 101.889 Q1154.87 101.889 1156.35 101.642 Q1157.84 101.395 1160.86 100.345 Q1163.89 99.2334 1166.54 96.3308 Q1169.2 93.4281 1170.74 88.858 Q1171.11 87.067 1172.35 87.1287 Q1174.02 87.1287 1174.02 88.611 Q1174.02 89.7226 1172.78 92.2547 Q1171.61 94.725 1169.32 97.6894 Q1167.04 100.654 1162.59 102.877 Q1158.21 105.1 1152.89 105.1 Q1141.78 105.1 1133.38 96.7013 Q1125.04 88.2404 1125.04 75.827 M1135.66 71.8127 L1165.68 71.8127 Q1165.68 69.1571 1165.18 66.1927 Q1164.75 63.2282 1163.39 59.1522 Q1162.1 55.0144 1159.01 52.4205 Q1155.92 49.8267 1151.35 49.8267 Q1149.31 49.8267 1147.09 50.6913 Q1144.93 51.5559 1142.27 53.6557 Q1139.62 55.7555 1137.76 60.5109 Q1135.91 65.2663 1135.66 71.8127 Z" fill="#000000" fill-rule="nonzero" fill-opacity="1" /><path clip-path="url(#clip310)" d="M1181.74 103.68 L1181.74 99.7892 Q1188.47 99.7892 1190.01 98.9864 Q1191.56 98.1217 1191.56 94.0457 L1191.56 60.1403 Q1191.56 55.4467 1189.89 54.2733 Q1188.28 53.0999 1181.74 53.0999 L1181.74 49.1473 L1199.52 47.7886 L1199.52 61.0667 Q1205.45 47.7886 1218.24 47.7886 Q1227.75 47.7886 1231.51 52.4823 Q1234.29 55.632 1234.85 59.1522 Q1235.47 62.6724 1235.47 71.8127 L1235.47 95.9602 Q1235.59 98.6158 1237.63 99.2334 Q1239.67 99.7892 1245.35 99.7892 L1245.35 103.68 Q1232.44 103.309 1231.14 103.309 Q1230.15 103.309 1216.88 103.68 L1216.88 99.7892 Q1223.61 99.7892 1225.15 98.9864 Q1226.76 98.1217 1226.76 94.0457 L1226.76 64.5869 Q1226.76 58.1641 1224.78 54.3968 Q1222.81 50.5678 1217.37 50.5678 Q1210.82 50.5678 1205.57 56.0643 Q1200.33 61.5608 1200.33 70.8245 L1200.33 94.0457 Q1200.33 98.1217 1201.87 98.9864 Q1203.48 99.7892 1210.14 99.7892 L1210.14 103.68 Q1197.24 103.309 1196 103.309 Q1195.01 103.309 1181.74 103.68 Z" fill="#000000" fill-rule="nonzero" fill-opacity="1" /><path clip-path="url(#clip310)" d="M1251.34 75.827 Q1251.34 63.9076 1259 55.4467 Q1266.65 46.9858 1277.65 46.9858 Q1288.76 46.9858 1294.51 54.2115 Q1300.31 61.4373 1300.31 71.8127 Q1300.31 73.7272 1299.82 74.0977 Q1299.32 74.4683 1297.16 74.4683 L1261.84 74.4683 Q1261.84 87.3758 1265.67 93.4281 Q1270.98 101.889 1279.93 101.889 Q1281.17 101.889 1282.65 101.642 Q1284.13 101.395 1287.16 100.345 Q1290.18 99.2334 1292.84 96.3308 Q1295.5 93.4281 1297.04 88.858 Q1297.41 87.067 1298.64 87.1287 Q1300.31 87.1287 1300.31 88.611 Q1300.31 89.7226 1299.08 92.2547 Q1297.9 94.725 1295.62 97.6894 Q1293.33 100.654 1288.89 102.877 Q1284.5 105.1 1279.19 105.1 Q1268.07 105.1 1259.68 96.7013 Q1251.34 88.2404 1251.34 75.827 M1261.96 71.8127 L1291.97 71.8127 Q1291.97 69.1571 1291.48 66.1927 Q1291.05 63.2282 1289.69 59.1522 Q1288.39 55.0144 1285.3 52.4205 Q1282.22 49.8267 1277.65 49.8267 Q1275.61 49.8267 1273.39 50.6913 Q1271.22 51.5559 1268.57 53.6557 Q1265.91 55.7555 1264.06 60.5109 Q1262.21 65.2663 1261.96 71.8127 Z" fill="#000000" fill-rule="nonzero" fill-opacity="1" /><path clip-path="url(#clip310)" d="M1307.48 103.68 L1307.48 99.7892 Q1314.21 99.7892 1315.75 98.9864 Q1317.36 98.1217 1317.36 94.0457 L1317.36 60.1403 Q1317.36 55.4467 1315.69 54.2733 Q1314.08 53.0999 1307.48 53.0999 L1307.48 49.1473 L1325.08 47.7886 L1325.08 61.6843 Q1326.87 56.2495 1330.64 52.05 Q1334.46 47.7886 1340.64 47.7886 Q1344.72 47.7886 1347.31 50.0737 Q1349.97 52.3588 1349.97 55.5084 Q1349.97 58.2876 1348.24 59.708 Q1346.57 61.0667 1344.53 61.0667 Q1342.25 61.0667 1340.64 59.6463 Q1339.1 58.1641 1339.1 55.632 Q1339.1 54.088 1339.78 52.9146 Q1340.52 51.6794 1341.07 51.2471 Q1341.63 50.8148 1342 50.6913 Q1341.75 50.5678 1340.64 50.5678 Q1333.66 50.5678 1329.65 57.5465 Q1325.69 64.4634 1325.69 74.3448 L1325.69 93.7987 Q1325.69 97.4424 1327.18 98.6158 Q1328.72 99.7892 1335.33 99.7892 L1337.98 99.7892 L1337.98 103.68 Q1332.92 103.309 1321.93 103.309 Q1320.38 103.309 1317.98 103.371 Q1315.57 103.433 1312.42 103.556 Q1309.27 103.68 1307.48 103.68 Z" fill="#000000" fill-rule="nonzero" fill-opacity="1" /><path clip-path="url(#clip310)" d="M1358.67 91.6371 Q1358.67 80.8912 1371.33 75.2094 Q1378.93 71.5656 1394.62 70.6393 L1394.62 66.0074 Q1394.62 58.1641 1390.48 54.0262 Q1386.4 49.8267 1381.22 49.8267 Q1371.95 49.8267 1367.51 55.632 Q1371.27 55.7555 1372.63 57.67 Q1373.99 59.5227 1373.99 61.4373 Q1373.99 63.9693 1372.38 65.6368 Q1370.84 67.2425 1368.18 67.2425 Q1365.65 67.2425 1363.99 65.6986 Q1362.32 64.0929 1362.32 61.3137 Q1362.32 55.1379 1367.88 51.0618 Q1373.5 46.9858 1381.46 46.9858 Q1391.84 46.9858 1398.76 53.9645 Q1400.92 56.126 1401.97 58.9052 Q1403.08 61.6843 1403.2 63.537 Q1403.33 65.328 1403.33 68.91 L1403.33 94.1692 Q1403.33 94.9103 1403.57 96.1455 Q1403.82 97.3806 1404.93 98.9864 Q1406.1 100.53 1408.02 100.53 Q1412.59 100.53 1412.53 92.44 L1412.53 85.3378 L1415.74 85.3378 L1415.74 92.44 Q1415.74 99.1716 1412.16 101.827 Q1408.64 104.421 1405.36 104.421 Q1401.16 104.421 1398.51 101.333 Q1395.85 98.2453 1395.48 94.0457 Q1393.57 98.8628 1389.18 102.013 Q1384.86 105.1 1378.93 105.1 Q1374.36 105.1 1370.04 103.927 Q1365.78 102.815 1362.19 99.6657 Q1358.67 96.4543 1358.67 91.6371 M1368.43 91.5136 Q1368.43 96.2072 1371.77 99.2334 Q1375.1 102.26 1379.8 102.26 Q1385.11 102.26 1389.86 98.1835 Q1394.62 94.0457 1394.62 85.9553 L1394.62 73.2949 Q1380.6 73.7889 1374.48 79.4089 Q1368.43 84.9672 1368.43 91.5136 Z" fill="#000000" fill-rule="nonzero" fill-opacity="1" /><path clip-path="url(#clip310)" d="M1419.01 53.0999 L1419.01 50.3207 Q1424.82 50.0737 1428.65 45.9977 Q1432.54 41.8598 1433.83 36.7957 Q1435.19 31.7315 1435.32 25.8644 L1438.47 25.8644 L1438.47 49.1473 L1456.56 49.1473 L1456.56 53.0999 L1438.47 53.0999 L1438.47 88.2404 Q1438.47 101.889 1446.99 101.889 Q1450.63 101.889 1453.04 98.1835 Q1455.45 94.4162 1455.45 87.7463 L1455.45 80.7676 L1458.6 80.7676 L1458.6 87.9934 Q1458.6 94.8485 1455.45 99.9745 Q1452.3 105.1 1446.06 105.1 Q1443.78 105.1 1441.49 104.483 Q1439.27 103.927 1436.3 102.445 Q1433.4 100.901 1431.55 97.1954 Q1429.76 93.4281 1429.76 87.9934 L1429.76 53.0999 L1419.01 53.0999 Z" fill="#000000" fill-rule="nonzero" fill-opacity="1" /><path clip-path="url(#clip310)" d="M1477.5 96.8866 Q1469.16 88.611 1469.16 76.6298 Q1469.16 64.5869 1477.31 55.8172 Q1485.53 46.9858 1497.26 46.9858 Q1508.75 46.9858 1516.96 55.7555 Q1525.24 64.4634 1525.24 76.6298 Q1525.24 88.5492 1516.9 96.8248 Q1508.62 105.1 1497.14 105.1 Q1485.9 105.1 1477.5 96.8866 M1479.66 75.5799 Q1479.66 87.8698 1482.87 93.4281 Q1487.81 101.889 1497.26 101.889 Q1501.95 101.889 1505.84 99.3569 Q1509.8 96.8248 1511.96 92.5635 Q1514.74 87.0052 1514.74 75.5799 Q1514.74 63.4135 1511.4 58.0405 Q1506.46 49.8267 1497.14 49.8267 Q1493.06 49.8267 1489.05 51.9882 Q1485.09 54.088 1482.68 58.2876 Q1479.66 63.8458 1479.66 75.5799 Z" fill="#000000" fill-rule="nonzero" fill-opacity="1" /><path clip-path="url(#clip310)" d="M1532.4 103.68 L1532.4 99.7892 Q1539.13 99.7892 1540.68 98.9864 Q1542.28 98.1217 1542.28 94.0457 L1542.28 60.1403 Q1542.28 55.4467 1540.61 54.2733 Q1539.01 53.0999 1532.4 53.0999 L1532.4 49.1473 L1550 47.7886 L1550 61.6843 Q1551.79 56.2495 1555.56 52.05 Q1559.39 47.7886 1565.56 47.7886 Q1569.64 47.7886 1572.23 50.0737 Q1574.89 52.3588 1574.89 55.5084 Q1574.89 58.2876 1573.16 59.708 Q1571.49 61.0667 1569.46 61.0667 Q1567.17 61.0667 1565.56 59.6463 Q1564.02 58.1641 1564.02 55.632 Q1564.02 54.088 1564.7 52.9146 Q1565.44 51.6794 1566 51.2471 Q1566.55 50.8148 1566.92 50.6913 Q1566.68 50.5678 1565.56 50.5678 Q1558.59 50.5678 1554.57 57.5465 Q1550.62 64.4634 1550.62 74.3448 L1550.62 93.7987 Q1550.62 97.4424 1552.1 98.6158 Q1553.65 99.7892 1560.25 99.7892 L1562.91 99.7892 L1562.91 103.68 Q1557.84 103.309 1546.85 103.309 Q1545.31 103.309 1542.9 103.371 Q1540.49 103.433 1537.34 103.556 Q1534.19 103.68 1532.4 103.68 Z" fill="#000000" fill-rule="nonzero" fill-opacity="1" /><path clip-path="url(#clip310)" d="M1624.79 103.68 L1624.79 99.7892 L1627.82 99.7892 Q1634.67 99.7892 1636.22 98.6776 Q1637.82 97.5042 1637.82 93.7987 L1637.82 27.1613 Q1637.82 23.5176 1636.22 22.4059 Q1634.61 21.2325 1627.82 21.2325 L1624.79 21.2325 L1624.79 17.28 L1671.05 17.28 Q1687.23 17.28 1698.47 30.1875 Q1709.77 43.095 1709.77 61.1902 Q1709.77 78.9149 1698.41 91.3283 Q1687.11 103.68 1671.05 103.68 L1624.79 103.68 M1648.69 94.725 Q1648.69 97.9982 1649.62 98.9246 Q1650.54 99.7892 1654.87 99.7892 L1667.65 99.7892 Q1675.99 99.7892 1681.61 96.3925 Q1687.23 92.934 1690.13 88.9815 Q1697.11 79.4707 1697.11 61.1902 Q1697.11 41.9834 1690.56 32.9666 Q1682.1 21.2325 1667.53 21.2325 L1654.87 21.2325 Q1650.54 21.2325 1649.62 22.0972 Q1648.69 22.9618 1648.69 26.2967 L1648.69 94.725 Z" fill="#000000" fill-rule="nonzero" fill-opacity="1" /><path clip-path="url(#clip310)" d="M1721.01 103.68 L1721.01 99.7892 Q1727.74 99.7892 1729.29 98.9864 Q1730.83 98.1217 1730.83 94.0457 L1730.83 60.0168 Q1730.83 55.3232 1729.22 54.2115 Q1727.68 53.0999 1721.5 53.0999 L1721.5 49.1473 L1739.17 47.7886 L1739.17 94.1692 Q1739.17 97.9365 1740.53 98.8628 Q1741.88 99.7892 1748.06 99.7892 L1748.06 103.68 Q1735.15 103.309 1734.91 103.309 Q1733.18 103.309 1721.01 103.68 M1726.32 25.7409 Q1726.32 23.2088 1728.24 21.1708 Q1730.21 19.071 1732.99 19.071 Q1735.77 19.071 1737.75 20.9855 Q1739.72 22.8383 1739.72 25.8027 Q1739.72 28.7053 1737.75 30.6198 Q1735.77 32.4726 1732.99 32.4726 Q1730.09 32.4726 1728.17 30.4345 Q1726.32 28.3965 1726.32 25.7409 Z" fill="#000000" fill-rule="nonzero" fill-opacity="1" /><path clip-path="url(#clip310)" d="M1756.03 102.013 L1756.03 85.3378 Q1756.03 83.9173 1756.09 83.4232 Q1756.15 82.9292 1756.52 82.5586 Q1756.89 82.1881 1757.63 82.1881 Q1758.5 82.1881 1758.81 82.5586 Q1759.18 82.9292 1759.42 84.3496 Q1761.34 93.0576 1765.41 97.6894 Q1769.55 102.26 1777.03 102.26 Q1784.13 102.26 1787.71 99.1099 Q1791.29 95.9602 1791.29 90.7725 Q1791.29 81.5087 1778.14 79.1619 Q1770.54 77.618 1767.39 76.6298 Q1764.24 75.5799 1761.46 73.2949 Q1756.03 68.8483 1756.03 62.5489 Q1756.03 56.2495 1760.78 51.6177 Q1765.6 46.9858 1776.22 46.9858 Q1783.32 46.9858 1788.14 50.5678 Q1789.56 49.4561 1790.3 48.5297 Q1791.97 46.9858 1792.84 46.9858 Q1793.82 46.9858 1794.01 47.6651 Q1794.19 48.2827 1794.19 50.0737 L1794.19 62.7959 Q1794.19 64.2164 1794.13 64.7105 Q1794.07 65.2045 1793.7 65.5751 Q1793.33 65.8839 1792.53 65.8839 Q1791.11 65.8839 1791.04 64.7105 Q1790.06 49.3944 1776.22 49.3944 Q1768.75 49.3944 1765.41 52.297 Q1762.08 55.1379 1762.08 59.0287 Q1762.08 61.1902 1763.07 62.8577 Q1764.12 64.4634 1765.41 65.4516 Q1766.77 66.3779 1769.24 67.3043 Q1771.71 68.1689 1773.2 68.4777 Q1774.74 68.7865 1777.64 69.4041 Q1787.77 71.3186 1792.03 75.4564 Q1797.34 80.7676 1797.34 87.4993 Q1797.34 94.9721 1792.28 100.036 Q1787.22 105.1 1777.03 105.1 Q1768.81 105.1 1763.07 99.6039 Q1762.33 100.345 1761.77 101.024 Q1761.22 101.642 1760.97 101.889 Q1760.78 102.136 1760.72 102.321 Q1760.66 102.445 1760.54 102.568 Q1758 105.1 1757.39 105.1 Q1756.4 105.1 1756.21 104.421 Q1756.03 103.804 1756.03 102.013 Z" fill="#000000" fill-rule="nonzero" fill-opacity="1" /><path clip-path="url(#clip310)" d="M1805.13 124.307 Q1811.86 124.307 1813.4 123.443 Q1815.01 122.64 1815.01 118.626 L1815.01 59.3992 Q1815.01 55.1997 1813.4 54.1498 Q1811.86 53.0999 1805.13 53.0999 L1805.13 49.1473 L1823.34 47.7886 L1823.34 56.126 Q1830.94 47.7886 1841.07 47.7886 Q1851.81 47.7886 1859.66 56.126 Q1867.5 64.4634 1867.5 76.3828 Q1867.5 88.4257 1859.16 96.7631 Q1850.83 105.1 1839.28 105.1 Q1832.98 105.1 1828.72 101.889 Q1824.52 98.6158 1823.71 96.2072 L1823.71 97.3806 L1823.71 118.626 Q1823.71 122.702 1825.32 123.504 Q1826.93 124.307 1833.6 124.307 L1833.6 128.198 Q1820.32 127.828 1819.33 127.828 Q1818.09 127.828 1805.13 128.198 L1805.13 124.307 M1823.71 89.2903 Q1823.71 91.2048 1823.96 91.8841 Q1824.27 92.5635 1825.51 94.6015 Q1830.51 102.26 1838.66 102.26 Q1838.72 102.26 1838.78 102.26 Q1846.01 102.26 1851.51 94.9103 Q1857 87.4993 1857 76.3828 Q1857 65.7603 1852 58.3493 Q1847 50.9383 1840.08 50.9383 Q1835.14 50.9383 1830.82 53.5939 Q1826.49 56.2495 1823.71 61.0667 L1823.71 89.2903 Z" fill="#000000" fill-rule="nonzero" fill-opacity="1" /><path clip-path="url(#clip310)" d="M1877.07 91.6371 Q1877.07 80.8912 1889.73 75.2094 Q1897.33 71.5656 1913.02 70.6393 L1913.02 66.0074 Q1913.02 58.1641 1908.88 54.0262 Q1904.8 49.8267 1899.62 49.8267 Q1890.35 49.8267 1885.91 55.632 Q1889.67 55.7555 1891.03 57.67 Q1892.39 59.5227 1892.39 61.4373 Q1892.39 63.9693 1890.78 65.6368 Q1889.24 67.2425 1886.58 67.2425 Q1884.05 67.2425 1882.39 65.6986 Q1880.72 64.0929 1880.72 61.3137 Q1880.72 55.1379 1886.28 51.0618 Q1891.9 46.9858 1899.86 46.9858 Q1910.24 46.9858 1917.16 53.9645 Q1919.32 56.126 1920.37 58.9052 Q1921.48 61.6843 1921.6 63.537 Q1921.73 65.328 1921.73 68.91 L1921.73 94.1692 Q1921.73 94.9103 1921.97 96.1455 Q1922.22 97.3806 1923.33 98.9864 Q1924.5 100.53 1926.42 100.53 Q1930.99 100.53 1930.93 92.44 L1930.93 85.3378 L1934.14 85.3378 L1934.14 92.44 Q1934.14 99.1716 1930.56 101.827 Q1927.04 104.421 1923.76 104.421 Q1919.56 104.421 1916.91 101.333 Q1914.25 98.2453 1913.88 94.0457 Q1911.97 98.8628 1907.58 102.013 Q1903.26 105.1 1897.33 105.1 Q1892.76 105.1 1888.44 103.927 Q1884.18 102.815 1880.59 99.6657 Q1877.07 96.4543 1877.07 91.6371 M1886.83 91.5136 Q1886.83 96.2072 1890.17 99.2334 Q1893.5 102.26 1898.2 102.26 Q1903.51 102.26 1908.26 98.1835 Q1913.02 94.0457 1913.02 85.9553 L1913.02 73.2949 Q1899 73.7889 1892.88 79.4089 Q1886.83 84.9672 1886.83 91.5136 Z" fill="#000000" fill-rule="nonzero" fill-opacity="1" /><path clip-path="url(#clip310)" d="M1937.41 53.0999 L1937.41 50.3207 Q1943.22 50.0737 1947.05 45.9977 Q1950.94 41.8598 1952.23 36.7957 Q1953.59 31.7315 1953.72 25.8644 L1956.87 25.8644 L1956.87 49.1473 L1974.96 49.1473 L1974.96 53.0999 L1956.87 53.0999 L1956.87 88.2404 Q1956.87 101.889 1965.39 101.889 Q1969.03 101.889 1971.44 98.1835 Q1973.85 94.4162 1973.85 87.7463 L1973.85 80.7676 L1977 80.7676 L1977 87.9934 Q1977 94.8485 1973.85 99.9745 Q1970.7 105.1 1964.46 105.1 Q1962.18 105.1 1959.89 104.483 Q1957.67 103.927 1954.7 102.445 Q1951.8 100.901 1949.95 97.1954 Q1948.16 93.4281 1948.16 87.9934 L1948.16 53.0999 L1937.41 53.0999 Z" fill="#000000" fill-rule="nonzero" fill-opacity="1" /><path clip-path="url(#clip310)" d="M1996.39 96.7631 Q1988.36 88.3639 1988.36 76.3828 Q1988.36 64.3399 1996.27 55.6937 Q2004.17 46.9858 2015.78 46.9858 Q2023.5 46.9858 2029.31 50.6913 Q2035.11 54.335 2035.11 60.5726 Q2035.11 63.3518 2033.45 64.9575 Q2031.84 66.5014 2029.31 66.5014 Q2026.65 66.5014 2025.05 64.8957 Q2023.5 63.2282 2023.5 60.6962 Q2023.5 59.5845 2023.87 58.4729 Q2024.24 57.3612 2025.6 56.1878 Q2027.02 55.0144 2029.43 54.8291 Q2024.92 50.1972 2016.15 50.1972 Q2016.03 50.1972 2015.91 50.1972 Q2009.48 50.1972 2004.17 56.2495 Q1998.86 62.3019 1998.86 76.1358 Q1998.86 83.3615 2000.59 88.6727 Q2002.38 93.9222 2005.28 96.6395 Q2008.19 99.3569 2011.03 100.654 Q2013.87 101.889 2016.65 101.889 Q2029.06 101.889 2033.26 88.611 Q2033.63 87.3758 2034.87 87.3758 Q2036.53 87.3758 2036.53 88.611 Q2036.53 89.2285 2036.04 90.8343 Q2035.55 92.44 2034 94.9721 Q2032.46 97.5042 2030.23 99.7275 Q2028.07 101.889 2024.18 103.495 Q2020.35 105.1 2015.54 105.1 Q2004.42 105.1 1996.39 96.7631 Z" fill="#000000" fill-rule="nonzero" fill-opacity="1" /><path clip-path="url(#clip310)" d="M2040.73 103.68 L2040.73 99.7892 Q2047.47 99.7892 2049.01 98.9864 Q2050.55 98.1217 2050.55 94.0457 L2050.55 28.273 Q2050.55 23.5794 2048.89 22.4059 Q2047.28 21.2325 2040.73 21.2325 L2040.73 17.28 L2058.89 15.9213 L2058.89 59.8933 L2059.01 59.8933 Q2061.05 55.3232 2065.62 51.5559 Q2070.19 47.7886 2077.23 47.7886 Q2086.74 47.7886 2090.51 52.4823 Q2093.29 55.632 2093.85 59.1522 Q2094.46 62.6724 2094.46 71.8127 L2094.46 95.9602 Q2094.59 98.6158 2096.63 99.2334 Q2098.66 99.7892 2104.34 99.7892 L2104.34 103.68 Q2091.44 103.309 2090.14 103.309 Q2089.15 103.309 2075.87 103.68 L2075.87 99.7892 Q2082.61 99.7892 2084.15 98.9864 Q2085.76 98.1217 2085.76 94.0457 L2085.76 64.5869 Q2085.76 58.1641 2083.78 54.3968 Q2081.8 50.5678 2076.37 50.5678 Q2069.82 50.5678 2064.57 56.0643 Q2059.32 61.5608 2059.32 70.8245 L2059.32 94.0457 Q2059.32 98.1217 2060.87 98.9864 Q2062.47 99.7892 2069.14 99.7892 L2069.14 103.68 Q2056.24 103.309 2055 103.309 Q2054.01 103.309 2040.73 103.68 Z" fill="#000000" fill-rule="nonzero" fill-opacity="1" /><path clip-path="url(#clip312)" d="M440.337 1653.86 L440.337 1653.86 L815.866 1653.86 L815.866 1653.86 L440.337 1653.86 L440.337 1653.86  Z" fill="#009af9" fill-rule="evenodd" fill-opacity="1"/>
<polyline clip-path="url(#clip312)" style="stroke:#000000; stroke-linecap:round; stroke-linejoin:round; stroke-width:4; stroke-opacity:1; fill:none" points="440.337,1653.86 440.337,1653.86 815.866,1653.86 815.866,1653.86 440.337,1653.86 "/>
<path clip-path="url(#clip312)" d="M909.748 1537.34 L909.748 1653.86 L1285.28 1653.86 L1285.28 1537.34 L909.748 1537.34 L909.748 1537.34  Z" fill="#009af9" fill-rule="evenodd" fill-opacity="1"/>
<polyline clip-path="url(#clip312)" style="stroke:#000000; stroke-linecap:round; stroke-linejoin:round; stroke-width:4; stroke-opacity:1; fill:none" points="909.748,1537.34 909.748,1653.86 1285.28,1653.86 1285.28,1537.34 909.748,1537.34 "/>
<path clip-path="url(#clip312)" d="M1379.16 295.031 L1379.16 1653.86 L1754.69 1653.86 L1754.69 295.031 L1379.16 295.031 L1379.16 295.031  Z" fill="#009af9" fill-rule="evenodd" fill-opacity="1"/>
<polyline clip-path="url(#clip312)" style="stroke:#000000; stroke-linecap:round; stroke-linejoin:round; stroke-width:4; stroke-opacity:1; fill:none" points="1379.16,295.031 1379.16,1653.86 1754.69,1653.86 1754.69,295.031 1379.16,295.031 "/>
<path clip-path="url(#clip312)" d="M1848.57 1158.68 L1848.57 1653.86 L2224.1 1653.86 L2224.1 1158.68 L1848.57 1158.68 L1848.57 1158.68  Z" fill="#009af9" fill-rule="evenodd" fill-opacity="1"/>
<polyline clip-path="url(#clip312)" style="stroke:#000000; stroke-linecap:round; stroke-linejoin:round; stroke-width:4; stroke-opacity:1; fill:none" points="1848.57,1158.68 1848.57,1653.86 2224.1,1653.86 2224.1,1158.68 1848.57,1158.68 "/>
<path clip-path="url(#clip312)" d="M2317.98 711.588 L2317.98 1653.86 L2693.51 1653.86 L2693.51 711.588 L2317.98 711.588 L2317.98 711.588  Z" fill="#009af9" fill-rule="evenodd" fill-opacity="1"/>
<polyline clip-path="url(#clip312)" style="stroke:#000000; stroke-linecap:round; stroke-linejoin:round; stroke-width:4; stroke-opacity:1; fill:none" points="2317.98,711.588 2317.98,1653.86 2693.51,1653.86 2693.51,711.588 2317.98,711.588 "/>
<circle clip-path="url(#clip312)" style="fill:#009af9; stroke:none; fill-opacity:0" cx="628.101" cy="1653.86" r="2"/>
<circle clip-path="url(#clip312)" style="fill:#009af9; stroke:none; fill-opacity:0" cx="1097.51" cy="1537.34" r="2"/>
<circle clip-path="url(#clip312)" style="fill:#009af9; stroke:none; fill-opacity:0" cx="1566.92" cy="295.031" r="2"/>
<circle clip-path="url(#clip312)" style="fill:#009af9; stroke:none; fill-opacity:0" cx="2036.33" cy="1158.68" r="2"/>
<circle clip-path="url(#clip312)" style="fill:#009af9; stroke:none; fill-opacity:0" cx="2505.75" cy="711.588" r="2"/>
</svg>
